<svg width="32" height="32" viewBox="0 0 32 32" fill="none" xmlns="http://www.w3.org/2000/svg">
<path d="M31.619 15.543C31.619 24.156 24.656 31.119 16.076 31.119C7.463 31.119 0.5 24.156 0.5 15.543C0.5 6.963 7.463 0 16.076 0C24.656 0 31.619 6.963 31.619 15.543ZM16.076 1.221C8.156 1.221 1.721 7.623 1.721 15.543C1.721 23.463 8.156 29.898 16.076 29.898C23.996 29.898 30.398 23.463 30.398 15.543C30.398 7.623 23.996 1.221 16.076 1.221ZM7.463 6.765H24.722V9.966H7.463V6.765ZM8.816 13.497H23.171V16.698H8.816V13.497ZM6.275 20.625H25.877V23.826H6.275V20.625Z" fill="#8D7D6F"/>
</svg>
