<svg width="32" height="32" viewBox="0 0 32 32" fill="none" xmlns="http://www.w3.org/2000/svg">
<path d="M31.9999 15.543C31.9999 24.156 25.0369 31.119 16.4569 31.119C7.84386 31.119 0.880859 24.156 0.880859 15.543C0.880859 6.963 7.84386 0 16.4569 0C25.0369 0 31.9999 6.963 31.9999 15.543ZM16.4569 1.221C8.53686 1.221 2.10186 7.623 2.10186 15.543C2.10186 23.463 8.53686 29.898 16.4569 29.898C24.3769 29.898 30.7789 23.463 30.7789 15.543C30.7789 7.623 24.3769 1.221 16.4569 1.221ZM6.12786 13.596H26.7859V16.962H6.12786V13.596Z" fill="#8D7D6F"/>
</svg>
