<svg width="406" height="130" viewBox="0 0 406 130" fill="none" xmlns="http://www.w3.org/2000/svg">
<path d="M66.0671 9.80871C66.0671 11.0521 64.8153 11.7428 62.0335 12.9862C62.0335 13.6769 62.1727 14.9203 62.3118 26.3868C62.3118 28.0446 62.729 35.6429 62.729 37.3007C62.729 41.5834 57.7218 41.9979 57.3045 41.9979C55.9136 41.9979 55.2182 40.8927 55.2182 39.5112C55.2182 39.2349 55.3573 38.4059 55.3573 38.1297H22.6715V41.3071C22.6715 42.6886 19.3334 44.3464 16.9688 44.3464C15.1607 44.3464 14.6043 43.5175 14.6043 41.8597C14.6043 37.3007 15.2998 16.8544 15.2998 12.5717C15.2998 10.4995 15.0216 6.63124 14.1871 2.34856L22.9497 7.18385H53.8274L56.1918 4.42083C57.0263 3.45377 57.4437 3.03931 58.2782 3.03931C58.9736 3.03931 59.53 3.59192 60.5036 4.28267L64.6763 7.5983C65.3717 8.15091 66.0671 8.97981 66.0671 9.80871ZM55.3573 20.8608V10.4995H22.6715V20.8608H55.3573ZM55.3573 34.814V24.1764H22.6715V34.814H55.3573ZM57.4436 84.4102V68.5228H22.6715V84.4102H57.4436ZM67.8753 68.2465C67.8753 69.0754 67.458 69.9044 63.8417 71.2859C63.8417 73.6344 64.3981 84.4102 64.3981 86.6206C64.3981 90.4888 60.2254 91.0414 59.2518 91.0414C57.3045 91.0414 57.3045 90.4888 57.4436 87.7258H44.6475C44.7866 94.2189 44.7866 97.1201 44.7866 106.376C44.7866 108.31 45.0648 116.461 45.0648 118.119C45.0648 121.435 45.0648 126.27 34.0768 129.171C32.825 122.402 28.9305 120.606 25.5923 118.948L25.7314 118.257C37.8322 118.948 37.8322 117.705 37.8322 115.218C37.8322 110.797 37.554 91.594 37.554 87.7258H22.8106C22.8106 90.0744 22.2542 91.8703 18.2207 91.8703C15.4389 91.8703 15.2998 90.627 15.2998 89.1073C15.2998 86.8969 15.8561 77.6408 15.8561 75.7067C15.8561 75.2922 15.8561 68.5229 15.0216 60.6482L22.9497 65.2072H56.7482L58.6954 63.135C59.2518 62.5824 59.6691 62.0298 60.5036 62.0298C61.199 62.0298 61.8945 62.5824 62.3118 62.9968L66.6235 66.4506C67.1798 66.865 67.8753 67.4176 67.8753 68.2465ZM32.1295 102.094C32.1295 102.784 31.295 103.889 30.1823 103.889C29.6259 103.889 26.9833 104.028 26.4269 104.028C22.1151 108.587 18.2206 112.179 15.0216 114.803C10.988 118.119 6.81537 121.296 1.94726 123.507L1.39091 122.402C9.59715 114.113 17.247 105.271 21.6979 94.4952L31.0168 100.436C31.5732 100.712 32.1295 101.126 32.1295 102.094ZM127.266 86.4825C127.266 88.5547 125.041 88.5547 124.345 88.5547C123.789 88.5547 123.233 88.5547 121.146 87.7258C108.906 103.337 83.036 121.02 64.1199 124.888L63.8417 124.06C83.8705 113.836 106.82 92.5611 113.079 83.5813C114.331 81.7853 114.609 81.0946 116.278 75.2922L126.153 84.4102C126.988 85.2391 127.266 85.6536 127.266 86.4825ZM118.504 9.53241C118.504 11.0521 117.113 11.881 115.305 11.881C114.609 11.881 113.914 11.7428 112.523 11.3284C103.621 21.1371 90.1295 32.3273 73.5779 39.9256L72.7434 38.8204C80.1151 33.4325 92.0767 22.2423 99.1702 14.2295C106.264 6.07864 107.098 3.45377 107.933 0L117.391 7.46014C117.947 7.8746 118.504 8.4272 118.504 9.53241ZM122.259 48.7673C122.259 50.8395 119.894 50.8395 118.921 50.8395C117.53 50.8395 115.722 50.5632 114.887 50.4251C106.959 58.0234 92.2158 69.4899 75.1079 75.5685L74.2734 74.3252C88.4604 65.4835 97.7794 56.6419 102.091 52.0829C108.072 45.7279 110.019 41.9979 111.827 38.406L120.868 46.4187C121.703 47.1095 122.259 47.6621 122.259 48.7673ZM78.5851 53.7407C78.5851 55.2604 77.0551 55.2604 76.4988 55.2604H21.2806C16.8298 55.2604 9.04081 55.6748 3.33818 56.78L0 50.8395C7.78897 51.5303 15.4389 51.9447 23.2278 51.9447H36.9977C36.9977 50.5632 36.9976 48.491 36.8586 47.1095C36.7195 45.8661 35.6067 40.3401 35.4676 39.0967L45.2038 42.4123C47.1511 43.1031 47.5684 43.2412 47.5684 44.2083C47.5684 46.0043 45.8993 46.4187 43.6739 46.9713V51.9447H64.3981L67.7362 47.8002C68.8489 46.4187 69.2661 45.7279 70.1007 45.7279C70.7961 45.7279 71.7698 46.5569 72.8825 47.5239L77.1942 51.6684C78.1678 52.4973 78.5851 52.9118 78.5851 53.7407ZM67.3189 108.31C67.3189 110.383 66.3453 112.593 63.5636 112.593C60.5036 112.593 59.8082 111.073 57.8609 106.376C56.0528 101.955 53.9665 97.6727 50.3502 94.4952L51.0456 93.8045C58.4173 96.7056 67.3189 100.159 67.3189 108.31Z" fill="#9E9DA0"/>
<path d="M252.585 16.7163C252.585 18.5122 250.777 19.0648 247.3 19.203C244.935 21.6897 244.379 22.3804 238.815 28.4591C232.556 35.3666 229.496 37.7152 227.688 39.0967L226.854 38.406C229.775 34.1233 238.12 19.203 240.206 8.7035L250.638 14.644C252.307 15.611 252.585 15.7492 252.585 16.7163ZM203.487 29.4261C203.487 34.2614 199.731 34.6759 199.036 34.6759C195.698 34.6759 194.724 31.4984 193.472 27.7683C191.803 22.7949 189.3 16.3018 185.823 12.848L186.657 11.881C193.194 14.7821 203.487 20.7226 203.487 29.4261ZM267.746 84.4102C265.381 84.5484 260.096 84.8246 252.724 91.8703C241.319 84.272 227.132 67.6939 221.151 52.0829V73.0818C221.151 77.3645 222.403 98.2253 222.403 99.8831C222.403 100.85 222.264 103.889 220.734 105.271C220.317 105.824 218.23 107.205 216.144 107.205C215.309 107.205 212.806 106.514 212.806 104.028C212.806 103.475 212.806 103.061 212.945 102.508C213.084 101.265 213.64 63.8257 213.64 57.4708C204.739 72.6674 191.942 85.2391 176.504 93.8045L175.947 92.8374C190.552 81.509 203.904 61.7535 210.719 47.6621H197.645C194.863 47.6621 186.379 47.9384 179.842 49.3199L176.504 43.2412C183.736 43.932 192.36 44.3464 199.592 44.3464H213.64C213.64 14.3677 213.362 8.7035 211.554 1.51966L223.655 4.83528C224.628 4.97343 226.158 5.38788 226.158 6.63124C226.158 8.15091 224.072 9.11796 221.012 10.3613L221.151 38.2678V44.3464H245.213L249.247 39.9256C250.638 38.2678 250.916 38.2678 251.472 38.2678C252.168 38.2678 252.863 38.8204 254.115 39.6493L260.235 44.0701C260.93 44.6227 261.626 45.4516 261.626 46.1424C261.626 47.6621 260.235 47.6621 259.54 47.6621H221.29C227.41 61.6153 246.048 80.4038 267.746 83.7194V84.4102ZM174.278 25.0053C174.278 29.1498 171.079 29.9787 169.688 29.9787C166.489 29.9787 165.655 27.9065 163.707 22.9331C160.369 14.5058 155.918 10.2232 152.58 6.76939L153.137 5.80234C167.324 13.1243 174.278 16.7163 174.278 25.0053ZM266.494 109.83C262.321 112.455 257.731 115.356 256.341 122.125C252.724 122.402 249.664 122.402 240.763 122.402C206.129 122.402 193.611 122.402 180.815 114.942C174 111.073 171.775 107.343 168.854 102.232C167.741 103.337 166.767 104.028 158.978 111.626C152.441 117.981 151.885 118.81 150.772 119.915C150.633 121.158 150.355 123.092 148.825 123.092C147.99 123.092 147.295 121.987 146.878 121.435L140.341 111.902C147.295 111.902 157.727 107.758 163.847 102.784C164.125 92.1466 163.429 75.1541 163.707 64.5165H159.952C155.084 64.5165 147.434 65.0691 142.149 66.1743L138.811 60.0956C145.487 60.6482 152.441 61.0627 161.899 61.2008L165.376 57.3326C166.35 56.2274 166.489 56.0893 167.185 56.0893C167.741 56.0893 168.576 56.5037 169.132 56.9182L174.278 60.9245C174.695 61.339 175.669 62.3061 175.669 63.2731C175.669 64.5165 173.444 66.0361 171.218 67.5558C171.218 76.2593 171.496 90.3507 171.496 99.0542C171.914 101.126 172.331 103.613 178.59 108.863C182.484 112.179 188.326 115.356 209.05 115.356C225.463 115.356 252.724 113.422 266.216 109.277L266.494 109.83Z" fill="#9E9DA0"/>
<path d="M354.398 36.0574C354.398 37.3007 353.842 37.4389 349.53 38.2678C347.722 40.0638 347.026 40.8927 344.94 42.9649C348.974 44.899 352.451 47.2476 352.451 51.5303C352.451 53.4644 351.338 55.2604 349.391 55.2604C347.165 55.2604 346.053 53.7407 344.106 50.9777C342.436 48.491 341.463 47.6621 340.767 46.9713C332.7 54.2933 328.667 56.3656 325.607 57.8852L324.911 57.0563C330.753 51.9447 334.091 48.3528 337.429 44.0701C333.535 41.169 330.753 39.7875 328.249 38.5441V37.7152C333.813 38.9586 336.595 39.7875 339.655 40.8927C344.662 33.4325 344.94 31.3603 344.94 29.1498L352.868 34.1233C353.842 34.6759 354.398 35.2285 354.398 36.0574ZM356.206 7.32199C356.206 8.7035 353.424 9.25611 350.921 9.80871C348.974 12.7099 348.139 13.9532 346.609 16.0255C349.113 17.2689 354.12 19.7556 354.12 24.8672C354.12 27.3539 352.173 27.9065 350.921 27.9065C348.974 27.9065 347.861 26.9394 346.47 25.2816C345.914 24.5909 343.549 21.4134 342.993 20.7226C337.429 27.492 331.727 30.5314 328.249 32.4655L327.554 31.7747C332.978 27.2157 336.873 21.4134 339.377 17.407C334.787 13.5388 331.727 12.2954 328.945 11.1902L329.223 10.2232C332.283 10.9139 334.926 11.4665 341.324 13.8151C345.635 5.52603 345.636 3.03931 345.775 0.138149L354.676 5.24973C355.372 5.80234 356.206 6.35494 356.206 7.32199ZM406 66.865C406 68.2465 405.026 68.9373 402.801 68.9373C401.688 68.9373 399.046 68.7991 397.237 68.661C394.038 71.424 386.806 75.5685 383.746 76.95L383.189 75.983C385.971 72.3911 389.17 68.1084 390.978 63.5494H288.192C288.192 70.7333 285.132 78.746 278.873 78.746C274.978 78.746 274.7 75.4304 274.7 74.4633C274.7 71.5622 276.091 70.457 279.846 67.6939C283.463 64.9309 285.549 59.6812 286.523 54.9841H287.218C287.775 57.6089 287.914 58.576 288.053 60.2338H295.981C295.981 28.4591 295.981 15.611 293.616 6.21678L303.631 10.6376C306.134 9.67056 315.731 4.97343 318.096 0.138149L326.58 6.76939C327.554 7.5983 328.11 8.15091 328.11 8.97981C328.11 10.085 326.859 10.2232 326.163 10.2232C324.633 10.2232 322.964 9.53241 321.851 9.11796C316.288 10.3613 306.691 12.0191 302.518 12.4336V26.6631H313.923L316.288 22.9331C316.844 21.966 317.4 20.9989 318.374 20.9989C319.209 20.9989 319.487 21.4134 320.878 22.6567L324.355 26.3868C325.05 27.2157 325.607 27.7683 325.607 28.5972C325.607 29.9787 324.077 29.9787 323.52 29.9787H302.518V43.6557H312.95L315.453 40.2019C316.705 38.406 316.844 38.2678 317.54 38.2678C318.096 38.2678 318.513 38.406 319.904 39.7875L323.52 43.3794C324.216 44.0701 324.772 44.6227 324.772 45.4516C324.772 46.8332 323.52 46.9713 322.686 46.9713H302.518V60.2338H377.348V47.6621H370.811C368.446 47.6621 365.386 47.8002 363.161 48.3528L361.77 43.7938C364.273 43.932 369.559 44.3464 371.645 44.3464H377.348V31.3603H371.784C369.559 31.3603 366.36 31.6366 364.134 32.051L362.743 27.6302C365.247 27.7683 370.532 28.0446 372.619 28.0446H377.348V14.3677H370.811C368.446 14.3677 365.247 14.644 363.022 15.0584L361.631 10.4995C364.134 10.7758 369.559 11.0521 371.645 11.0521H376.235L379.295 7.46014C380.129 6.49309 380.686 5.80234 381.52 5.80234C381.938 5.80234 382.216 5.94049 383.746 7.0457L388.614 10.6376C389.588 11.3284 390.144 11.881 390.144 12.848C390.144 14.0914 390.005 14.0914 384.58 16.8544C384.58 18.9267 383.885 42.136 383.885 46.8332V60.2338H391.396L394.038 57.8852C395.568 56.5037 395.707 56.3656 396.264 56.3656C397.098 56.3656 397.794 57.1945 398.489 57.8852L404.887 64.5165C405.583 65.3454 406 66.1743 406 66.865ZM402.94 97.2582C402.94 98.5016 401.688 98.7779 400.854 98.6397H343.132V115.356C343.132 119.501 343.132 126.684 329.779 130C328.249 125.303 323.103 120.606 315.036 118.533V117.705C324.494 118.395 328.667 118.672 329.501 118.672C335.343 118.672 335.343 116.323 335.343 112.593C335.343 110.383 335.204 100.712 335.204 98.6397H298.623C293.755 98.6397 286.106 99.3305 280.82 100.298L277.482 94.3571C287.914 95.186 298.067 95.3241 300.571 95.3241H335.204C335.204 91.8703 334.787 89.2455 333.674 86.068L341.185 87.3114C343.271 85.6536 344.106 84.8246 351.338 77.3645H321.573C316.705 77.3645 308.916 77.9171 303.77 79.0223L300.432 73.0818C310.863 73.9107 321.017 74.0489 323.52 74.0489H355.233L360.796 70.8714C362.048 70.1807 363.022 69.6281 363.717 69.6281C364.273 69.6281 364.691 69.9044 366.082 71.0096L370.393 74.6015C371.228 75.2922 371.506 76.1211 371.506 76.6737C371.506 78.6079 369.141 78.8842 368.029 79.0223C367.194 79.1605 363.3 79.2986 362.604 79.4368C357.041 81.7853 347.722 85.9299 343.688 87.7258C344.105 87.864 344.662 88.1403 344.662 88.831C344.662 89.2455 344.523 89.5218 343.132 90.9033V95.3241H384.858L389.588 89.6599C390.144 88.9692 391.117 87.864 391.813 87.864C392.647 87.864 393.76 88.831 394.317 89.2455L401.549 95.186C402.106 95.6004 402.94 96.2912 402.94 97.2582Z" fill="#9E9DA0"/>
</svg>
