<svg width="498" height="98" viewBox="0 0 498 98" fill="none" xmlns="http://www.w3.org/2000/svg">
<path d="M88.025 7.37635C88.025 8.43011 86.5491 9.48388 84.6516 10.643C84.757 13.172 84.8624 24.0258 84.8624 26.2387C84.9678 28.557 85.2841 39.7269 85.2841 41.4129C85.2841 46.9979 84.2299 48.5785 82.8594 49.843C79.9077 52.6882 76.6397 53.6366 75.2693 54.0581C74.0042 50.8968 73.1609 49 69.2604 46.3656V45.5226C70.5254 45.7333 71.7904 45.9441 74.1097 45.9441C77.9047 45.9441 78.3264 45.4172 78.8535 44.5742C79.3806 43.7312 79.3806 39.2 79.3806 36.4602C79.3806 26.2387 79.2752 18.5462 79.0643 13.3828C78.8535 6.63872 78.0102 5.05807 77.1668 3.37205L86.5491 6.00647C87.3925 6.21722 88.025 6.74409 88.025 7.37635ZM96.3531 87.8839C95.826 87.9893 89.7117 89.7806 87.4979 94.3118C65.4653 87.6731 52.815 72.4989 49.547 62.6989H45.1194C43.8544 64.1742 42.0622 66.071 38.7942 68.8108V86.1979C50.9174 82.9312 54.7125 81.8774 59.7726 79.9806L60.0889 80.7183C51.9716 85.7763 37.8455 91.4667 28.9903 94.4172C28.3577 95.8925 27.7252 97.6839 26.4602 97.6839C25.7223 97.6839 25.1952 96.9463 24.8789 96.4194L20.873 89.4645C24.2464 89.7806 26.1439 89.4645 33.207 87.5677V73.3419C26.7765 78.0839 12.2286 86.8301 0 89.4645V88.6215C8.32811 85.7764 28.9903 71.7613 38.0563 62.6989H16.4454C13.072 62.6989 7.1685 63.1204 2.84632 63.9634L0.316256 59.4323C6.21973 59.8538 12.0178 60.1699 17.9213 60.1699H49.2307C49.2307 59.5376 49.1253 52.7935 48.8091 50.2645L56.6101 53.0043C58.0859 53.5312 58.613 53.7419 58.613 54.4796C58.613 55.8495 56.6101 56.4817 54.9234 57.0086V60.1699H81.3836L84.6516 56.0602C85.3895 55.1118 85.7058 54.7957 86.2328 54.7957C86.7599 54.7957 87.7087 55.428 88.1304 55.8495L92.9797 59.9591C93.5068 60.3807 94.0339 60.9075 94.0339 61.5398C94.0339 62.5935 93.0851 62.6989 92.4526 62.6989H50.812C52.7096 66.2817 55.9776 70.0753 60.4052 73.8688C60.8268 73.6581 68.9441 68.9161 70.6308 63.9634L77.0614 69.5484C77.1668 69.6538 77.9047 70.286 77.9047 70.7075C77.9047 71.2344 77.2722 72.1828 75.4801 72.1828C74.8476 72.1828 74.4259 72.1828 72.8446 71.972C71.1579 72.4989 63.3569 74.5011 61.7756 74.9226C73.1609 83.7742 85.2841 87.4624 96.3531 86.9355V87.8839ZM69.3658 10.0108C69.3658 10.8538 68.417 11.486 66.5195 12.8559C66.5195 17.3871 66.5195 25.3957 66.7303 31.1914C66.8357 32.3505 67.0466 37.0925 67.0466 38.0409C67.0466 40.9914 64.0948 41.8344 62.8298 41.8344C61.0377 41.8344 61.0377 40.5699 61.0377 40.043C61.0377 39.0946 61.1431 34.8796 61.1431 34.0366C61.2485 27.2925 61.3539 24.5527 61.3539 21.6022C61.3539 13.4882 61.1431 11.6968 59.7726 6.42797L67.7845 8.64087C68.9441 8.957 69.3658 9.27313 69.3658 10.0108ZM54.9234 24.1312C54.9234 25.0796 53.9746 25.1849 53.3421 25.1849H31.6257V33.2989H42.6947L44.5923 31.086C44.9086 30.7699 45.2248 30.3484 45.7519 30.3484C46.1736 30.3484 46.4898 30.5591 47.0169 30.9806L50.1795 33.2989C50.6012 33.6151 51.0229 34.1419 51.0229 34.6688C51.0229 35.7226 48.8091 36.8817 48.1765 37.1979C48.1765 47.314 48.0711 48.2624 47.2278 49.5269C45.7519 51.6344 43.3273 52.8989 40.7972 53.7419C39.8484 50.1591 38.0563 48.157 37.213 47.2086V46.3656C38.478 46.471 42.2731 46.6817 42.6947 45.4172C43.011 44.5742 43.011 36.9871 43.011 35.828H31.6257C31.7312 39.8323 31.8366 45.3118 32.0474 49.2108C32.0474 49.843 32.1528 52.3721 32.1528 52.8989C32.1528 55.3226 29.4119 55.9548 28.2523 55.9548C26.3548 55.9548 26.2494 55.0065 26.2494 54.0581C26.2494 52.1613 26.4602 47.5247 26.4602 46.471C26.5656 42.0452 26.4602 41.4129 26.5656 35.828H16.4454V43.3097C16.4454 44.3634 16.6562 49.843 16.6562 50.4753C16.6562 53.9527 13.4936 54.1634 12.7557 54.1634C12.0178 54.1634 10.8582 54.0581 10.8582 52.5828C10.8582 50.7914 11.1744 47.9462 11.1744 46.1548V39.6215C11.1744 34.4581 11.069 33.5097 10.4365 31.086L16.7616 33.2989H26.671V25.1849H17.2887C13.9153 25.1849 8.01185 25.6065 3.68967 26.4495L1.26503 21.9183C7.06308 22.3398 12.8611 22.6559 18.7646 22.6559H26.671V13.9097H15.9183C13.5991 17.2817 11.2798 19.8108 9.9094 21.286L9.06604 21.1807C10.7527 17.7032 14.4424 8.53549 13.9153 3.47742L20.873 5.26882C21.6109 5.47957 22.138 5.69034 22.138 6.42797C22.138 7.06023 21.2947 8.00861 19.0809 9.16775C18.5538 10.0108 18.3429 10.3269 17.7104 11.3806H26.671C26.671 6.11184 26.671 5.90108 25.3006 1.89678L32.6799 3.58281C33.4179 3.79356 34.3666 3.89894 34.3666 4.74195C34.3666 5.79571 33.1016 6.84947 31.7312 8.11399V11.3806H40.5864L42.5893 8.957C43.1164 8.21936 43.6435 7.69248 44.276 7.69248C44.9086 7.69248 45.6465 8.21936 46.1736 8.74625L49.0199 11.1699C49.6524 11.8022 50.0741 12.1183 50.0741 12.8559C50.0741 13.8043 49.2307 13.9097 48.4928 13.9097H31.6257V22.6559H44.4869L47.2278 19.8108C47.9657 19.0731 48.4928 18.4409 49.0199 18.4409C49.4416 18.4409 50.4958 19.2839 50.812 19.6L53.8692 22.4452C54.5017 23.0774 54.9234 23.3936 54.9234 24.1312Z" fill="#9E9DA0"/>
<path d="M192.074 33.1936C192.074 34.1419 191.23 34.3527 190.492 34.3527H120.389C120.283 44.785 120.178 49.5269 119.967 52.4774H156.126L157.918 49.9484C158.445 49.2108 158.867 48.7892 159.394 48.7892C159.921 48.7892 160.764 49.3161 161.186 49.6323L164.981 52.1613C165.613 52.5828 166.246 53.2151 166.246 53.8473C166.246 54.6903 165.824 54.9011 162.873 57.2194C162.978 72.4989 162.873 74.185 163.294 82.5097C163.294 83.5634 163.716 93.4688 163.716 93.9957C163.716 96.6301 160.764 97.6839 159.499 97.6839C156.547 97.6839 156.547 95.0494 156.547 93.7849C156.547 90.3075 156.969 74.7118 156.969 71.5505C156.969 66.071 156.969 60.486 156.864 55.0064H119.756C117.226 79.8753 106.052 89.9914 99.094 95.2602L98.5669 94.8387C111.112 77.9785 114.801 65.6495 114.801 33.7204C114.801 23.8151 114.169 12.4344 113.642 8.43012C113.431 6.7441 113.115 5.69033 112.377 3.89893L122.075 6.53336C122.919 6.74411 123.762 6.95485 123.762 8.11399C123.762 8.957 123.446 9.16776 120.705 10.9592C120.705 12.8559 120.494 28.8731 120.494 31.8237H149.168C149.168 28.557 149.168 17.071 148.746 8.43012C148.641 5.16346 148.325 3.79356 147.903 2.00216L156.758 4.74195C158.34 5.26883 158.445 5.69034 158.445 6.21722C158.445 7.16561 156.126 8.85161 155.072 9.69463C154.861 13.172 155.072 28.6624 155.072 31.8237H177.42L181.532 26.6602C181.848 26.2387 182.586 25.3957 183.113 25.3957C183.746 25.3957 184.589 26.1333 185.116 26.5549L191.125 31.6129C191.652 32.1398 192.074 32.5613 192.074 33.1936Z" fill="#9E9DA0"/>
<path d="M297.704 66.3871C297.704 67.3355 296.755 67.5462 296.122 67.5462H214.528C211.26 67.5462 205.251 67.8624 201.034 68.7054L198.504 64.1742C203.775 64.5957 208.519 64.8064 212.736 64.9118C212.63 53.2151 212.209 38.4624 211.682 26.871C211.155 16.4387 210.522 14.542 209.362 10.8538L216.531 14.5419C217.796 13.6989 224.964 8.64087 226.229 3.89893L233.398 9.69463C233.82 10.0108 234.03 10.5377 234.03 11.0645C234.03 12.2237 233.187 12.2237 232.344 12.2237C231.711 12.2237 228.865 12.0129 228.338 12.0129C225.386 13.1721 219.166 15.3849 216.742 16.0172C216.636 18.0194 216.953 27.0817 216.953 28.9785H225.492L227.178 26.7656C227.6 26.1333 228.127 25.3957 228.76 25.3957C229.392 25.3957 230.13 26.1333 230.657 26.6602L232.555 28.557C232.976 28.9785 233.609 29.7161 233.609 30.3484C233.609 31.2968 232.765 31.5075 232.027 31.5075H216.953C217.163 42.0452 217.269 43.2043 217.374 46.5763H224.859L226.757 43.8366C227.178 43.2043 227.705 42.4667 228.443 42.4667C229.076 42.4667 229.708 43.2043 230.13 43.7312L232.344 46.471C232.765 46.9978 233.187 47.5247 233.187 47.9462C233.187 48.8946 232.449 49.1054 231.606 49.1054H217.374C217.48 51.6344 217.796 62.6989 217.901 65.0172H249.738C249.949 59.2215 250.581 50.1591 250.792 44.4688C251.003 38.4624 251.003 34.7742 251.003 31.2968H244.256C244.045 32.2452 242.991 33.7204 240.461 33.7204C239.407 33.7204 238.774 33.6151 238.774 31.8237C238.774 30.0323 238.985 27.3978 238.985 25.7118C239.196 19.2839 239.091 12.5398 239.091 10.643C239.091 5.05807 238.88 4.00431 238.142 1.47528L246.47 3.68818C246.892 3.79356 248.367 4.21507 248.367 5.3742C248.367 6.32259 247.102 6.95485 244.678 8.11399C244.678 9.27313 244.678 9.8 244.572 15.0688H251.635L253.111 12.5398C253.849 11.1699 254.271 11.0645 254.693 11.0645C255.325 11.0645 256.063 11.6968 256.59 12.2237L258.909 14.7527C259.753 15.7011 259.964 16.0172 259.964 16.5441C259.964 17.4925 259.12 17.5979 258.382 17.5979H244.467C244.467 18.6516 244.362 21.4968 244.362 22.3398V28.7677H250.476L251.846 26.871C252.479 26.028 252.795 25.5011 253.428 25.5011C254.166 25.5011 254.587 25.9226 255.536 26.6602L258.488 29.1892C259.436 30.0323 259.542 30.4538 259.542 30.7699C259.542 31.4022 259.12 31.7183 258.699 32.0344C258.382 32.2452 256.59 33.1935 256.274 33.4043C256.168 34.7742 255.22 59.643 254.903 65.0172H273.773C273.879 62.6989 273.984 51.6344 274.09 49.7376H267.87C266.183 49.7376 263.759 49.9484 262.072 50.2645L261.018 46.8925C262.915 46.9979 266.921 47.2086 268.503 47.2086H274.09C274.09 44.8903 274.301 34.3527 274.301 32.1398H269.03C267.343 32.1398 264.918 32.3506 263.232 32.772L262.177 29.2946C264.075 29.4 268.081 29.6108 269.662 29.6108H274.406C274.511 25.9226 274.511 25.6065 274.511 21.7075C274.511 17.8086 274.617 17.071 274.722 15.3849H270.295C268.503 15.3849 266.078 15.5957 264.391 15.9118L263.337 12.4344C265.235 12.6452 269.346 12.8559 270.927 12.8559H273.352L275.46 10.5376C276.514 9.37849 276.725 9.06237 277.463 9.06237C278.096 9.06237 278.623 9.48388 279.044 9.8L282.734 12.5398C283.683 13.2774 283.999 13.9097 283.999 14.4366C283.999 15.9118 281.047 16.9656 280.099 17.3871C279.993 18.1247 279.572 43.8366 279.466 48.7892C279.361 51.4237 279.15 62.6989 279.044 65.0172H286.002L288.848 60.8022C289.27 60.1699 289.903 59.5376 290.535 59.5376C291.168 59.5376 291.906 60.1699 292.538 60.6968L296.755 64.8064C297.282 65.228 297.704 65.7548 297.704 66.3871ZM246.048 40.7806C246.048 41.9398 244.362 42.572 242.253 43.4151C242.148 45.628 242.042 55.7441 241.831 57.6409C241.515 60.0645 239.091 61.2237 237.615 61.2237C236.561 61.2237 236.244 60.486 236.244 59.643C236.244 57.0086 236.666 52.7935 236.771 50.2645C236.877 47.2086 236.982 43.2043 236.982 41.4129C236.982 38.6731 236.877 37.8301 236.561 36.4602L244.467 39.3054C244.994 39.5161 246.048 39.9376 246.048 40.7806ZM284.21 92.4151C284.21 95.0495 282.629 95.8925 281.153 95.8925C279.15 95.8925 278.623 95.2602 273.141 89.4645C270.611 86.7247 261.545 78.6107 253.217 74.5011L253.428 73.8688C263.864 77.0301 284.21 83.985 284.21 92.4151ZM237.931 77.557C237.931 78.6108 236.35 78.9269 235.823 79.0322C235.19 79.1376 232.344 79.3484 231.817 79.4538C223.699 86.6193 212.42 93.0473 199.664 96.5247L199.558 95.6817C219.799 85.5656 227.178 74.3957 228.654 71.972L236.35 75.9763C236.982 76.2925 237.931 76.9247 237.931 77.557Z" fill="#9E9DA0"/>
<path d="M378.244 76.8194C378.244 77.8731 376.557 79.0323 374.87 80.086C374.976 84.5118 375.081 87.2516 375.187 89.1484C375.187 89.5699 375.503 92.3097 375.503 93.6796C375.503 94.5226 375.187 95.5763 374.343 96.1032C373.5 96.8409 372.024 97.3677 371.392 97.3677C369.283 97.3677 369.283 95.6817 369.389 93.8903H327.853C328.064 97.6839 323.32 98 323.215 98C321.95 98 321.423 96.9462 321.423 95.6817C321.423 94.9441 321.528 91.8882 321.634 91.2559C321.739 85.9871 322.266 69.0215 322.266 58.9054C322.266 54.7957 322.266 50.686 321.739 48.157C321.001 45.1011 321.001 44.6796 320.79 43.8366L327.959 47.9462H363.907L366.437 45.3118C367.069 44.5742 367.175 44.4688 367.491 44.4688C367.913 44.4688 368.967 45.1011 369.283 45.3118L373.5 48.2624C374.132 48.6839 374.554 49.1054 374.554 49.843C374.554 50.3699 374.132 50.7914 373.816 51.0021C373.395 51.2129 371.286 52.2667 370.97 52.4774C370.97 53.6366 371.392 64.5957 371.392 64.8064C371.392 67.5462 369.81 69.1269 366.964 69.1269C365.277 69.1269 365.277 68.3893 365.277 65.7548H327.853V75.1333H368.545L370.443 73.1312C370.97 72.6043 371.392 72.1828 371.919 72.1828C372.446 72.1828 373.078 72.6043 373.605 72.9204L377.19 75.5548C378.244 76.2925 378.244 76.6086 378.244 76.8194ZM365.383 63.2258V50.4753H327.853V63.2258H365.383ZM369.389 91.3613V77.6624H327.853V91.3613H369.389ZM393.003 15.4903C393.003 16.5441 392.054 16.6495 391.421 16.6495H363.38C367.386 18.3355 374.027 21.0753 374.027 26.028C374.027 27.9247 372.867 29.7161 370.654 29.7161C368.124 29.7161 367.807 28.557 366.859 25.6065C365.277 20.6538 362.326 17.5979 361.166 16.6495H356C351.151 21.286 348.516 22.8667 346.407 24.2366L345.88 24.1312C356 11.5914 358.425 3.68818 358.636 0.526889L366.753 5.3742C367.491 5.79571 367.597 6.11184 367.597 6.32259C367.597 7.58711 367.069 7.69249 363.169 8.43012C361.798 10.4323 360.744 11.6968 358.425 14.1204H379.298L383.62 9.69463C384.78 8.53549 384.885 8.43012 385.307 8.43012C385.939 8.43012 386.677 9.06237 387.204 9.48388L391.948 13.9097C392.581 14.5419 393.003 14.8581 393.003 15.4903ZM394.268 40.5699C394.268 40.7806 394.057 42.6774 392.054 42.6774C391.421 42.6774 388.891 42.5721 388.364 42.5721C386.888 43.4151 386.256 43.7312 382.882 45.3118C380.879 46.2602 380.458 46.5764 379.614 47.2086L379.298 46.7871C380.879 44.1527 380.879 44.0473 382.777 38.1462H316.047C315.519 40.6753 312.041 50.2645 305.188 50.2645C304.24 50.2645 301.71 50.1592 301.71 47.314C301.71 44.3635 303.818 43.0989 305.188 42.3613C311.092 39.0946 314.571 33.9312 314.992 30.0323L315.941 30.3484C316.363 33.4043 316.363 33.9312 316.363 35.6172H345.353C344.826 27.0817 344.299 26.028 343.245 24.1312L353.049 26.4495C353.576 26.5549 354.208 26.7656 354.208 27.5032C354.208 27.9247 353.997 28.4516 353.681 28.7677C353.049 29.4 351.678 30.1376 350.94 30.6645C350.94 32.1398 350.94 34.3527 351.046 35.6172H381.09L384.991 33.0882C386.045 32.3505 386.256 32.1398 386.783 32.1398C387.626 32.1398 388.048 32.5613 388.259 32.8774L394.057 39.6215C394.268 39.9376 394.268 40.2538 394.268 40.5699ZM347.145 15.5957C347.145 16.5441 346.302 16.6495 345.564 16.6495H324.691C330.594 20.1269 333.862 22.0237 333.862 26.4495C333.862 29.4 332.07 30.4538 330.489 30.4538C328.064 30.4538 327.748 29.1892 326.799 25.7118C326.694 25.2903 325.113 19.6 322.688 16.6495H315.309C310.459 22.5505 305.294 28.2409 299.812 31.6129L299.496 31.1914C308.14 21.1806 316.574 6.42796 316.574 0L325.429 4.63656C325.745 4.84731 326.061 5.16346 326.061 5.69034C326.061 6.42797 325.218 7.1656 324.164 7.48173C322.372 8.11399 322.372 8.11399 321.212 8.74625C320.263 10.2215 319.525 11.2753 317.312 14.1204H336.076L338.923 11.0645C339.977 9.90539 340.082 9.8 340.715 9.8C341.242 9.8 341.558 10.0108 342.612 10.8538L346.091 13.9097C346.196 13.9097 347.145 14.7527 347.145 15.5957Z" fill="#9E9DA0"/>
<path d="M498 91.9936C498 92.9419 497.051 93.0473 496.419 93.0473H437.806C434.116 93.0473 428.318 93.4688 424.312 94.3118L421.782 89.7807C429.688 90.4129 437.384 90.5183 439.282 90.5183H461.209V71.2344H454.989C451.194 71.2344 445.396 71.6559 441.39 72.3936L438.86 67.8624C446.766 68.4946 454.462 68.7054 456.465 68.7054H461.209V51.1075H447.715C447.715 52.5828 447.715 53.9527 447.504 54.585C447.188 55.3226 445.712 57.114 443.498 57.114C441.285 57.114 441.285 55.5333 441.285 54.7957C441.285 54.3742 441.284 54.2688 441.39 53.0043C442.128 42.3613 442.233 21.0753 442.233 19.7054C442.233 12.6452 442.022 8.74624 441.074 5.16345L449.718 8.957H479.341L482.082 6.21722C482.82 5.47958 483.347 5.05806 483.874 5.05806C484.401 5.05806 485.244 5.79571 485.666 6.11184L489.988 9.3785C490.515 9.80001 491.042 10.4323 491.042 11.0645C491.042 12.1183 488.618 13.3828 487.669 13.9097C487.563 14.9634 487.563 38.8839 487.669 42.8882C487.669 44.2581 488.091 50.2645 488.091 51.529C488.091 53.8473 485.666 55.9548 483.768 55.9548C481.238 55.9548 481.344 54.6903 481.555 51.1075H467.112V68.7054H478.814L482.714 64.5957C483.136 64.1742 483.874 63.3312 484.401 63.3312C484.928 63.3312 485.666 63.9634 486.298 64.4903L491.148 68.4946C491.675 68.9161 492.202 69.3376 492.202 70.0753C492.202 71.0237 491.359 71.2344 490.621 71.2344H467.112V90.5183H484.823L488.407 86.4086C489.461 85.2495 489.566 85.1441 490.094 85.1441C490.621 85.1441 490.831 85.2495 491.991 86.1979L496.946 90.3075C497.473 90.729 498 91.1505 498 91.9936ZM481.555 28.557V11.486H467.112V28.557H481.555ZM481.555 48.5785V31.086H467.112V48.5785H481.555ZM461.209 28.557V11.486H447.61V28.557H461.209ZM461.209 48.5785V31.086H447.61V48.5785H461.209ZM440.125 62.172C434.011 67.1247 418.725 75.871 407.867 81.0344V82.0882C407.867 83.1419 407.867 84.9333 406.075 84.9333C405.126 84.9333 404.704 84.3011 404.282 83.3527L399.749 74.0796C400.593 74.1849 401.12 74.2903 401.963 74.2903C404.282 74.2903 406.18 73.9742 416.616 70.3914V43.0989C415.035 43.0989 408.921 43.4151 404.388 44.2581L401.858 39.7269C405.969 40.043 412.505 40.3591 416.616 40.4645V14.3312C412.927 14.3312 407.023 14.7527 403.017 15.5957L400.487 11.0645C405.969 11.486 412.61 11.8022 418.092 11.8022H428.002L430.953 8.43012C431.797 7.37636 432.113 7.16561 432.64 7.16561C433.273 7.16561 434.116 7.90324 434.538 8.21937L438.122 11.5914C438.754 12.2237 439.176 12.5398 439.176 13.172C439.176 14.3312 438.017 14.3312 437.595 14.3312H422.52V40.5699H427.053L431.059 36.4602C431.797 35.6172 432.324 35.1957 432.851 35.1957C433.483 35.1957 433.905 35.5118 434.643 36.3549L438.544 40.3591C439.176 40.9914 439.492 41.4129 439.492 41.9398C439.492 42.9936 438.333 43.0989 437.911 43.0989H422.52V68.1785C424.417 67.4409 433.905 63.8581 436.014 63.1204C437.911 62.3828 438.544 62.0667 439.809 61.329L440.125 62.172Z" fill="#9E9DA0"/>
</svg>
