<svg width="662" height="269" viewBox="0 0 662 269" fill="none" xmlns="http://www.w3.org/2000/svg">
<path d="M258.3 43.68C258.3 44.94 257.18 45.08 256.2 45.08H228.06C228.06 46.9 228.34 54.88 228.34 56.42C228.34 57.96 228.2 59.08 227.08 60.2C225.82 61.18 224.28 61.6 223.3 61.6C220.64 61.6 220.78 60.06 220.78 57.96H196.56C196.56 59.36 196.56 60.2 195.86 61.04C194.74 62.3 192.36 63.56 191.1 63.56C188.86 63.56 188.86 61.32 188.86 60.76C188.86 58.24 189.14 47.32 189.14 45.08H169.26V67.76H234.92L238.42 63.28C239.26 62.16 239.68 61.46 240.52 61.46C240.94 61.46 241.36 61.6 243.04 63L248.78 67.48C249.48 68.04 250.18 68.6 250.18 69.58C250.18 70.84 248.92 71.12 247.94 71.12H169.26C169.12 72.52 169.12 73.36 167.86 74.48C166.74 75.32 165.06 76.16 163.8 76.16C160.86 76.16 160.86 74.06 160.86 73.08C160.86 71.82 161.42 66.08 161.42 64.82C161.56 60.2 161.56 59.64 161.42 45.08H153.3C148.4 45.08 140.56 45.64 135.24 46.76L132.02 40.74C142.52 41.58 152.6 41.72 155.26 41.72H161.42C161.42 32.06 160.86 31.08 159.6 28L170.52 30.8C171.78 31.08 172.9 31.36 172.9 32.9C172.9 34.44 171.92 35 169.12 36.82V41.72H189C188.72 34.3 188.58 33.04 187.18 29.4L198.24 32.2C199.36 32.48 200.48 32.76 200.48 34.02C200.48 35.42 199.22 36.12 196.56 37.52V41.72H220.92C220.92 36.12 220.64 34.02 219.1 29.54L229.46 32.06C231.14 32.48 232.12 32.76 232.12 34.16C232.12 35.56 231.14 36.12 228.2 37.66C228.06 39.76 228.06 40.46 228.06 41.72H242.2L246.4 36.82C247.1 35.84 247.66 35.14 248.5 35.14C249.06 35.14 249.48 35.28 251.16 36.68L256.9 41.44C257.6 42.14 258.3 42.7 258.3 43.68ZM220.92 54.6V45.08H196.56V54.6H220.92ZM253.96 18.62C253.96 20.02 252.42 20.02 251.86 20.02H215.04C215.04 21.28 215.46 26.88 215.46 28C215.46 31.08 212.24 32.48 209.86 32.48C208.46 32.48 207.76 31.36 207.62 30.24V20.02H183.68C183.96 26.74 183.96 28 183.54 29.12C182.56 31.64 180.18 31.92 178.92 31.92C176.54 31.92 175.98 30.24 175.98 29.82C175.84 28.84 175.98 21.56 175.98 20.02H157.5C152.46 20.02 144.76 20.72 139.44 21.7L136.08 15.68C146.58 16.52 156.8 16.66 159.46 16.66H175.98C175.98 6.44 175 3.92 173.88 0.560001L186.48 4.2C187.32 4.48 188.3 4.76 188.3 5.88C188.3 7 187.88 7.7 183.68 9.24C183.54 11.06 183.54 12.04 183.54 16.66H207.62C207.62 9.24 206.92 4.34 205.8 0.279999L216.58 2.94C217.56 3.22 218.68 3.5 218.68 4.76C218.68 6.44 215.88 7.84 214.9 8.4V16.66H238L242.2 11.2C243.46 9.52001 243.6 9.38 244.44 9.38C244.86 9.38 245.28 9.38 246.96 10.92L252.7 16.38C253.82 17.5 253.96 18.06 253.96 18.62ZM257.46 112.42C252 114.8 247.94 117.46 244.3 121.94C227.5 114.52 208.46 101.92 200.48 89.46H199.22C199.22 91.42 199.08 100.66 199.08 102.76C199.08 103.74 199.92 120.68 199.92 121.8C199.92 127.82 194.46 127.82 194.04 127.82C191.38 127.82 190.96 126 190.96 124.88C190.96 123.62 191.52 117.88 191.52 116.62C191.8 109.62 191.8 108.22 191.94 89.46H190.96C179.9 102.34 160.86 118.02 134.26 125.44V124.46C150.5 117.88 170.38 101.08 180.04 89.46H157.92C155.12 89.46 146.58 89.88 139.86 91.14L136.64 85.12C143.78 85.68 152.6 86.1 159.88 86.1H191.8C191.66 79.52 191.38 77.42 190.12 73.36L201.74 76.44C202.72 76.72 203.56 77.28 203.56 78.26C203.56 79.66 203.14 79.94 199.08 82.6C199.22 83.72 199.22 84 199.22 86.1H237.16L242.2 80.36C243.46 78.82 243.88 78.68 244.44 78.68C245 78.68 245.56 78.82 246.96 80.22L252.7 85.96C252.84 86.1 253.82 87.08 253.82 87.92C253.82 89.46 252.42 89.46 251.72 89.46H202.58C215.04 101.64 236.6 112.28 257.46 111.86V112.42Z" fill="#9E9DA0"/>
<path d="M387.66 26.32C387.66 27.3 386.4 28.28 383.32 30.52C383.32 44.24 383.18 57.82 383.32 71.54C383.32 73.22 384.72 100.8 384.72 111.44V112.98C384.72 114.24 384.72 118.3 379.26 118.3C376.88 118.3 376.18 117.18 376.18 114.66C376.18 113.26 376.32 106.96 376.32 105.56H345.94C345.94 108.78 345.94 117.74 345.8 118.3C345.38 121.8 342.44 124.18 339.78 124.18C338.1 124.18 336.98 122.92 336.98 121.52V120.4C337.96 109.2 337.96 84.56 337.96 72.38C337.96 62.86 337.96 33.18 337.54 25.2C337.4 21.98 337.12 20.02 336.98 18.2L347.76 24.22H374.22L376.88 20.16C377.44 19.46 378.14 18.62 378.84 18.62C379.54 18.62 380.38 19.18 381.22 19.88L386.54 24.22C387.24 24.78 387.66 25.62 387.66 26.32ZM376.18 102.2V27.58H345.94V102.2H376.18ZM326.2 34.86C326.2 37.1 320.6 39.34 320.18 39.48C319.06 56.84 315.98 74.2 308.98 90.16C311.78 91.7 326.06 100.24 326.06 108.22C326.06 111.16 324.52 114.1 322.14 114.1C319.06 114.1 317.1 111.02 315.84 108.92C313.46 105.14 310.24 100.52 306.18 96.18C297.08 112.98 283.36 123.34 264.88 128.1L264.46 127.12C280 119.28 293.3 107.38 300.58 91.7C296.24 88.76 288.12 84.98 285.32 83.58C284.2 89.32 283.78 92.12 278.46 92.12C277.76 92.12 274.54 92.12 274.54 89.32C274.54 88.34 277.9 77.14 278.46 74.76C281.26 63.14 284.48 47.88 287.14 34.44C279.44 34.44 272.3 35.14 268.1 35.98L264.74 29.96C272.16 30.66 278.74 30.94 287.84 31.08C291.06 13.72 291.62 9.52001 291.62 3.92C291.62 2.24 291.48 1.12 291.34 0L302.82 4.2C303.66 4.62 305.2 5.32 305.2 6.44C305.2 8.26 301.7 9.24 299.74 9.8C298.62 14.28 297.08 20.58 294.98 31.08H310.24L313.18 28.28C314.58 26.88 315.56 26.6 316.26 26.6C316.96 26.6 317.66 27.02 318.22 27.44L324.94 32.62C325.92 33.46 326.2 34.16 326.2 34.86ZM312.2 34.44H294.28C293.02 41.02 291.34 49.28 290.78 52.64C288.12 67.34 287.98 68.88 285.46 82.04C291.06 83.3 297.78 84.98 302.54 86.94C309.96 66.5 311.08 49.84 312.2 34.44Z" fill="#9E9DA0"/>
<path d="M522.06 19.18C522.06 20.44 520.8 20.72 519.96 20.72H481.74C481.74 27.58 481.74 27.58 481.04 28.7C480.06 30.24 477.68 31.36 476.14 31.36C473.9 31.36 473.76 29.12 473.76 28.14C473.76 27.02 473.9 21.7 473.9 20.72H448.56C448.56 22.26 448.7 28.84 448.42 29.68C448 30.8 447.02 33.32 443.66 33.32C442.12 33.32 441 31.78 441 30.1V20.72H421.68C416.78 20.72 408.94 21.28 403.62 22.26L400.4 16.24C410.9 17.08 420.98 17.36 423.64 17.36H441C441 7.7 440.86 5.18 439.6 0.84L449.68 3.78C450.8 4.06 452.62 4.48 452.62 5.88C452.62 7 452.06 7.28 448.28 9.38C448.28 10.64 448.42 16.24 448.42 17.36H473.9C473.9 5.74 473.06 2.94 472.5 0.700001L483.42 3.64C484.4 3.92 485.8 4.34 485.8 5.74C485.8 6.86 484.96 7.56 481.46 9.52C481.46 11.9 481.46 13.16 481.6 17.36H505.4L510.44 11.34C511.28 10.36 511.84 9.52 512.82 9.52C513.66 9.52 514.36 10.22 515.06 11.06L520.8 17.08C521.64 17.92 522.06 18.48 522.06 19.18ZM526.68 76.02C519.54 77.7 517.16 80.5 514.78 83.86C498.54 76.72 487.48 61.88 482.02 53.34C479.08 48.86 478.38 45.36 477.54 42H453.46C448.56 42 440.86 42.56 435.54 43.68L432.18 37.66C442.68 38.5 452.9 38.64 455.42 38.64H476.7L479.36 36.26C480.34 35.42 480.76 35 481.6 35C482.02 35 482.44 35.28 483.84 36.68L487.48 40.6C488.18 41.3 488.46 41.72 488.46 42.28C488.46 43.4 487.06 43.96 486.22 44.38C484.68 44.94 483 45.5 481.6 45.92C487.76 60.2 507.22 73.22 526.68 74.9V76.02ZM448.14 51.1C448.14 52.78 447.58 52.78 442.4 53.48C428.96 70 418.6 80.22 398.16 90.3L397.6 89.46C409.36 80.5 419.86 70 428.82 58.24C431.34 55.02 435.54 49.42 437.64 43.4L446.46 49C447.3 49.56 448.14 50.12 448.14 51.1ZM491.26 74.62C491.26 75.6 490.98 75.88 488.46 77.84C488.18 105.98 487.06 124.88 467.32 128.24C466.48 125.58 465.64 124.46 463.68 123.2C461.86 122.08 456.82 119 453.46 117.6V116.76C455.56 116.9 465.08 117.46 466.9 117.46C473.06 117.46 477.54 114.94 479.5 105.56C481.46 95.76 481.46 80.36 481.46 76.3H455.42C449.4 98 442.68 122.36 404.74 129.78L404.6 128.8C409.78 126.7 424.34 120.68 434.84 106.82C441 98.7 445.34 88.76 447.16 76.3C445.34 76.3 437.22 76.72 431.06 77.84L427.7 71.82C438.2 72.66 448.42 72.94 450.94 72.94H479.78L481.88 70C482.02 69.86 482.86 68.6 483.84 68.6C484.68 68.6 485.52 69.3 486.08 69.72L489.86 72.8C490.7 73.5 491.26 73.92 491.26 74.62Z" fill="#9E9DA0"/>
<path d="M116.9 147.98C116.9 149.38 114.94 150.78 112.42 152.32C112.56 155.68 112.7 170.1 112.7 173.04C112.84 176.12 113.26 190.96 113.26 193.2C113.26 200.62 111.86 202.72 110.04 204.4C106.12 208.18 101.78 209.44 99.96 210C98.28 205.8 97.16 203.28 91.98 199.78V198.66C93.66 198.94 95.34 199.22 98.42 199.22C103.46 199.22 104.02 198.52 104.72 197.4C105.42 196.28 105.42 190.26 105.42 186.62C105.42 173.04 105.28 162.82 105 155.96C104.72 147 103.6 144.9 102.48 142.66L114.94 146.16C116.06 146.44 116.9 147.14 116.9 147.98ZM127.96 254.94C127.26 255.08 119.14 257.46 116.2 263.48C86.94 254.66 70.14 234.5 65.8 221.48H59.92C58.24 223.44 55.86 225.96 51.52 229.6V252.7C67.62 248.36 72.66 246.96 79.38 244.44L79.8 245.42C69.02 252.14 50.26 259.7 38.5 263.62C37.66 265.58 36.82 267.96 35.14 267.96C34.16 267.96 33.46 266.98 33.04 266.28L27.72 257.04C32.2 257.46 34.72 257.04 44.1 254.52V235.62C35.56 241.92 16.24 253.54 0 257.04V255.92C11.06 252.14 38.5 233.52 50.54 221.48H21.84C17.36 221.48 9.52 222.04 3.78 223.16L0.419998 217.14C8.26 217.7 15.96 218.12 23.8 218.12H65.38C65.38 217.28 65.24 208.32 64.82 204.96L75.18 208.6C77.14 209.3 77.84 209.58 77.84 210.56C77.84 212.38 75.18 213.22 72.94 213.92V218.12H108.08L112.42 212.66C113.4 211.4 113.82 210.98 114.52 210.98C115.22 210.98 116.48 211.82 117.04 212.38L123.48 217.84C124.18 218.4 124.88 219.1 124.88 219.94C124.88 221.34 123.62 221.48 122.78 221.48H67.48C70 226.24 74.34 231.28 80.22 236.32C80.78 236.04 91.56 229.74 93.8 223.16L102.34 230.58C102.48 230.72 103.46 231.56 103.46 232.12C103.46 232.82 102.62 234.08 100.24 234.08C99.4 234.08 98.84 234.08 96.74 233.8C94.5 234.5 84.14 237.16 82.04 237.72C97.16 249.48 113.26 254.38 127.96 253.68V254.94ZM92.12 151.48C92.12 152.6 90.86 153.44 88.34 155.26C88.34 161.28 88.34 171.92 88.62 179.62C88.76 181.16 89.04 187.46 89.04 188.72C89.04 192.64 85.12 193.76 83.44 193.76C81.06 193.76 81.06 192.08 81.06 191.38C81.06 190.12 81.2 184.52 81.2 183.4C81.34 174.44 81.48 170.8 81.48 166.88C81.48 156.1 81.2 153.72 79.38 146.72L90.02 149.66C91.56 150.08 92.12 150.5 92.12 151.48ZM72.94 170.24C72.94 171.5 71.68 171.64 70.84 171.64H42V182.42H56.7L59.22 179.48C59.64 179.06 60.06 178.5 60.76 178.5C61.32 178.5 61.74 178.78 62.44 179.34L66.64 182.42C67.2 182.84 67.76 183.54 67.76 184.24C67.76 185.64 64.82 187.18 63.98 187.6C63.98 201.04 63.84 202.3 62.72 203.98C60.76 206.78 57.54 208.46 54.18 209.58C52.92 204.82 50.54 202.16 49.42 200.9V199.78C51.1 199.92 56.14 200.2 56.7 198.52C57.12 197.4 57.12 187.32 57.12 185.78H42C42.14 191.1 42.28 198.38 42.56 203.56C42.56 204.4 42.7 207.76 42.7 208.46C42.7 211.68 39.06 212.52 37.52 212.52C35 212.52 34.86 211.26 34.86 210C34.86 207.48 35.14 201.32 35.14 199.92C35.28 194.04 35.14 193.2 35.28 185.78H21.84V195.72C21.84 197.12 22.12 204.4 22.12 205.24C22.12 209.86 17.92 210.14 16.94 210.14C15.96 210.14 14.42 210 14.42 208.04C14.42 205.66 14.84 201.88 14.84 199.5V190.82C14.84 183.96 14.7 182.7 13.86 179.48L22.26 182.42H35.42V171.64H22.96C18.48 171.64 10.64 172.2 4.9 173.32L1.68 167.3C9.38 167.86 17.08 168.28 24.92 168.28H35.42V156.66H21.14C18.06 161.14 14.98 164.5 13.16 166.46L12.04 166.32C14.28 161.7 19.18 149.52 18.48 142.8L27.72 145.18C28.7 145.46 29.4 145.74 29.4 146.72C29.4 147.56 28.28 148.82 25.34 150.36C24.64 151.48 24.36 151.9 23.52 153.3H35.42C35.42 146.3 35.42 146.02 33.6 140.7L43.4 142.94C44.38 143.22 45.64 143.36 45.64 144.48C45.64 145.88 43.96 147.28 42.14 148.96V153.3H53.9L56.56 150.08C57.26 149.1 57.96 148.4 58.8 148.4C59.64 148.4 60.62 149.1 61.32 149.8L65.1 153.02C65.94 153.86 66.5 154.28 66.5 155.26C66.5 156.52 65.38 156.66 64.4 156.66H42V168.28H59.08L62.72 164.5C63.7 163.52 64.4 162.68 65.1 162.68C65.66 162.68 67.06 163.8 67.48 164.22L71.54 168C72.38 168.84 72.94 169.26 72.94 170.24Z" fill="#9E9DA0"/>
<path d="M255.08 182.28C255.08 183.54 253.96 183.82 252.98 183.82H159.88C159.74 197.68 159.6 203.98 159.32 207.9H207.34L209.72 204.54C210.42 203.56 210.98 203 211.68 203C212.38 203 213.5 203.7 214.06 204.12L219.1 207.48C219.94 208.04 220.78 208.88 220.78 209.72C220.78 210.84 220.22 211.12 216.3 214.2C216.44 234.5 216.3 236.74 216.86 247.8C216.86 249.2 217.42 262.36 217.42 263.06C217.42 266.56 213.5 267.96 211.82 267.96C207.9 267.96 207.9 264.46 207.9 262.78C207.9 258.16 208.46 237.44 208.46 233.24C208.46 225.96 208.46 218.54 208.32 211.26H159.04C155.68 244.3 140.84 257.74 131.6 264.74L130.9 264.18C147.56 241.78 152.46 225.4 152.46 182.98C152.46 169.82 151.62 154.7 150.92 149.38C150.64 147.14 150.22 145.74 149.24 143.36L162.12 146.86C163.24 147.14 164.36 147.42 164.36 148.96C164.36 150.08 163.94 150.36 160.3 152.74C160.3 155.26 160.02 176.54 160.02 180.46H198.1C198.1 176.12 198.1 160.86 197.54 149.38C197.4 145.04 196.98 143.22 196.42 140.84L208.18 144.48C210.28 145.18 210.42 145.74 210.42 146.44C210.42 147.7 207.34 149.94 205.94 151.06C205.66 155.68 205.94 176.26 205.94 180.46H235.62L241.08 173.6C241.5 173.04 242.48 171.92 243.18 171.92C244.02 171.92 245.14 172.9 245.84 173.46L253.82 180.18C254.52 180.88 255.08 181.44 255.08 182.28Z" fill="#9E9DA0"/>
<path d="M395.36 226.38C395.36 227.64 394.1 227.92 393.26 227.92H284.9C280.56 227.92 272.58 228.34 266.98 229.46L263.62 223.44C270.62 224 276.92 224.28 282.52 224.42C282.38 208.88 281.82 189.28 281.12 173.88C280.42 160.02 279.58 157.5 278.04 152.6L287.56 157.5C289.24 156.38 298.76 149.66 300.44 143.36L309.96 151.06C310.52 151.48 310.8 152.18 310.8 152.88C310.8 154.42 309.68 154.42 308.56 154.42C307.72 154.42 303.94 154.14 303.24 154.14C299.32 155.68 291.06 158.62 287.84 159.46C287.7 162.12 288.12 174.16 288.12 176.68H299.46L301.7 173.74C302.26 172.9 302.96 171.92 303.8 171.92C304.64 171.92 305.62 172.9 306.32 173.6L308.84 176.12C309.4 176.68 310.24 177.66 310.24 178.5C310.24 179.76 309.12 180.04 308.14 180.04H288.12C288.4 194.04 288.54 195.58 288.68 200.06H298.62L301.14 196.42C301.7 195.58 302.4 194.6 303.38 194.6C304.22 194.6 305.06 195.58 305.62 196.28L308.56 199.92C309.12 200.62 309.68 201.32 309.68 201.88C309.68 203.14 308.7 203.42 307.58 203.42H288.68C288.82 206.78 289.24 221.48 289.38 224.56H331.66C331.94 216.86 332.78 204.82 333.06 197.26C333.34 189.28 333.34 184.38 333.34 179.76H324.38C324.1 181.02 322.7 182.98 319.34 182.98C317.94 182.98 317.1 182.84 317.1 180.46C317.1 178.08 317.38 174.58 317.38 172.34C317.66 163.8 317.52 154.84 317.52 152.32C317.52 144.9 317.24 143.5 316.26 140.14L327.32 143.08C327.88 143.22 329.84 143.78 329.84 145.32C329.84 146.58 328.16 147.42 324.94 148.96C324.94 150.5 324.94 151.2 324.8 158.2H334.18L336.14 154.84C337.12 153.02 337.68 152.88 338.24 152.88C339.08 152.88 340.06 153.72 340.76 154.42L343.84 157.78C344.96 159.04 345.24 159.46 345.24 160.16C345.24 161.42 344.12 161.56 343.14 161.56H324.66C324.66 162.96 324.52 166.74 324.52 167.86V176.4H332.64L334.46 173.88C335.3 172.76 335.72 172.06 336.56 172.06C337.54 172.06 338.1 172.62 339.36 173.6L343.28 176.96C344.54 178.08 344.68 178.64 344.68 179.06C344.68 179.9 344.12 180.32 343.56 180.74C343.14 181.02 340.76 182.28 340.34 182.56C340.2 184.38 338.94 217.42 338.52 224.56H363.58C363.72 221.48 363.86 206.78 364 204.26H355.74C353.5 204.26 350.28 204.54 348.04 204.96L346.64 200.48C349.16 200.62 354.48 200.9 356.58 200.9H364C364 197.82 364.28 183.82 364.28 180.88H357.28C355.04 180.88 351.82 181.16 349.58 181.72L348.18 177.1C350.7 177.24 356.02 177.52 358.12 177.52H364.42C364.56 172.62 364.56 172.2 364.56 167.02C364.56 161.84 364.7 160.86 364.84 158.62H358.96C356.58 158.62 353.36 158.9 351.12 159.32L349.72 154.7C352.24 154.98 357.7 155.26 359.8 155.26H363.02L365.82 152.18C367.22 150.64 367.5 150.22 368.48 150.22C369.32 150.22 370.02 150.78 370.58 151.2L375.48 154.84C376.74 155.82 377.16 156.66 377.16 157.36C377.16 159.32 373.24 160.72 371.98 161.28C371.84 162.26 371.28 196.42 371.14 203C371 206.5 370.72 221.48 370.58 224.56H379.82L383.6 218.96C384.16 218.12 385 217.28 385.84 217.28C386.68 217.28 387.66 218.12 388.5 218.82L394.1 224.28C394.8 224.84 395.36 225.54 395.36 226.38ZM326.76 192.36C326.76 193.9 324.52 194.74 321.72 195.86C321.58 198.8 321.44 212.24 321.16 214.76C320.74 217.98 317.52 219.52 315.56 219.52C314.16 219.52 313.74 218.54 313.74 217.42C313.74 213.92 314.3 208.32 314.44 204.96C314.58 200.9 314.72 195.58 314.72 193.2C314.72 189.56 314.58 188.44 314.16 186.62L324.66 190.4C325.36 190.68 326.76 191.24 326.76 192.36ZM377.44 260.96C377.44 264.46 375.34 265.58 373.38 265.58C370.72 265.58 370.02 264.74 362.74 257.04C359.38 253.4 347.34 242.62 336.28 237.16L336.56 236.32C350.42 240.52 377.44 249.76 377.44 260.96ZM315.98 241.22C315.98 242.62 313.88 243.04 313.18 243.18C312.34 243.32 308.56 243.6 307.86 243.74C297.08 253.26 282.1 261.8 265.16 266.42L265.02 265.3C291.9 251.86 301.7 237.02 303.66 233.8L313.88 239.12C314.72 239.54 315.98 240.38 315.98 241.22Z" fill="#9E9DA0"/>
<path d="M502.32 240.24C502.32 241.64 500.08 243.18 497.84 244.58C497.98 250.46 498.12 254.1 498.26 256.62C498.26 257.18 498.68 260.82 498.68 262.64C498.68 263.76 498.26 265.16 497.14 265.86C496.02 266.84 494.06 267.54 493.22 267.54C490.42 267.54 490.42 265.3 490.56 262.92H435.4C435.68 267.96 429.38 268.38 429.24 268.38C427.56 268.38 426.86 266.98 426.86 265.3C426.86 264.32 427 260.26 427.14 259.42C427.28 252.42 427.98 229.88 427.98 216.44C427.98 210.98 427.98 205.52 427.28 202.16C426.3 198.1 426.3 197.54 426.02 196.42L435.54 201.88H483.28L486.64 198.38C487.48 197.4 487.62 197.26 488.04 197.26C488.6 197.26 490 198.1 490.42 198.38L496.02 202.3C496.86 202.86 497.42 203.42 497.42 204.4C497.42 205.1 496.86 205.66 496.44 205.94C495.88 206.22 493.08 207.62 492.66 207.9C492.66 209.44 493.22 224 493.22 224.28C493.22 227.92 491.12 230.02 487.34 230.02C485.1 230.02 485.1 229.04 485.1 225.54H435.4V238H489.44L491.96 235.34C492.66 234.64 493.22 234.08 493.92 234.08C494.62 234.08 495.46 234.64 496.16 235.06L500.92 238.56C502.32 239.54 502.32 239.96 502.32 240.24ZM485.24 222.18V205.24H435.4V222.18H485.24ZM490.56 259.56V241.36H435.4V259.56H490.56ZM521.92 158.76C521.92 160.16 520.66 160.3 519.82 160.3H482.58C487.9 162.54 496.72 166.18 496.72 172.76C496.72 175.28 495.18 177.66 492.24 177.66C488.88 177.66 488.46 176.12 487.2 172.2C485.1 165.62 481.18 161.56 479.64 160.3H472.78C466.34 166.46 462.84 168.56 460.04 170.38L459.34 170.24C472.78 153.58 476 143.08 476.28 138.88L487.06 145.32C488.04 145.88 488.18 146.3 488.18 146.58C488.18 148.26 487.48 148.4 482.3 149.38C480.48 152.04 479.08 153.72 476 156.94H503.72L509.46 151.06C511 149.52 511.14 149.38 511.7 149.38C512.54 149.38 513.52 150.22 514.22 150.78L520.52 156.66C521.36 157.5 521.92 157.92 521.92 158.76ZM523.6 192.08C523.6 192.36 523.32 194.88 520.66 194.88C519.82 194.88 516.46 194.74 515.76 194.74C513.8 195.86 512.96 196.28 508.48 198.38C505.82 199.64 505.26 200.06 504.14 200.9L503.72 200.34C505.82 196.84 505.82 196.7 508.34 188.86H419.72C419.02 192.22 414.4 204.96 405.3 204.96C404.04 204.96 400.68 204.82 400.68 201.04C400.68 197.12 403.48 195.44 405.3 194.46C413.14 190.12 417.76 183.26 418.32 178.08L419.58 178.5C420.14 182.56 420.14 183.26 420.14 185.5H458.64C457.94 174.16 457.24 172.76 455.84 170.24L468.86 173.32C469.56 173.46 470.4 173.74 470.4 174.72C470.4 175.28 470.12 175.98 469.7 176.4C468.86 177.24 467.04 178.22 466.06 178.92C466.06 180.88 466.06 183.82 466.2 185.5H506.1L511.28 182.14C512.68 181.16 512.96 180.88 513.66 180.88C514.78 180.88 515.34 181.44 515.62 181.86L523.32 190.82C523.6 191.24 523.6 191.66 523.6 192.08ZM461.02 158.9C461.02 160.16 459.9 160.3 458.92 160.3H431.2C439.04 164.92 443.38 167.44 443.38 173.32C443.38 177.24 441 178.64 438.9 178.64C435.68 178.64 435.26 176.96 434 172.34C433.86 171.78 431.76 164.22 428.54 160.3H418.74C412.3 168.14 405.44 175.7 398.16 180.18L397.74 179.62C409.22 166.32 420.42 146.72 420.42 138.18L432.18 144.34C432.6 144.62 433.02 145.04 433.02 145.74C433.02 146.72 431.9 147.7 430.5 148.12C428.12 148.96 428.12 148.96 426.58 149.8C425.32 151.76 424.34 153.16 421.4 156.94H446.32L450.1 152.88C451.5 151.34 451.64 151.2 452.48 151.2C453.18 151.2 453.6 151.48 455 152.6L459.62 156.66C459.76 156.66 461.02 157.78 461.02 158.9Z" fill="#9E9DA0"/>
<path d="M661.36 260.4C661.36 261.66 660.1 261.8 659.26 261.8H581.42C576.52 261.8 568.82 262.36 563.5 263.48L560.14 257.46C570.64 258.3 580.86 258.44 583.38 258.44H612.5V232.82H604.24C599.2 232.82 591.5 233.38 586.18 234.36L582.82 228.34C593.32 229.18 603.54 229.46 606.2 229.46H612.5V206.08H594.58C594.58 208.04 594.58 209.86 594.3 210.7C593.88 211.68 591.92 214.06 588.98 214.06C586.04 214.06 586.04 211.96 586.04 210.98C586.04 210.42 586.04 210.28 586.18 208.6C587.16 194.46 587.3 166.18 587.3 164.36C587.3 154.98 587.02 149.8 585.76 145.04L597.24 150.08H636.58L640.22 146.44C641.2 145.46 641.9 144.9 642.6 144.9C643.3 144.9 644.42 145.88 644.98 146.3L650.72 150.64C651.42 151.2 652.12 152.04 652.12 152.88C652.12 154.28 648.9 155.96 647.64 156.66C647.5 158.06 647.5 189.84 647.64 195.16C647.64 196.98 648.2 204.96 648.2 206.64C648.2 209.72 644.98 212.52 642.46 212.52C639.1 212.52 639.24 210.84 639.52 206.08H620.34V229.46H635.88L641.06 224C641.62 223.44 642.6 222.32 643.3 222.32C644 222.32 644.98 223.16 645.82 223.86L652.26 229.18C652.96 229.74 653.66 230.3 653.66 231.28C653.66 232.54 652.54 232.82 651.56 232.82H620.34V258.44H643.86L648.62 252.98C650.02 251.44 650.16 251.3 650.86 251.3C651.56 251.3 651.84 251.44 653.38 252.7L659.96 258.16C660.66 258.72 661.36 259.28 661.36 260.4ZM639.52 176.12V153.44H620.34V176.12H639.52ZM639.52 202.72V179.48H620.34V202.72H639.52ZM612.5 176.12V153.44H594.44V176.12H612.5ZM612.5 202.72V179.48H594.44V202.72H612.5ZM584.5 220.78C576.38 227.36 556.08 238.98 541.66 245.84V247.24C541.66 248.64 541.66 251.02 539.28 251.02C538.02 251.02 537.46 250.18 536.9 248.92L530.88 236.6C532 236.74 532.7 236.88 533.82 236.88C536.9 236.88 539.42 236.46 553.28 231.7V195.44C551.18 195.44 543.06 195.86 537.04 196.98L533.68 190.96C539.14 191.38 547.82 191.8 553.28 191.94V157.22C548.38 157.22 540.54 157.78 535.22 158.9L531.86 152.88C539.14 153.44 547.96 153.86 555.24 153.86H568.4L572.32 149.38C573.44 147.98 573.86 147.7 574.56 147.7C575.4 147.7 576.52 148.68 577.08 149.1L581.84 153.58C582.68 154.42 583.24 154.84 583.24 155.68C583.24 157.22 581.7 157.22 581.14 157.22H561.12V192.08H567.14L572.46 186.62C573.44 185.5 574.14 184.94 574.84 184.94C575.68 184.94 576.24 185.36 577.22 186.48L582.4 191.8C583.24 192.64 583.66 193.2 583.66 193.9C583.66 195.3 582.12 195.44 581.56 195.44H561.12V228.76C563.64 227.78 576.24 223.02 579.04 222.04C581.56 221.06 582.4 220.64 584.08 219.66L584.5 220.78Z" fill="#9E9DA0"/>
</svg>
