<svg width="399" height="130" viewBox="0 0 399 130" fill="none" xmlns="http://www.w3.org/2000/svg">
<path d="M131.74 119.14C131.74 120.4 130.76 120.68 129.64 120.68H63.42C58.38 120.68 50.68 121.24 45.36 122.22L42 116.2C52.5 117.18 62.72 117.32 65.38 117.32H82.04C82.32 112.14 82.04 90.3 82.04 83.72V56H72.24C67.2 56 59.5 56.56 54.18 57.54L50.96 51.52C61.32 52.36 71.54 52.64 74.2 52.64H82.04C82.04 34.44 82.04 23.66 81.34 13.72C80.92 9.1 79.8 3.92 79.1 0.839996L91.7 4.47999C92.54 4.62 94.5 5.18 94.5 6.71999C94.5 7.55999 93.8 8.4 92.96 9.24C91.28 11.06 91.28 11.06 90.16 12.46C89.6 38.22 89.6 43.54 89.6 52.64H111.72L117.04 46.34C118.44 44.8 118.58 44.66 119.28 44.66C120.26 44.66 121.52 46.06 121.8 46.2L127.54 52.22C128.94 53.62 128.94 54.18 128.94 54.46C128.94 55.72 127.82 56 126.7 56H89.6C89.6 96.46 89.74 105.42 89.46 117.32H112.42L119.14 110.18C120.68 108.64 120.82 108.5 121.38 108.5C122.36 108.5 123.34 109.48 124.04 110.18L130.34 116.76C130.9 117.32 131.74 118.44 131.74 119.14ZM62.86 35.42C62.86 36.68 61.6 36.82 60.76 36.82H35.42V52.92C44.38 55.3 53.62 61.32 53.62 67.34C53.62 70.56 50.68 72.1 49.14 72.1C47.04 72.1 46.62 71.4 43.54 65.24C39.62 57.4 37.52 55.72 35.42 54.32C35.56 64.68 35.84 106.96 35.84 114.24C35.84 115.64 36.12 121.24 36.12 122.36C36.12 123.62 36.12 125.72 34.44 127.54C33.32 128.52 31.64 129.22 30.1 129.22C26.88 129.22 26.88 126.28 26.88 125.3C26.88 122.22 27.86 108.78 28 106.12C28.42 99.12 28.42 95.62 28.98 63.7C21.84 77.28 13.02 91.56 0.979996 103.6L0 102.62C12.32 84.28 24.08 60.62 28.84 36.82H24.36C19.46 36.82 11.76 37.38 6.44 38.5L3.08 32.48C13.58 33.32 23.8 33.46 26.32 33.46H29.12C28.7 9.66 28 6.16 26.32 0L37.24 3.22C39.34 3.77999 39.62 4.47999 39.62 5.03999C39.62 6.16 37.24 8.11999 35.56 9.51999V33.46H47.04L50.82 28.56C51.66 27.44 52.22 26.6 53.06 26.6C54.04 26.6 55.44 27.86 55.72 28.14L61.46 33.04C62.3 33.88 62.86 34.58 62.86 35.42Z" fill="#9E9DA0"/>
<path d="M260.82 89.6C260.82 91.42 260.68 91.42 255.08 93.66C248.22 120.96 246.26 127.68 228.76 128.66C226.94 123.48 224.7 121.1 217.56 116.34L218.12 115.22C225.26 118.02 232.26 118.58 233.94 118.58C238.56 118.58 240.24 115.64 241.22 113.4C243.18 109.06 245.28 100.66 247.24 92.26H165.48C165.48 95.34 165.48 95.62 165.2 96.18C164.64 97.58 161.7 98.7 159.74 98.7C159.46 98.7 157.5 98.56 157.5 96.74C157.5 96.32 157.64 94.22 157.64 93.66C158.2 83.44 158.2 72.66 158.2 67.06C158.2 61.88 158.06 42.84 157.36 39.34L166.04 42.84H237.02L241.36 37.94C242.62 36.54 242.9 36.12 243.6 36.12C244.16 36.12 244.86 36.4 246.12 37.52L251.86 42.56C252.14 42.84 253.26 44.1 253.26 44.66C253.26 46.2 251.72 46.2 251.16 46.2H204.54V57.26H230.58L234.22 53.34C235.76 51.8 235.9 51.66 236.46 51.66C237.16 51.66 237.58 52.08 238.98 53.06L244.02 56.98C244.72 57.54 245.42 58.24 245.42 59.08C245.42 60.76 243.88 60.62 243.32 60.62H204.54V72.38H231.56L234.36 68.32C234.64 67.9 235.62 66.64 236.6 66.64C237.3 66.64 237.44 66.78 239.12 68.04L244.3 72.1C244.72 72.52 245.7 73.22 245.7 74.2C245.7 75.6 244.16 75.74 243.6 75.74H204.54V88.9H245.42L248.5 84.98C249.9 83.3 250.18 83.16 251.02 83.16C252 83.16 252.7 83.58 253.68 84.14L259.56 87.78C259.98 88.06 260.82 88.48 260.82 89.6ZM197.54 72.38V60.62H165.48V72.38H197.54ZM197.54 57.26V46.2H165.48V57.26H197.54ZM197.54 88.9V75.74H165.48V88.9H197.54ZM258.86 22.4C258.86 23.66 257.74 23.94 256.76 23.94H218.26C228.34 28.28 231.56 31.36 231.56 35.14C231.56 36.96 230.16 39.34 227.64 39.34C224.84 39.34 224 37.24 222.74 34.44C221.34 31.08 219.1 27.3 215.18 23.94H208.04C203.98 29.68 201.6 32.9 195.16 39.9L194.18 39.34C200.62 29.54 206.08 17.64 208.74 8.68C209.72 5.18 209.72 2.51999 209.72 0.55999L220.64 5.59999C221.48 6.02 221.9 6.29999 221.9 7.41999C221.9 9.1 221.34 9.24 216.58 10.22C214.34 14.14 212.8 16.66 210.28 20.58H241.22L246.54 15.12C247.66 14 248.22 13.44 248.64 13.44C249.48 13.44 250.88 14.56 251.3 14.98L257.46 20.16C258.16 20.72 258.86 21.56 258.86 22.4ZM199.08 22.12C199.08 23.38 198.1 23.66 196.98 23.66H171.64C181.58 28.28 183.96 31.5 183.96 34.72C183.96 36.4 182.98 39.06 180.04 39.06C177.1 39.06 176.4 37.1 175.42 33.74C175.14 33.04 172.76 27.16 168.84 23.66H161.84C159.6 27.02 147.98 43.26 137.06 50.82L136.64 50.26C147.14 37.66 155.54 23.52 161.7 8.4C163.24 4.47999 163.1 3.07999 162.82 0L174.44 5.03999C174.72 5.18 176.26 6.16 176.26 6.99999C176.26 8.4 174.86 9.24 170.1 10.78C167.72 14.7 166.46 16.94 164.22 20.3H184.52L188.86 16.52C190.54 15.12 190.68 14.98 191.1 14.98C191.8 14.98 193.06 15.96 193.62 16.38L197.82 20.02C197.96 20.16 199.08 21.14 199.08 22.12ZM232.12 104.86C232.12 107.24 230.72 109.9 227.78 109.9C224.84 109.9 223.86 107.38 223.02 105.28C222.18 103.46 220.36 98.98 216.02 95.62L216.58 94.78C225.12 96.46 232.12 99.4 232.12 104.86ZM206.92 111.02C206.92 113.68 205.1 115.5 202.44 115.5C198.66 115.5 198.24 112.42 197.96 109.76C196.98 102.48 194.6 99.54 192.92 97.58L193.62 96.88C203.42 101.08 206.92 107.38 206.92 111.02ZM183.4 115.78C183.4 120.12 180.46 121.38 178.5 121.38C176.12 121.38 174.58 119.7 174.58 116.62V108.64C174.02 103.46 173.04 101.36 172.2 99.68L173.18 99.12C178.36 102.34 183.4 109.48 183.4 115.78ZM155.26 108.78C155.26 122.5 148.68 126.42 144.76 126.42C143.22 126.42 140.84 125.44 140.84 122.08C140.84 119.84 141.4 119.42 146.02 114.8C151.34 109.76 152.46 106.82 153.58 100.66H154.7C155.12 104.44 155.26 107.1 155.26 108.78Z" fill="#9E9DA0"/>
<path d="M398.02 108.78L397.88 109.62C395.64 110.74 391.58 112.98 388.92 121.24C318.22 120.12 308.56 119 298.06 90.02C293.86 97.58 286.86 111.44 285.18 114.94C284.48 121.1 284.48 121.8 282.52 121.8C281.4 121.8 281.26 121.38 279.44 118.86L273.56 110.32C277.06 108.78 277.9 108.5 281.68 104.44C287.14 98.56 292.18 92.4 295.82 85.26C295.96 84.56 295.96 81.62 296.1 80.92C296.66 79.8 297.92 79.24 299.6 79.24C301.14 79.24 302.82 79.8 302.82 81.48C302.82 81.9 302.26 84.28 302.26 84.7C302.26 88.9 303.1 92.96 304.92 96.6C319.48 85.4 349.72 55.72 362.32 35.42H300.72C295.82 35.42 287.98 35.98 282.66 37.1L279.44 30.94C289.94 31.78 300.02 32.06 302.68 32.06H331.38C331.24 25.48 330.96 13.72 330.68 10.64C330.26 6.02 329.7 4.33999 329 2.1L342.3 6.02C343.56 6.44 343.98 6.58 343.98 7.41999C343.98 8.81999 340.9 11.34 339.08 12.88V32.06H361.34L368.48 26.6C369.6 25.76 371.14 24.64 371.7 24.64C372.68 24.64 373.38 25.34 375.48 27.16L381.92 32.9C382.76 33.6 384.02 34.86 384.02 35.98C384.02 37.66 381.78 38.08 380.66 38.36C378 38.92 374.5 39.34 372.54 39.48C355.46 63.14 325.08 87.36 306.04 98.7C308.98 103.32 312.62 107.24 323.26 110.18C333.34 112.98 345.52 113.12 351.12 113.12C362.74 113.12 382.62 112.7 398.02 108.78Z" fill="#9E9DA0"/>
</svg>
