<svg width="205" height="66" viewBox="0 0 205 66" fill="none" xmlns="http://www.w3.org/2000/svg">
<path d="M33.25 4.97C33.25 5.6 32.62 5.95 31.22 6.58C31.22 6.93 31.29 7.56 31.36 13.37C31.36 14.21 31.57 18.06 31.57 18.9C31.57 21.07 29.05 21.28 28.84 21.28C28.14 21.28 27.79 20.72 27.79 20.02C27.79 19.88 27.86 19.46 27.86 19.32H11.41V20.93C11.41 21.63 9.73001 22.47 8.54001 22.47C7.63001 22.47 7.35001 22.05 7.35001 21.21C7.35001 18.9 7.70001 8.54 7.70001 6.37C7.70001 5.32 7.56001 3.36 7.14001 1.19L11.55 3.64H27.09L28.28 2.24C28.7 1.75 28.91 1.54 29.33 1.54C29.68 1.54 29.96 1.82 30.45 2.17L32.55 3.85C32.9 4.13 33.25 4.55 33.25 4.97ZM27.86 10.57V5.32H11.41V10.57H27.86ZM27.86 17.64V12.25H11.41V17.64H27.86ZM28.91 42.77V34.72H11.41V42.77H28.91ZM34.16 34.58C34.16 35 33.95 35.42 32.13 36.12C32.13 37.31 32.41 42.77 32.41 43.89C32.41 45.85 30.31 46.13 29.82 46.13C28.84 46.13 28.84 45.85 28.91 44.45H22.47C22.54 47.74 22.54 49.21 22.54 53.9C22.54 54.88 22.68 59.01 22.68 59.85C22.68 61.53 22.68 63.98 17.15 65.45C16.52 62.02 14.56 61.11 12.88 60.27L12.95 59.92C19.04 60.27 19.04 59.64 19.04 58.38C19.04 56.14 18.9 46.41 18.9 44.45H11.48C11.48 45.64 11.2 46.55 9.17001 46.55C7.77001 46.55 7.70001 45.92 7.70001 45.15C7.70001 44.03 7.98001 39.34 7.98001 38.36C7.98001 38.15 7.98 34.72 7.56 30.73L11.55 33.04H28.56L29.54 31.99C29.82 31.71 30.03 31.43 30.45 31.43C30.8 31.43 31.15 31.71 31.36 31.92L33.53 33.67C33.81 33.88 34.16 34.16 34.16 34.58ZM16.17 51.73C16.17 52.08 15.75 52.64 15.19 52.64C14.91 52.64 13.58 52.71 13.3 52.71C11.13 55.02 9.17 56.84 7.56 58.17C5.53 59.85 3.43001 61.46 0.980011 62.58L0.700012 62.02C4.83001 57.82 8.68001 53.34 10.92 47.88L15.61 50.89C15.89 51.03 16.17 51.24 16.17 51.73ZM64.05 43.82C64.05 44.87 62.93 44.87 62.58 44.87C62.3 44.87 62.02 44.87 60.97 44.45C54.81 52.36 41.79 61.32 32.27 63.28L32.13 62.86C42.21 57.68 53.76 46.9 56.91 42.35C57.54 41.44 57.68 41.09 58.52 38.15L63.49 42.77C63.91 43.19 64.05 43.4 64.05 43.82ZM59.64 4.83C59.64 5.6 58.94 6.02 58.03 6.02C57.68 6.02 57.33 5.95 56.63 5.74C52.15 10.71 45.36 16.38 37.03 20.23L36.61 19.67C40.32 16.94 46.34 11.27 49.91 7.21C53.48 3.08 53.9 1.75 54.32 0L59.08 3.78C59.36 3.99 59.64 4.27 59.64 4.83ZM61.53 24.71C61.53 25.76 60.34 25.76 59.85 25.76C59.15 25.76 58.24 25.62 57.82 25.55C53.83 29.4 46.41 35.21 37.8 38.29L37.38 37.66C44.52 33.18 49.21 28.7 51.38 26.39C54.39 23.17 55.37 21.28 56.28 19.46L60.83 23.52C61.25 23.87 61.53 24.15 61.53 24.71ZM39.55 27.23C39.55 28 38.78 28 38.5 28H10.71C8.47002 28 4.55002 28.21 1.68002 28.77L0 25.76C3.92 26.11 7.77 26.32 11.69 26.32H18.62C18.62 25.62 18.62 24.57 18.55 23.87C18.48 23.24 17.92 20.44 17.85 19.81L22.75 21.49C23.73 21.84 23.94 21.91 23.94 22.4C23.94 23.31 23.1 23.52 21.98 23.8V26.32H32.41L34.09 24.22C34.65 23.52 34.86 23.17 35.28 23.17C35.63 23.17 36.12 23.59 36.68 24.08L38.85 26.18C39.34 26.6 39.55 26.81 39.55 27.23ZM33.88 54.88C33.88 55.93 33.39 57.05 31.99 57.05C30.45 57.05 30.1 56.28 29.12 53.9C28.21 51.66 27.16 49.49 25.34 47.88L25.69 47.53C29.4 49 33.88 50.75 33.88 54.88Z" fill="#BEBEBE"/>
<path d="M127.12 8.47C127.12 9.38 126.21 9.66 124.46 9.73C123.27 10.99 122.99 11.34 120.19 14.42C117.04 17.92 115.5 19.11 114.59 19.81L114.17 19.46C115.64 17.29 119.84 9.73 120.89 4.41L126.14 7.42C126.98 7.91 127.12 7.98 127.12 8.47ZM102.41 14.91C102.41 17.36 100.52 17.57 100.17 17.57C98.49 17.57 98 15.96 97.37 14.07C96.53 11.55 95.27 8.26 93.52 6.51L93.94 6.02C97.23 7.49 102.41 10.5 102.41 14.91ZM134.75 42.77C133.56 42.84 130.9 42.98 127.19 46.55C121.45 42.7 114.31 34.3 111.3 26.39V37.03C111.3 39.2 111.93 49.77 111.93 50.61C111.93 51.1 111.86 52.64 111.09 53.34C110.88 53.62 109.83 54.32 108.78 54.32C108.36 54.32 107.1 53.97 107.1 52.71C107.1 52.43 107.1 52.22 107.17 51.94C107.24 51.31 107.52 32.34 107.52 29.12C103.04 36.82 96.6 43.19 88.83 47.53L88.55 47.04C95.9 41.3 102.62 31.29 106.05 24.15H99.47C98.07 24.15 93.8 24.29 90.51 24.99L88.83 21.91C92.47 22.26 96.81 22.47 100.45 22.47H107.52C107.52 7.28 107.38 4.41 106.47 0.769998L112.56 2.45C113.05 2.52 113.82 2.73 113.82 3.36C113.82 4.13 112.77 4.62 111.23 5.25L111.3 19.39V22.47H123.41L125.44 20.23C126.14 19.39 126.28 19.39 126.56 19.39C126.91 19.39 127.26 19.67 127.89 20.09L130.97 22.33C131.32 22.61 131.67 23.03 131.67 23.38C131.67 24.15 130.97 24.15 130.62 24.15H111.37C114.45 31.22 123.83 40.74 134.75 42.42V42.77ZM87.71 12.67C87.71 14.77 86.1 15.19 85.4 15.19C83.79 15.19 83.37 14.14 82.39 11.62C80.71 7.35 78.47 5.18 76.79 3.43L77.07 2.94C84.21 6.65 87.71 8.47 87.71 12.67ZM134.12 55.65C132.02 56.98 129.71 58.45 129.01 61.88C127.19 62.02 125.65 62.02 121.17 62.02C103.74 62.02 97.44 62.02 91 58.24C87.57 56.28 86.45 54.39 84.98 51.8C84.42 52.36 83.93 52.71 80.01 56.56C76.72 59.78 76.44 60.2 75.88 60.76C75.81 61.39 75.67 62.37 74.9 62.37C74.48 62.37 74.13 61.81 73.92 61.53L70.63 56.7C74.13 56.7 79.38 54.6 82.46 52.08C82.6 46.69 82.25 38.08 82.39 32.69H80.5C78.05 32.69 74.2 32.97 71.54 33.53L69.86 30.45C73.22 30.73 76.72 30.94 81.48 31.01L83.23 29.05C83.72 28.49 83.79 28.42 84.14 28.42C84.42 28.42 84.84 28.63 85.12 28.84L87.71 30.87C87.92 31.08 88.41 31.57 88.41 32.06C88.41 32.69 87.29 33.46 86.17 34.23C86.17 38.64 86.31 45.78 86.31 50.19C86.52 51.24 86.73 52.5 89.88 55.16C91.84 56.84 94.78 58.45 105.21 58.45C113.47 58.45 127.19 57.47 133.98 55.37L134.12 55.65Z" fill="#BEBEBE"/>
<path d="M178.36 18.27C178.36 18.9 178.08 18.97 175.91 19.39C175 20.3 174.65 20.72 173.6 21.77C175.63 22.75 177.38 23.94 177.38 26.11C177.38 27.09 176.82 28 175.84 28C174.72 28 174.16 27.23 173.18 25.83C172.34 24.57 171.85 24.15 171.5 23.8C167.44 27.51 165.41 28.56 163.87 29.33L163.52 28.91C166.46 26.32 168.14 24.5 169.82 22.33C167.86 20.86 166.46 20.16 165.2 19.53V19.11C168 19.74 169.4 20.16 170.94 20.72C173.46 16.94 173.6 15.89 173.6 14.77L177.59 17.29C178.08 17.57 178.36 17.85 178.36 18.27ZM179.27 3.71C179.27 4.41 177.87 4.69 176.61 4.97C175.63 6.44 175.21 7.07 174.44 8.12C175.7 8.75 178.22 10.01 178.22 12.6C178.22 13.86 177.24 14.14 176.61 14.14C175.63 14.14 175.07 13.65 174.37 12.81C174.09 12.46 172.9 10.85 172.62 10.5C169.82 13.93 166.95 15.47 165.2 16.45L164.85 16.1C167.58 13.79 169.54 10.85 170.8 8.82C168.49 6.86 166.95 6.23 165.55 5.67L165.69 5.18C167.23 5.53 168.56 5.81 171.78 7C173.95 2.8 173.95 1.54 174.02 0.0699991L178.5 2.66C178.85 2.94 179.27 3.22 179.27 3.71ZM204.33 33.88C204.33 34.58 203.84 34.93 202.72 34.93C202.16 34.93 200.83 34.86 199.92 34.79C198.31 36.19 194.67 38.29 193.13 38.99L192.85 38.5C194.25 36.68 195.86 34.51 196.77 32.2H145.04C145.04 35.84 143.5 39.9 140.35 39.9C138.39 39.9 138.25 38.22 138.25 37.73C138.25 36.26 138.95 35.7 140.84 34.3C142.66 32.9 143.71 30.24 144.2 27.86H144.55C144.83 29.19 144.9 29.68 144.97 30.52H148.96C148.96 14.42 148.96 7.91 147.77 3.15L152.81 5.39C154.07 4.9 158.9 2.52 160.09 0.0699991L164.36 3.43C164.85 3.85 165.13 4.13 165.13 4.55C165.13 5.11 164.5 5.18 164.15 5.18C163.38 5.18 162.54 4.83 161.98 4.62C159.18 5.25 154.35 6.09 152.25 6.3V13.51H157.99L159.18 11.62C159.46 11.13 159.74 10.64 160.23 10.64C160.65 10.64 160.79 10.85 161.49 11.48L163.24 13.37C163.59 13.79 163.87 14.07 163.87 14.49C163.87 15.19 163.1 15.19 162.82 15.19H152.25V22.12H157.5L158.76 20.37C159.39 19.46 159.46 19.39 159.81 19.39C160.09 19.39 160.3 19.46 161 20.16L162.82 21.98C163.17 22.33 163.45 22.61 163.45 23.03C163.45 23.73 162.82 23.8 162.4 23.8H152.25V30.52H189.91V24.15H186.62C185.43 24.15 183.89 24.22 182.77 24.5L182.07 22.19C183.33 22.26 185.99 22.47 187.04 22.47H189.91V15.89H187.11C185.99 15.89 184.38 16.03 183.26 16.24L182.56 14C183.82 14.07 186.48 14.21 187.53 14.21H189.91V7.28H186.62C185.43 7.28 183.82 7.42 182.7 7.63L182 5.32C183.26 5.46 185.99 5.6 187.04 5.6H189.35L190.89 3.78C191.31 3.29 191.59 2.94 192.01 2.94C192.22 2.94 192.36 3.01 193.13 3.57L195.58 5.39C196.07 5.74 196.35 6.02 196.35 6.51C196.35 7.14 196.28 7.14 193.55 8.54C193.55 9.59 193.2 21.35 193.2 23.73V30.52H196.98L198.31 29.33C199.08 28.63 199.15 28.56 199.43 28.56C199.85 28.56 200.2 28.98 200.55 29.33L203.77 32.69C204.12 33.11 204.33 33.53 204.33 33.88ZM202.79 49.28C202.79 49.91 202.16 50.05 201.74 49.98H172.69V58.45C172.69 60.55 172.69 64.19 165.97 65.87C165.2 63.49 162.61 61.11 158.55 60.06V59.64C163.31 59.99 165.41 60.13 165.83 60.13C168.77 60.13 168.77 58.94 168.77 57.05C168.77 55.93 168.7 51.03 168.7 49.98H150.29C147.84 49.98 143.99 50.33 141.33 50.82L139.65 47.81C144.9 48.23 150.01 48.3 151.27 48.3H168.7C168.7 46.55 168.49 45.22 167.93 43.61L171.71 44.24C172.76 43.4 173.18 42.98 176.82 39.2H161.84C159.39 39.2 155.47 39.48 152.88 40.04L151.2 37.03C156.45 37.45 161.56 37.52 162.82 37.52H178.78L181.58 35.91C182.21 35.56 182.7 35.28 183.05 35.28C183.33 35.28 183.54 35.42 184.24 35.98L186.41 37.8C186.83 38.15 186.97 38.57 186.97 38.85C186.97 39.83 185.78 39.97 185.22 40.04C184.8 40.11 182.84 40.18 182.49 40.25C179.69 41.44 175 43.54 172.97 44.45C173.18 44.52 173.46 44.66 173.46 45.01C173.46 45.22 173.39 45.36 172.69 46.06V48.3H193.69L196.07 45.43C196.35 45.08 196.84 44.52 197.19 44.52C197.61 44.52 198.17 45.01 198.45 45.22L202.09 48.23C202.37 48.44 202.79 48.79 202.79 49.28Z" fill="#BEBEBE"/>
</svg>
