<svg width="484" height="156" viewBox="0 0 484 156" fill="none" xmlns="http://www.w3.org/2000/svg">
<path d="M113.56 71.06C113.56 72.93 111.69 72.93 110.84 72.93H87.72C87.72 82.79 87.72 93.67 87.89 102.51C87.89 108.29 89.08 136.85 89.08 143.31C89.08 149.26 84.15 149.26 83.3 149.26C80.41 149.26 79.56 147.05 79.39 145.18C79.39 144.33 79.56 126.14 79.56 119.51C67.32 123.76 44.03 128.86 34.34 130.73C33.66 133.28 32.64 135.83 30.26 135.83C29.58 135.83 28.73 135.66 27.71 133.79L21.59 122.06C23.97 122.4 25.67 122.57 28.05 122.57C30.6 122.57 32.64 122.57 41.48 121.89V72.93C41.14 72.93 30.94 73.44 23.46 74.97L19.38 67.49C28.22 68.34 38.76 68.85 47.6 68.85H94.86L99.28 62.73C100.81 60.69 100.98 60.52 102 60.52C103.02 60.52 104.04 61.37 105.23 62.22L111.69 68.34C112.54 69.02 113.56 70.04 113.56 71.06ZM79.73 102.34V89.42H49.13V102.34H79.73ZM79.73 85.34V72.93H49.13V85.34H79.73ZM79.56 117.47V112.37V106.42H49.13V121.38C59.84 120.36 64.94 119.85 79.56 117.47ZM136.68 11.39C136.68 13.26 134.47 14.79 130.9 17.17V19.72C130.9 37.91 131.58 118.32 131.58 134.64C131.58 144.33 130.56 151.13 113.9 155.55C111.69 148.24 105.91 143.82 99.62 141.61V140.42C102.34 140.59 105.4 140.76 109.65 140.76C120.53 140.76 120.7 140.42 121.38 139.23C121.89 137.87 121.89 135.66 121.89 134.47C121.89 108.12 122.06 77.52 122.23 51.17H85.85C85.17 56.27 81.26 56.95 79.22 56.95C76.5 56.95 76.16 55.25 76.16 53.04C76.16 51.85 76.67 45.9 76.67 44.71C76.84 37.91 76.84 31.96 76.84 26.86C76.84 10.88 76.5 8.32999 75.48 2.88999L86.87 8.84H120.53L123.42 5.09999C124.61 3.56999 125.29 3.4 125.97 3.4C126.99 3.4 127.33 3.56999 129.2 4.93L134.81 8.84C135.83 9.52 136.68 10.2 136.68 11.39ZM122.23 26.86V12.92H85.68V26.86H122.23ZM122.23 47.09V30.94H85.68V47.09H122.23ZM59.5 11.73C59.5 13.09 58.31 13.94 54.91 15.81C54.91 21.25 55.76 45.22 55.76 50.15C55.76 51.68 55.76 56.44 49.13 56.44C45.9 56.44 46.07 53.72 46.41 51.17H10.37V56.27L10.2 107.78L11.22 145.69C11.39 152.32 7.82 155.21 4.25 155.21C0.169999 155.21 0 152.32 0 150.79C0 144.67 2.38 55.25 2.38 37.23C2.38 25.33 2.38 12.58 0 1.52999L13.09 8.84H43.86L46.58 5.78C47.6 4.58999 48.11 3.91 49.3 3.91C50.32 3.91 51.51 4.76 52.19 5.26999L57.97 9.52C59.16 10.37 59.5 11.05 59.5 11.73ZM46.58 26.86V12.92H10.37V26.86H46.58ZM46.58 47.09V30.94H10.37V47.09H46.58Z" fill="#BEBEBE"/>
<path d="M315.35 135.15C309.06 137.53 304.47 140.59 301.07 147.05C263.67 130.73 243.1 97.75 236.64 66.3H234.43C232.56 81.77 228.48 107.1 204.34 127.67C187.34 141.95 171.02 146.54 164.39 148.41L164.05 146.37C217.94 122.57 222.87 82.45 224.74 66.3H197.2C191.25 66.3 181.9 66.98 175.44 68.34L171.36 61.03C184.11 62.05 196.52 62.22 199.58 62.22H225.25C227.29 41.82 227.29 28.73 227.29 21.59H188.87C182.92 21.59 173.57 22.27 167.11 23.63L163.03 16.32C175.78 17.34 188.19 17.51 191.25 17.51H285.09L291.38 9.01C291.55 8.67 292.91 6.96999 293.93 6.96999C295.12 6.96999 296.14 7.99 296.99 8.67L306.68 17.17C307.7 18.19 308.38 18.7 308.38 19.89C308.38 21.42 306.85 21.59 305.83 21.59H236.98C236.98 27.88 236.98 40.29 234.77 62.22H275.91L281.69 53.89C281.86 53.38 283.05 51.68 284.24 51.68C285.26 51.68 287.13 53.38 287.3 53.55L296.65 61.88C297.67 62.9 298.35 63.41 298.35 64.43C298.35 66.13 296.99 66.3 295.8 66.3H238.68C244.12 81.6 252.28 95.88 263.67 107.44C278.29 122.06 294.61 130.22 315.18 134.3L315.35 135.15Z" fill="#BEBEBE"/>
<path d="M464.61 11.05C464.61 13.6 462.06 13.94 457.13 14.62C447.27 32.47 441.66 37.74 437.24 41.82L436.05 40.97C442 29.92 446.76 14.79 447.95 7.99C448.46 5.43999 448.29 2.88999 448.12 0L462.06 7.99C463.42 8.84 464.61 9.52 464.61 11.05ZM425.17 26.86C425.17 30.26 422.96 32.64 419.73 32.64C415.48 32.64 414.8 30.43 412.76 23.97C409.7 13.94 406.3 9.85999 403.41 6.63L404.26 5.94999C413.44 8.49999 425.17 19.21 425.17 26.86ZM483.31 110.16C483.31 111.86 481.61 112.03 480.76 112.03H436.22C436.56 121.89 437.24 137.7 437.24 147.56C437.24 155.21 431.29 155.21 430.27 155.21C426.02 155.21 426.02 153 426.02 151.47C426.02 150.96 426.19 148.41 426.19 147.9C426.36 142.8 426.7 117.64 426.7 112.03H411.4C408 112.03 397.63 112.37 389.47 113.9L385.56 106.59C394.4 107.27 404.94 107.95 413.78 107.95H426.87C427.04 94.52 427.04 92.99 427.21 79.39H423.47C420.07 79.39 409.7 79.73 401.54 81.26L397.63 73.95C412.93 75.14 425 75.31 427.21 75.31C427.21 71.23 427.38 51.17 427.38 46.75H420.07C416.67 46.75 406.3 47.09 398.14 48.62L394.23 41.31C403.07 41.99 413.61 42.67 422.45 42.67H459.68L464.1 37.06C465.8 34.85 466.48 34.68 466.99 34.68C467.84 34.68 469.37 35.87 470.05 36.38L477.53 42.33C478.21 42.84 479.23 43.69 479.23 44.88C479.23 46.58 477.53 46.75 476.68 46.75H435.88C435.88 50.83 435.71 70.72 435.71 75.31H455.09L459.85 70.04C461.04 68.85 461.72 68 462.57 68C463.42 68 464.95 69.02 465.8 69.7L472.26 74.8C472.94 75.48 474.13 76.33 474.13 77.52C474.13 79.22 472.26 79.39 471.41 79.39H435.71C435.71 92.31 435.71 94.01 436.22 107.95H463.76L468.69 101.66C469.88 100.13 470.56 99.45 471.24 99.45C472.43 99.45 473.79 100.47 474.47 101.15L481.27 107.27C482.12 108.12 483.31 108.97 483.31 110.16ZM391.34 38.59C391.34 40.29 389.47 41.31 384.03 43.01C381.48 47.26 377.06 54.57 368.73 64.77C373.15 66.13 380.8 70.38 381.99 71.06C385.73 73.1 391 76.5 391 81.09C391 82.62 390.15 86.87 386.07 86.87C383.18 86.87 382.5 85.85 379.27 80.58C377.74 77.86 373.32 70.55 367.71 66.13L367.03 66.81V120.36C367.03 124.1 367.37 142.46 367.37 146.54C367.37 148.75 367.37 153.85 361.08 153.85C356.66 153.85 356.66 150.11 356.66 149.09C356.66 143.31 357.68 133.96 357.85 128.18C358.36 117.3 358.19 113.22 358.19 76.33C348.67 85.68 337.45 95.03 324.87 99.62L324.53 99.11C335.75 91.29 345.95 80.24 353.6 70.72C364.65 57.29 369.75 48.62 375.53 38.59H355.64C352.24 38.59 341.87 39.1 333.71 40.63L329.8 33.32C341.87 34.34 349.69 34.51 357.51 34.51V20.4C357.51 8.49999 355.3 3.4 354.11 0.509993L369.92 4.76C371.45 5.09999 372.47 6.46 372.47 7.31C372.47 8.67 370.94 9.52 366.86 11.56V34.51H376.21L380.29 31.11C381.48 30.09 381.65 29.92 382.33 29.92C383.18 29.92 383.35 30.09 384.71 31.28L389.64 35.87C390.49 36.55 391.34 37.4 391.34 38.59Z" fill="#BEBEBE"/>
</svg>
