<svg width="406" height="132" viewBox="0 0 406 132" fill="none" xmlns="http://www.w3.org/2000/svg">
<path d="M95.395 60.3016C95.395 61.8885 93.8241 61.8885 93.1101 61.8885H73.6884C73.6884 70.2557 73.6884 79.4885 73.8312 86.9902C73.8312 91.8951 74.8308 116.131 74.8308 121.613C74.8308 126.662 70.6894 126.662 69.9754 126.662C67.5477 126.662 66.8336 124.787 66.6908 123.2C66.6908 122.479 66.8336 107.043 66.8336 101.416C56.5515 105.023 36.987 109.351 28.847 110.938C28.2758 113.102 27.4189 115.266 25.4196 115.266C24.8484 115.266 24.1344 115.121 23.2775 113.534L18.1365 103.58C20.1358 103.869 21.5638 104.013 23.5631 104.013C25.7052 104.013 27.4189 104.013 34.8449 103.436V61.8885C34.5593 61.8885 25.9909 62.3213 19.7073 63.6197L16.28 57.2721C23.7059 57.9934 32.56 58.4262 39.9859 58.4262H79.6862L83.3992 53.2328C84.6845 51.5016 84.8273 51.3574 85.6841 51.3574C86.541 51.3574 87.3978 52.0787 88.3975 52.8L93.8241 57.9934C94.5382 58.5705 95.395 59.4361 95.395 60.3016ZM66.9764 86.8459V75.882H41.2712V86.8459H66.9764ZM66.9764 72.4197V61.8885H41.2712V72.4197H66.9764ZM66.8336 99.6852V95.3574V90.3082H41.2712V103.003C50.268 102.138 54.5522 101.705 66.8336 99.6852ZM114.817 9.66557C114.817 11.2525 112.96 12.5508 109.961 14.5705V16.7344C109.961 32.1705 110.533 100.407 110.533 114.256C110.533 122.479 109.676 128.249 95.6806 132C93.8241 125.797 88.9687 122.046 83.6848 120.17V119.161C85.9697 119.305 88.5403 119.449 92.1104 119.449C101.25 119.449 101.393 119.161 101.964 118.151C102.393 116.997 102.393 115.121 102.393 114.111C102.393 91.7508 102.535 65.7836 102.678 43.423H72.1175C71.5462 47.7508 68.2617 48.3279 66.548 48.3279C64.2631 48.3279 63.9775 46.8853 63.9775 45.0098C63.9775 44 64.4059 38.9508 64.4059 37.941C64.5487 32.1705 64.5487 27.1213 64.5487 22.7934C64.5487 9.23278 64.2631 7.06885 63.4063 2.45245L72.9743 7.50164H101.25L103.678 4.32787C104.677 3.0295 105.249 2.88524 105.82 2.88524C106.677 2.88524 106.962 3.0295 108.533 4.1836L113.246 7.50164C114.103 8.07869 114.817 8.65574 114.817 9.66557ZM102.678 22.7934V10.9639H71.9747V22.7934H102.678ZM102.678 39.9607V26.2557H71.9747V39.9607H102.678ZM49.9824 9.9541C49.9824 11.1082 48.9828 11.8295 46.1266 13.4164C46.1266 18.0328 46.8407 38.3738 46.8407 42.5574C46.8407 43.8557 46.8407 47.8951 41.2712 47.8951C38.5579 47.8951 38.7007 45.5869 38.9863 43.423H8.71122V47.7508L8.56841 91.4623L9.42525 123.633C9.56806 129.259 6.56912 131.711 3.57017 131.711C0.142806 131.711 0 129.259 0 127.961C0 122.767 1.9993 46.8852 1.9993 31.5934C1.9993 21.4951 1.9993 10.6754 0 1.29835L10.9961 7.50164H36.8442L39.1291 4.90491C39.9859 3.89507 40.4143 3.31803 41.414 3.31803C42.2708 3.31803 43.2705 4.03934 43.8417 4.47213L48.6971 8.07869C49.6968 8.8 49.9824 9.37705 49.9824 9.9541ZM39.1291 22.7934V10.9639H8.71122V22.7934H39.1291ZM39.1291 39.9607V26.2557H8.71122V39.9607H39.1291Z" fill="#9E9DA0"/>
<path d="M264.907 114.689C259.623 116.708 255.767 119.305 252.911 124.787C221.493 110.938 204.214 82.9508 198.787 56.2623H196.931C195.36 69.3902 191.932 90.8852 171.654 108.341C157.373 120.459 143.664 124.354 138.094 125.941L137.809 124.21C183.078 104.013 187.22 69.9672 188.791 56.2623H165.656C160.658 56.2623 152.803 56.8393 147.377 57.9934L143.949 51.7902C154.66 52.6557 165.085 52.8 167.655 52.8H189.219C190.933 35.4885 190.933 24.3803 190.933 18.3213H158.658C153.66 18.3213 145.806 18.8984 140.379 20.0525L136.952 13.8492C147.662 14.7148 158.087 14.859 160.658 14.859H239.487L244.771 7.6459C244.914 7.35738 246.056 5.91475 246.913 5.91475C247.913 5.91475 248.77 6.78033 249.484 7.35738L257.624 14.5705C258.48 15.4361 259.052 15.8688 259.052 16.8787C259.052 18.177 257.766 18.3213 256.91 18.3213H199.073C199.073 23.659 199.073 34.1902 197.216 52.8H231.776L236.631 45.7311C236.774 45.2984 237.773 43.8557 238.773 43.8557C239.63 43.8557 241.201 45.2984 241.344 45.4426L249.198 52.5115C250.055 53.3771 250.626 53.8098 250.626 54.6754C250.626 56.118 249.484 56.2623 248.484 56.2623H200.501C205.071 69.2459 211.925 81.3639 221.493 91.1738C233.775 103.58 247.484 110.505 264.764 113.967L264.907 114.689Z" fill="#9E9DA0"/>
<path d="M390.291 9.37705C390.291 11.541 388.149 11.8295 384.008 12.4066C375.725 27.5541 371.012 32.0262 367.299 35.4885L366.3 34.7672C371.298 25.3902 375.297 12.5508 376.296 6.78033C376.725 4.61638 376.582 2.45245 376.439 0L388.149 6.78033C389.292 7.50164 390.291 8.07869 390.291 9.37705ZM357.16 22.7934C357.16 25.6787 355.304 27.6984 352.59 27.6984C349.02 27.6984 348.449 25.8229 346.735 20.341C344.165 11.8295 341.308 8.36721 338.881 5.62623L339.595 5.04918C347.306 7.21311 357.16 16.3016 357.16 22.7934ZM406 93.482C406 94.9246 404.572 95.0689 403.858 95.0689H366.443C366.728 103.436 367.299 116.852 367.299 125.22C367.299 131.711 362.301 131.711 361.444 131.711C357.874 131.711 357.874 129.836 357.874 128.538C357.874 128.105 358.017 125.941 358.017 125.508C358.16 121.18 358.445 99.8295 358.445 95.0689H345.593C342.737 95.0689 334.025 95.3574 327.171 96.6557L323.886 90.4525C331.312 91.0295 340.166 91.6066 347.592 91.6066H358.588C358.731 80.2098 358.731 78.9115 358.874 67.3705H355.732C352.876 67.3705 344.165 67.659 337.31 68.9574L334.025 62.7541C346.878 63.7639 357.017 63.9082 358.874 63.9082C358.874 60.4459 359.017 43.423 359.017 39.6721H352.876C350.02 39.6721 341.308 39.9607 334.454 41.259L331.169 35.0557C338.595 35.6328 347.449 36.2098 354.875 36.2098H386.15L389.863 31.4492C391.291 29.5738 391.862 29.4295 392.291 29.4295C393.005 29.4295 394.29 30.4393 394.861 30.8721L401.145 35.9213C401.716 36.3541 402.573 37.0754 402.573 38.0852C402.573 39.5279 401.145 39.6721 400.431 39.6721H366.157C366.157 43.1344 366.014 60.0131 366.014 63.9082H382.294L386.293 59.4361C387.292 58.4262 387.864 57.7049 388.578 57.7049C389.292 57.7049 390.577 58.5705 391.291 59.1475L396.718 63.4754C397.289 64.0525 398.288 64.7738 398.288 65.7836C398.288 67.2262 396.718 67.3705 396.004 67.3705H366.014C366.014 78.3344 366.014 79.7771 366.443 91.6066H389.577L393.719 86.2689C394.718 84.9705 395.289 84.3934 395.861 84.3934C396.86 84.3934 398.003 85.259 398.574 85.8361L404.286 91.0295C405 91.7508 406 92.4721 406 93.482ZM328.741 32.7475C328.741 34.1902 327.171 35.0557 322.601 36.4984C320.459 40.1049 316.746 46.3082 309.748 54.9639C313.461 56.118 319.887 59.7246 320.887 60.3016C324.029 62.0328 328.456 64.918 328.456 68.8131C328.456 70.1115 327.742 73.718 324.314 73.718C321.887 73.718 321.315 72.8525 318.602 68.3803C317.317 66.0721 313.604 59.8689 308.891 56.118L308.32 56.6951V102.138C308.32 105.311 308.606 120.892 308.606 124.354C308.606 126.23 308.606 130.557 303.322 130.557C299.609 130.557 299.609 127.384 299.609 126.518C299.609 121.613 300.466 113.679 300.609 108.774C301.037 99.541 300.894 96.0787 300.894 64.7738C292.897 72.7082 283.472 80.6426 272.904 84.5377L272.618 84.1049C282.044 77.4689 290.612 68.0918 297.038 60.0131C306.321 48.6164 310.605 41.259 315.46 32.7475H298.752C295.896 32.7475 287.185 33.1803 280.33 34.4787L277.045 28.2754C287.185 29.141 293.754 29.2852 300.323 29.2852V17.3115C300.323 7.21311 298.466 2.88524 297.467 0.432782L310.748 4.03934C312.033 4.32786 312.89 5.48197 312.89 6.20328C312.89 7.35738 311.605 8.07869 308.177 9.80983V29.2852H316.032L319.459 26.4C320.459 25.5344 320.601 25.3902 321.173 25.3902C321.887 25.3902 322.03 25.5344 323.172 26.5443L327.313 30.4393C328.027 31.0164 328.741 31.7377 328.741 32.7475Z" fill="#9E9DA0"/>
</svg>
