<svg width="486" height="160" viewBox="0 0 486 160" fill="none" xmlns="http://www.w3.org/2000/svg">
<path d="M79.2591 13.9465C79.2591 15.4342 77.7714 16.2607 74.4653 17.7484C74.4653 18.5749 74.6306 20.0627 74.7959 33.7828C74.7959 35.7664 75.2918 44.8581 75.2918 46.8417C75.2918 51.9661 69.3409 52.462 68.845 52.462C67.192 52.462 66.3655 51.1396 66.3655 49.4866C66.3655 49.156 66.5307 48.1642 66.5307 47.8336H27.6846V51.6355C27.6846 53.2886 23.7173 55.2722 20.9072 55.2722C18.7582 55.2722 18.097 54.2804 18.097 52.2967C18.097 46.8417 18.9236 22.3769 18.9236 17.2525C18.9236 14.773 18.593 10.1445 17.6012 5.0201L28.0152 10.8057H64.7124L67.5226 7.49965C68.5144 6.34253 69.0103 5.84662 70.0021 5.84662C70.8286 5.84662 71.4899 6.50783 72.647 7.33434L77.6061 11.3016C78.4326 11.9628 79.2591 12.9546 79.2591 13.9465ZM66.5307 27.1707V14.773H27.6846V27.1707H66.5307ZM66.5307 43.8663V31.138H27.6846V43.8663H66.5307ZM69.0103 103.21V84.2002H27.6846V103.21H69.0103ZM81.4081 83.8696C81.4081 84.8614 80.9122 85.8532 76.6143 87.5062C76.6143 90.3164 77.2755 103.21 77.2755 105.855C77.2755 110.483 72.3164 111.145 71.1592 111.145C68.845 111.145 68.845 110.483 69.0103 107.177H53.8025C53.9678 114.947 53.9677 118.418 53.9677 129.493C53.9677 131.807 54.2984 141.56 54.2984 143.544C54.2984 147.511 54.2984 153.297 41.2395 156.768C39.7517 148.668 35.1233 146.519 31.156 144.536L31.3213 143.709C45.7026 144.536 45.7026 143.048 45.7026 140.073C45.7026 134.783 45.372 111.806 45.372 107.177H27.8499C27.8499 109.987 27.1887 112.136 22.3949 112.136C19.0889 112.136 18.9236 110.649 18.9236 108.83C18.9236 106.185 19.5848 95.1102 19.5848 92.7959C19.5848 92.3 19.5847 84.2002 18.5929 74.7779L28.0152 80.2329H68.1838L70.498 77.7534C71.1592 77.0922 71.6552 76.431 72.647 76.431C73.4735 76.431 74.3 77.0922 74.7959 77.5881L79.9203 81.7206C80.5815 82.2166 81.4081 82.8778 81.4081 83.8696ZM38.9252 124.369C38.9252 125.195 37.9334 126.518 36.611 126.518C35.9498 126.518 32.809 126.683 32.1478 126.683C27.0234 132.138 22.3949 136.436 18.5929 139.577C13.7991 143.544 8.84008 147.346 3.05448 149.991L2.39327 148.668C12.1461 138.75 21.2378 128.171 26.5275 115.277L37.6027 122.385C38.264 122.716 38.9252 123.212 38.9252 124.369ZM151.992 105.69C151.992 108.169 149.348 108.169 148.521 108.169C147.86 108.169 147.199 108.169 144.719 107.177C130.172 125.857 99.426 147.015 76.9449 151.644L76.6143 150.652C100.418 138.42 127.693 112.963 135.131 102.218C136.619 100.069 136.95 99.2428 138.933 92.3L150.67 103.21C151.662 104.202 151.992 104.698 151.992 105.69ZM141.578 13.6159C141.578 15.4342 139.925 16.426 137.776 16.426C136.95 16.426 136.123 16.2607 134.47 15.7648C123.891 27.5013 107.856 40.8908 88.1854 49.9825L87.1937 48.6601C95.9547 42.2133 110.171 28.8237 118.601 19.2362C127.032 9.48328 128.023 6.34253 129.015 2.20996L140.256 11.1363C140.917 11.6322 141.578 12.2934 141.578 13.6159ZM146.041 60.5619C146.041 63.0414 143.231 63.0414 142.074 63.0414C140.421 63.0414 138.272 62.7108 137.28 62.5455C127.858 71.6372 110.336 85.3573 90.0038 92.6306L89.012 91.1429C105.873 80.5635 116.948 69.9841 122.073 64.5291C129.181 56.9252 131.495 52.462 133.644 48.1642L144.388 57.7517C145.38 58.5782 146.041 59.2395 146.041 60.5619ZM94.1363 66.5128C94.1363 68.3311 92.318 68.3311 91.6568 68.3311H26.0316C20.7419 68.3311 11.4849 68.827 4.70752 70.1494L0.740234 63.0414C9.9972 63.8679 19.0889 64.3638 28.3458 64.3638H44.7108C44.7108 62.7108 44.7108 60.2313 44.5455 58.5782C44.3802 57.0905 43.0577 50.4784 42.8924 48.9907L54.4637 52.9579C56.7779 53.7845 57.2738 53.9498 57.2738 55.1069C57.2738 57.2558 55.2902 57.7517 52.6453 58.4129V64.3638H77.2755L81.2427 59.4048C82.5651 57.7517 83.061 56.9252 84.0529 56.9252C84.8794 56.9252 86.0365 57.917 87.359 59.0741L92.4833 64.0332C93.6404 65.0251 94.1363 65.521 94.1363 66.5128ZM80.7468 131.807C80.7468 134.287 79.5897 136.932 76.2836 136.932C72.647 136.932 71.8204 135.113 69.5062 129.493C67.3573 124.203 64.8777 119.079 60.5798 115.277L61.4064 114.451C70.1675 117.922 80.7468 122.055 80.7468 131.807Z" fill="#BEBEBE"/>
<path d="M300.93 22.2116C300.93 24.3605 298.781 25.0218 294.649 25.1871C291.839 28.1625 291.177 28.989 284.565 36.2623C277.127 44.5275 273.49 47.3376 271.341 48.9907L270.349 48.1642C273.821 43.0398 283.739 25.1871 286.218 12.624L298.616 19.7321C300.6 20.8892 300.93 21.0545 300.93 22.2116ZM242.578 37.4195C242.578 43.2051 238.115 43.701 237.289 43.701C233.321 43.701 232.164 39.899 230.677 35.4358C228.693 29.4849 225.717 21.7157 221.585 17.5831L222.577 16.426C230.346 19.8974 242.578 27.0054 242.578 37.4195ZM318.948 103.21C316.138 103.375 309.857 103.706 301.095 112.136C287.541 103.045 270.68 83.2084 263.572 64.5291V89.6552C263.572 94.7796 265.06 119.74 265.06 121.724C265.06 122.881 264.894 126.518 263.076 128.171C262.58 128.832 260.1 130.485 257.621 130.485C256.629 130.485 253.654 129.658 253.654 126.683C253.654 126.022 253.654 125.526 253.819 124.865C253.984 123.377 254.645 78.5799 254.645 70.976C244.066 89.1593 228.858 104.202 210.51 114.451L209.848 113.293C227.205 99.7387 243.074 76.1003 251.174 59.2395H235.636C232.33 59.2395 222.246 59.5701 214.477 61.2231L210.51 53.9498C219.105 54.7763 229.354 55.2722 237.95 55.2722H254.645C254.645 19.4015 254.315 12.624 252.166 4.02829L266.547 7.99556C267.704 8.16087 269.523 8.65677 269.523 10.1445C269.523 11.9628 267.043 13.1199 263.406 14.6077L263.572 47.9989V55.2722H292.169L296.963 49.9825C298.616 47.9989 298.947 47.9989 299.608 47.9989C300.434 47.9989 301.261 48.6601 302.749 49.6519L310.022 54.9416C310.848 55.6028 311.675 56.5946 311.675 57.4211C311.675 59.2395 310.022 59.2395 309.195 59.2395H263.737C271.01 75.935 293.161 98.4162 318.948 102.384V103.21ZM207.865 32.1298C207.865 37.0889 204.063 38.0807 202.41 38.0807C198.608 38.0807 197.616 35.6011 195.302 29.6502C191.334 19.5668 186.045 14.4424 182.078 10.3098L182.739 9.15268C199.6 17.9137 207.865 22.2116 207.865 32.1298ZM317.461 133.626C312.501 136.766 307.046 140.238 305.393 148.338C301.096 148.668 297.459 148.668 286.879 148.668C245.719 148.668 230.842 148.668 215.634 139.742C207.534 135.113 204.889 130.65 201.418 124.534C200.095 125.857 198.938 126.683 189.681 135.775C181.912 143.379 181.251 144.37 179.929 145.693C179.763 147.181 179.433 149.495 177.614 149.495C176.622 149.495 175.796 148.172 175.3 147.511L167.531 136.105C175.796 136.105 188.194 131.146 195.467 125.195C195.798 112.467 194.971 92.1347 195.302 79.4064H190.839C185.053 79.4064 175.961 80.0676 169.68 81.39L165.712 74.1167C173.647 74.7779 181.912 75.2738 193.153 75.4391L197.285 70.8107C198.442 69.4882 198.608 69.3229 199.434 69.3229C200.096 69.3229 201.087 69.8188 201.749 70.3147L207.865 75.1085C208.361 75.6044 209.518 76.7616 209.518 77.9187C209.518 79.4064 206.873 81.2247 204.228 83.0431C204.228 93.4572 204.559 110.318 204.559 120.732C205.055 123.212 205.55 126.187 212.989 132.469C217.618 136.436 224.56 140.238 249.19 140.238C268.696 140.238 301.096 137.924 317.13 132.965L317.461 133.626Z" fill="#BEBEBE"/>
<path d="M421.932 45.354C421.932 46.8417 421.271 47.007 416.146 47.9989C413.997 50.1478 413.171 51.1396 410.691 53.6192C415.485 55.9334 419.618 58.7435 419.618 63.8679C419.618 66.1822 418.295 68.3311 415.981 68.3311C413.336 68.3311 412.014 66.5128 409.7 63.2067C407.716 60.2313 406.559 59.2395 405.732 58.4129C396.145 67.174 391.351 69.6535 387.714 71.4719L386.888 70.4801C393.831 64.3638 397.798 60.066 401.765 54.9416C397.136 51.4702 393.83 49.8172 390.855 48.3295V47.3376C397.467 48.8254 400.773 49.8172 404.41 51.1396C410.361 42.2133 410.691 39.7337 410.691 37.0889L420.114 43.0398C421.271 43.701 421.932 44.3622 421.932 45.354ZM424.081 10.971C424.081 12.624 420.775 13.2852 417.799 13.9465C415.485 17.4178 414.493 18.9056 412.675 21.3851C415.65 22.8728 421.601 25.8483 421.601 31.9645C421.601 34.9399 419.287 35.6011 417.799 35.6011C415.485 35.6011 414.163 34.444 412.51 32.4604C411.848 31.6339 409.038 27.8319 408.377 27.0054C401.765 35.1052 394.988 38.7419 390.855 41.0561L390.029 40.2296C396.475 34.7746 401.104 27.8319 404.079 23.0381C398.624 18.4096 394.988 16.9219 391.681 15.5995L392.012 14.4424C395.649 15.2689 398.79 15.9301 406.393 18.7402C411.518 8.82207 411.518 5.84662 411.683 2.37526L422.263 8.49147C423.089 9.15268 424.081 9.81389 424.081 10.971ZM483.259 82.2166C483.259 83.8696 482.102 84.6961 479.457 84.6961C478.135 84.6961 474.994 84.5308 472.845 84.3655C469.043 87.6716 460.447 92.6306 456.811 94.2837L456.15 93.1265C459.456 88.8287 463.258 83.7043 465.407 78.2493H343.248C343.248 86.845 339.611 96.4326 332.173 96.4326C327.544 96.4326 327.213 92.4653 327.213 91.3082C327.213 87.8369 328.866 86.5144 333.33 83.2084C337.627 79.9023 340.107 73.6208 341.264 68.0005H342.091C342.752 71.1413 342.917 72.2984 343.082 74.282H352.505C352.505 36.2624 352.505 20.8892 349.695 9.64858L361.596 14.9383C364.572 13.7812 375.978 8.16087 378.788 2.37526L388.871 10.3098C390.028 11.3016 390.69 11.9628 390.69 12.9546C390.69 14.2771 389.202 14.4424 388.375 14.4424C386.557 14.4424 384.573 13.6159 383.251 13.1199C376.639 14.6077 365.233 16.5913 360.274 17.0872V34.1134H373.829L376.639 29.6502C377.3 28.4931 377.961 27.336 379.118 27.336C380.11 27.336 380.441 27.8319 382.094 29.3196L386.227 33.7828C387.053 34.7746 387.714 35.4358 387.714 36.4277C387.714 38.0807 385.896 38.0807 385.235 38.0807H360.274V54.4457H372.672L375.647 50.3131C377.135 48.1642 377.3 47.9989 378.127 47.9989C378.788 47.9989 379.284 48.1642 380.937 49.8172L385.235 54.1151C386.061 54.9416 386.722 55.6028 386.722 56.5946C386.722 58.2476 385.235 58.4129 384.243 58.4129H360.274V74.282H449.207V59.2395H441.438C438.628 59.2395 434.991 59.4048 432.346 60.066L430.693 54.611C433.668 54.7763 439.95 55.2722 442.43 55.2722H449.207V39.7337H442.595C439.95 39.7337 436.148 40.0643 433.503 40.5602L431.85 35.2705C434.826 35.4358 441.107 35.7664 443.587 35.7664H449.207V19.4015H441.438C438.628 19.4015 434.826 19.7321 432.181 20.228L430.528 14.773C433.503 15.1036 439.95 15.4342 442.43 15.4342H447.885L451.521 11.1363C452.513 9.97919 453.174 9.15268 454.166 9.15268C454.662 9.15268 454.992 9.31798 456.811 10.6404L462.596 14.9383C463.754 15.7648 464.415 16.426 464.415 17.5831C464.415 19.0709 464.249 19.0709 457.803 22.3769C457.803 24.8564 456.976 52.6273 456.976 58.2476V74.282H465.903L469.043 71.4719C470.862 69.8188 471.027 69.6535 471.688 69.6535C472.68 69.6535 473.506 70.6454 474.333 71.4719L481.937 79.4064C482.763 80.3982 483.259 81.39 483.259 82.2166ZM479.623 118.583C479.623 120.071 478.135 120.402 477.143 120.236H408.542V140.238C408.542 145.197 408.542 153.793 392.673 157.76C390.855 152.14 384.739 146.519 375.151 144.04V143.048C386.392 143.875 391.351 144.205 392.343 144.205C399.285 144.205 399.285 141.395 399.285 136.932C399.285 134.287 399.12 122.716 399.12 120.236H355.646C349.86 120.236 340.768 121.063 334.487 122.22L330.519 115.112C342.917 116.104 354.984 116.269 357.96 116.269H399.12C399.12 112.136 398.624 108.996 397.302 105.194L406.228 106.681C408.708 104.698 409.7 103.706 418.295 94.7796H382.92C377.135 94.7796 367.878 95.4408 361.762 96.7632L357.794 89.6552C370.192 90.647 382.259 90.8123 385.235 90.8123H422.924L429.536 87.0103C431.024 86.1838 432.181 85.5226 433.007 85.5226C433.668 85.5226 434.164 85.8532 435.817 87.1756L440.942 91.4735C441.934 92.3 442.264 93.2918 442.264 93.9531C442.264 96.2673 439.454 96.5979 438.132 96.7632C437.14 96.9285 432.511 97.0938 431.685 97.2591C425.073 100.069 413.997 105.028 409.204 107.177C409.7 107.343 410.361 107.673 410.361 108.5C410.361 108.996 410.195 109.326 408.542 110.979V116.269H458.133L463.754 109.492C464.415 108.665 465.572 107.343 466.398 107.343C467.39 107.343 468.713 108.5 469.374 108.996L477.97 116.104C478.631 116.6 479.623 117.426 479.623 118.583Z" fill="#BEBEBE"/>
</svg>
