<svg width="200" height="65" viewBox="0 0 200 65" fill="none" xmlns="http://www.w3.org/2000/svg">
<path d="M46.76 29.6702C46.76 30.4402 45.99 30.4402 45.64 30.4402H36.12C36.12 34.5002 36.12 38.9802 36.19 42.6202C36.19 45.0002 36.68 56.7602 36.68 59.4202C36.68 61.8702 34.65 61.8702 34.3 61.8702C33.11 61.8702 32.76 60.9602 32.69 60.1902C32.69 59.8402 32.76 52.3502 32.76 49.6202C27.72 51.3702 18.13 53.4702 14.14 54.2402C13.86 55.2902 13.44 56.3402 12.46 56.3402C12.18 56.3402 11.83 56.2702 11.41 55.5002L8.89 50.6702C9.87 50.8102 10.57 50.8802 11.55 50.8802C12.6 50.8802 13.44 50.8802 17.08 50.6002V30.4402C16.94 30.4402 12.74 30.6502 9.66 31.2802L7.98 28.2002C11.62 28.5502 15.96 28.7602 19.6 28.7602H39.06L40.88 26.2402C41.51 25.4002 41.58 25.3302 42 25.3302C42.42 25.3302 42.84 25.6802 43.33 26.0302L45.99 28.5502C46.34 28.8302 46.76 29.2502 46.76 29.6702ZM32.83 42.5502V37.2302H20.23V42.5502H32.83ZM32.83 35.5502V30.4402H20.23V35.5502H32.83ZM32.76 48.7802V46.6802V44.2302H20.23V50.3902C24.64 49.9702 26.74 49.7602 32.76 48.7802ZM56.28 5.10015C56.28 5.87015 55.37 6.50015 53.9 7.48015V8.53016C53.9 16.0202 54.18 49.1302 54.18 55.8502C54.18 59.8402 53.76 62.6402 46.9 64.4602C45.99 61.4502 43.61 59.6302 41.02 58.7202V58.2302C42.14 58.3002 43.4 58.3702 45.15 58.3702C49.63 58.3702 49.7 58.2302 49.98 57.7402C50.19 57.1802 50.19 56.2702 50.19 55.7802C50.19 44.9302 50.26 32.3302 50.33 21.4802H35.35C35.07 23.5802 33.46 23.8602 32.62 23.8602C31.5 23.8602 31.36 23.1602 31.36 22.2502C31.36 21.7602 31.57 19.3102 31.57 18.8202C31.64 16.0202 31.64 13.5702 31.64 11.4702C31.64 4.89015 31.5 3.84015 31.08 1.60015L35.77 4.05016H49.63L50.82 2.51015C51.31 1.88015 51.59 1.81015 51.87 1.81015C52.29 1.81015 52.43 1.88015 53.2 2.44016L55.51 4.05016C55.93 4.33016 56.28 4.61016 56.28 5.10015ZM50.33 11.4702V5.73015H35.28V11.4702H50.33ZM50.33 19.8002V13.1502H35.28V19.8002H50.33ZM24.5 5.24016C24.5 5.80015 24.01 6.15015 22.61 6.92016C22.61 9.16016 22.96 19.0302 22.96 21.0602C22.96 21.6902 22.96 23.6502 20.23 23.6502C18.9 23.6502 18.97 22.5302 19.11 21.4802H4.27V23.5802L4.2 44.7902L4.62 60.4002C4.69 63.1302 3.22 64.3202 1.75 64.3202C0.0699997 64.3202 0 63.1302 0 62.5002C0 59.9802 0.98 23.1602 0.98 15.7402C0.98 10.8402 0.98 5.59016 0 1.04015L5.39 4.05016H18.06L19.18 2.79015C19.6 2.30015 19.81 2.02016 20.3 2.02016C20.72 2.02016 21.21 2.37016 21.49 2.58015L23.87 4.33016C24.36 4.68016 24.5 4.96016 24.5 5.24016ZM19.18 11.4702V5.73015H4.27V11.4702H19.18ZM19.18 19.8002V13.1502H4.27V19.8002H19.18Z" fill="#BEBEBE"/>
<path d="M129.85 56.0602C127.26 57.0402 125.37 58.3002 123.97 60.9602C108.57 54.2402 100.1 40.6602 97.44 27.7102H96.53C95.76 34.0802 94.08 44.5102 84.14 52.9802C77.14 58.8602 70.42 60.7502 67.69 61.5202L67.55 60.6802C89.74 50.8802 91.77 34.3602 92.54 27.7102H81.2C78.75 27.7102 74.9 27.9902 72.24 28.5502L70.56 25.5402C75.81 25.9602 80.92 26.0302 82.18 26.0302H92.75C93.59 17.6302 93.59 12.2402 93.59 9.30015H77.77C75.32 9.30015 71.47 9.58016 68.81 10.1402L67.13 7.13015C72.38 7.55016 77.49 7.62016 78.75 7.62016H117.39L119.98 4.12015C120.05 3.98016 120.61 3.28015 121.03 3.28015C121.52 3.28015 121.94 3.70016 122.29 3.98016L126.28 7.48015C126.7 7.90016 126.98 8.11015 126.98 8.60016C126.98 9.23016 126.35 9.30015 125.93 9.30015H97.58C97.58 11.8902 97.58 17.0002 96.67 26.0302H113.61L115.99 22.6002C116.06 22.3902 116.55 21.6902 117.04 21.6902C117.46 21.6902 118.23 22.3902 118.3 22.4602L122.15 25.8902C122.57 26.3102 122.85 26.5202 122.85 26.9402C122.85 27.6402 122.29 27.7102 121.8 27.7102H98.28C100.52 34.0102 103.88 39.8902 108.57 44.6502C114.59 50.6702 121.31 54.0302 129.78 55.7102L129.85 56.0602Z" fill="#BEBEBE"/>
<path d="M191.31 4.96016C191.31 6.01016 190.26 6.15015 188.23 6.43015C184.17 13.7802 181.86 15.9502 180.04 17.6302L179.55 17.2802C182 12.7302 183.96 6.50015 184.45 3.70016C184.66 2.65015 184.59 1.60015 184.52 0.410156L190.26 3.70016C190.82 4.05015 191.31 4.33016 191.31 4.96016ZM175.07 11.4702C175.07 12.8702 174.16 13.8502 172.83 13.8502C171.08 13.8502 170.8 12.9402 169.96 10.2802C168.7 6.15015 167.3 4.47015 166.11 3.14015L166.46 2.86015C170.24 3.91015 175.07 8.32015 175.07 11.4702ZM199.01 45.7702C199.01 46.4702 198.31 46.5402 197.96 46.5402H179.62C179.76 50.6002 180.04 57.1102 180.04 61.1702C180.04 64.3202 177.59 64.3202 177.17 64.3202C175.42 64.3202 175.42 63.4102 175.42 62.7802C175.42 62.5702 175.49 61.5202 175.49 61.3102C175.56 59.2102 175.7 48.8502 175.7 46.5402H169.4C168 46.5402 163.73 46.6802 160.37 47.3102L158.76 44.3002C162.4 44.5802 166.74 44.8602 170.38 44.8602H175.77C175.84 39.3302 175.84 38.7002 175.91 33.1002H174.37C172.97 33.1002 168.7 33.2402 165.34 33.8702L163.73 30.8602C170.03 31.3502 175 31.4202 175.91 31.4202C175.91 29.7402 175.98 21.4802 175.98 19.6602H172.97C171.57 19.6602 167.3 19.8002 163.94 20.4302L162.33 17.4202C165.97 17.7002 170.31 17.9802 173.95 17.9802H189.28L191.1 15.6702C191.8 14.7602 192.08 14.6902 192.29 14.6902C192.64 14.6902 193.27 15.1802 193.55 15.3902L196.63 17.8402C196.91 18.0502 197.33 18.4002 197.33 18.8902C197.33 19.5902 196.63 19.6602 196.28 19.6602H179.48C179.48 21.3402 179.41 29.5302 179.41 31.4202H187.39L189.35 29.2502C189.84 28.7602 190.12 28.4102 190.47 28.4102C190.82 28.4102 191.45 28.8302 191.8 29.1102L194.46 31.2102C194.74 31.4902 195.23 31.8402 195.23 32.3302C195.23 33.0302 194.46 33.1002 194.11 33.1002H179.41C179.41 38.4202 179.41 39.1202 179.62 44.8602H190.96L192.99 42.2702C193.48 41.6402 193.76 41.3602 194.04 41.3602C194.53 41.3602 195.09 41.7802 195.37 42.0602L198.17 44.5802C198.52 44.9302 199.01 45.2802 199.01 45.7702ZM161.14 16.3002C161.14 17.0002 160.37 17.4202 158.13 18.1202C157.08 19.8702 155.26 22.8802 151.83 27.0802C153.65 27.6402 156.8 29.3902 157.29 29.6702C158.83 30.5102 161 31.9102 161 33.8002C161 34.4302 160.65 36.1802 158.97 36.1802C157.78 36.1802 157.5 35.7602 156.17 33.5902C155.54 32.4702 153.72 29.4602 151.41 27.6402L151.13 27.9202V49.9702C151.13 51.5102 151.27 59.0702 151.27 60.7502C151.27 61.6602 151.27 63.7602 148.68 63.7602C146.86 63.7602 146.86 62.2202 146.86 61.8002C146.86 59.4202 147.28 55.5702 147.35 53.1902C147.56 48.7102 147.49 47.0302 147.49 31.8402C143.57 35.6902 138.95 39.5402 133.77 41.4302L133.63 41.2202C138.25 38.0002 142.45 33.4502 145.6 29.5302C150.15 24.0002 152.25 20.4302 154.63 16.3002H146.44C145.04 16.3002 140.77 16.5102 137.41 17.1402L135.8 14.1302C140.77 14.5502 143.99 14.6202 147.21 14.6202V8.81016C147.21 3.91015 146.3 1.81016 145.81 0.620154L152.32 2.37016C152.95 2.51015 153.37 3.07016 153.37 3.42016C153.37 3.98016 152.74 4.33016 151.06 5.17015V14.6202H154.91L156.59 13.2202C157.08 12.8002 157.15 12.7302 157.43 12.7302C157.78 12.7302 157.85 12.8002 158.41 13.2902L160.44 15.1802C160.79 15.4602 161.14 15.8102 161.14 16.3002Z" fill="#BEBEBE"/>
</svg>
