<svg width="297" height="98" viewBox="0 0 297 98" fill="none" xmlns="http://www.w3.org/2000/svg">
<path d="M95.0315 32.9838C95.0315 33.9353 94.1887 34.041 93.4512 34.041H72.2746C72.2746 35.4153 72.4853 41.4412 72.4853 42.6041C72.4853 43.767 72.3799 44.6127 71.5371 45.4585C70.5889 46.1985 69.4299 46.5156 68.6924 46.5156C66.6907 46.5156 66.796 45.3528 66.796 43.767H48.5694C48.5694 44.8242 48.5694 45.4585 48.0426 46.0928C47.1997 47.0442 45.4087 47.9957 44.4604 47.9957C42.7747 47.9957 42.7747 46.3042 42.7747 45.8813C42.7747 43.9784 42.9855 35.7325 42.9855 34.041H28.0248V51.1672H77.437L80.071 47.7843C80.7031 46.9385 81.0192 46.4099 81.6513 46.4099C81.9674 46.4099 82.2834 46.5156 83.5477 47.5728L87.8673 50.9558C88.3941 51.3786 88.9209 51.8015 88.9209 52.5415C88.9209 53.493 87.9727 53.7044 87.2352 53.7044H28.0248C27.9195 54.7616 27.9195 55.3959 26.9713 56.2416C26.1284 56.8759 24.8641 57.5103 23.9159 57.5103C21.7034 57.5103 21.7034 55.9245 21.7034 55.1845C21.7034 54.233 22.1249 49.8986 22.1249 48.9471C22.2302 45.4585 22.2302 45.0356 22.1249 34.041H16.0142C12.3267 34.041 6.42675 34.4639 2.4232 35.3096L0 30.7638C7.90174 31.3981 15.4874 31.5038 17.4892 31.5038H22.1249C22.1249 24.2093 21.7034 23.4693 20.7552 21.1435L28.973 23.2578C29.9212 23.4693 30.7641 23.6807 30.7641 24.8436C30.7641 26.0065 30.0266 26.4293 27.9195 27.8037V31.5038H42.8801C42.6694 25.9008 42.564 24.9493 41.5105 22.2006L49.8336 24.315C50.6765 24.5264 51.5193 24.7379 51.5193 25.6893C51.5193 26.7465 50.5711 27.2751 48.5694 28.3323V31.5038H66.9014C66.9014 27.2751 66.6907 25.6893 65.5318 22.3064L73.3281 24.2093C74.5924 24.5264 75.3299 24.7379 75.3299 25.795C75.3299 26.8522 74.5924 27.2751 72.3799 28.438C72.2746 30.0237 72.2746 30.5523 72.2746 31.5038H82.9156L86.0763 27.8037C86.6031 27.0636 87.0245 26.5351 87.6566 26.5351C88.078 26.5351 88.3941 26.6408 89.6584 27.698L93.978 31.2923C94.5048 31.8209 95.0315 32.2438 95.0315 32.9838ZM66.9014 41.2298V34.041H48.5694V41.2298H66.9014ZM91.7655 14.0604C91.7655 15.1176 90.6066 15.1176 90.1852 15.1176H62.4764C62.4764 16.069 62.7925 20.2977 62.7925 21.1435C62.7925 23.4693 60.3693 24.5264 58.5782 24.5264C57.5246 24.5264 56.9979 23.6807 56.8925 22.835V15.1176H38.8766C39.0873 20.192 39.0873 21.1435 38.7712 21.9892C38.0337 23.8921 36.2426 24.1036 35.2944 24.1036C33.5034 24.1036 33.082 22.835 33.082 22.5178C32.9766 21.7778 33.082 16.2805 33.082 15.1176H19.1749C15.3821 15.1176 9.58745 15.6462 5.5839 16.3862L3.05534 11.8403C10.9571 12.4746 18.6481 12.5804 20.6499 12.5804H33.082C33.082 4.863 32.3444 2.96009 31.5016 0.422871L40.9837 3.17152C41.6158 3.38296 42.3533 3.59439 42.3533 4.44013C42.3533 5.28587 42.0373 5.81446 38.8766 6.97734C38.7712 8.35167 38.7712 9.0917 38.7712 12.5804H56.8925C56.8925 6.97735 56.3657 3.27724 55.5229 0.211434L63.6353 2.22006C64.3728 2.4315 65.2157 2.64293 65.2157 3.59439C65.2157 4.863 63.1086 5.92017 62.3711 6.34304V12.5804H79.7549L82.9156 8.45739C83.8638 7.18879 83.9691 7.08306 84.6013 7.08306C84.9174 7.08306 85.2334 7.08306 86.4977 8.24596L90.8173 12.3689C91.6602 13.2147 91.7655 13.6375 91.7655 14.0604ZM94.3994 84.8911C90.2905 86.6882 87.2352 88.6969 84.4959 92.0798C71.8531 86.4768 57.5247 76.9622 51.5193 67.5534H50.5711C50.5711 69.0334 50.4658 76.0108 50.4658 77.5965C50.4658 78.3366 51.0979 91.1284 51.0979 91.9741C51.0979 96.52 46.989 96.52 46.6729 96.52C44.6712 96.52 44.3551 95.1456 44.3551 94.2999C44.3551 93.3484 44.7765 89.014 44.7765 88.0626C44.9872 82.7767 44.9872 81.7195 45.0926 67.5534H44.3551C36.0319 77.2794 21.7035 89.1198 1.68572 94.7228V93.9827C13.9071 89.014 28.8677 76.3279 36.1373 67.5534H19.491C17.3838 67.5534 10.9571 67.8706 5.89997 68.822L3.47676 64.2762C8.84995 64.699 15.4874 65.0162 20.9659 65.0162H44.9872C44.8819 60.0475 44.6712 58.4617 43.723 55.3959L52.4675 57.7217C53.205 57.9331 53.8372 58.356 53.8372 59.096C53.8372 60.1532 53.5211 60.3646 50.4658 62.3732C50.5711 63.219 50.5711 63.4304 50.5711 65.0162H79.1227L82.9156 60.6818C83.8638 59.5189 84.1799 59.4132 84.6013 59.4132C85.0227 59.4132 85.4441 59.5189 86.4977 60.5761L90.8173 64.9105C90.9227 65.0162 91.6602 65.7562 91.6602 66.3905C91.6602 67.5534 90.6066 67.5534 90.0798 67.5534H53.0997C62.4764 76.7508 78.7013 84.7853 94.3994 84.4682V84.8911Z" fill="#9E9DA0"/>
<path d="M192.381 19.8749C192.381 20.6149 191.433 21.3549 189.115 23.0464C189.115 33.4067 189.01 43.6613 189.115 54.0216C189.115 55.2902 190.168 76.1165 190.168 84.151V85.3139C190.168 86.2654 190.168 89.3312 186.06 89.3312C184.268 89.3312 183.742 88.4854 183.742 86.5825C183.742 85.5254 183.847 80.7681 183.847 79.7109H160.985C160.985 82.1424 160.985 88.9083 160.879 89.3312C160.563 91.9741 158.351 93.7713 156.349 93.7713C155.085 93.7713 154.242 92.8199 154.242 91.7627V90.9169C154.979 82.4596 154.979 63.8533 154.979 54.6559C154.979 47.4671 154.979 25.055 154.663 19.0291C154.558 16.5976 154.347 15.1176 154.242 13.7433L162.354 18.2891H182.267L184.269 15.2233C184.69 14.6947 185.217 14.0604 185.744 14.0604C186.27 14.0604 186.902 14.4833 187.535 15.0119L191.538 18.2891C192.065 18.712 192.381 19.3463 192.381 19.8749ZM183.742 77.1737V20.8263H160.985V77.1737H183.742ZM146.129 26.3236C146.129 28.0151 141.915 29.7066 141.599 29.8123C140.756 42.9213 138.438 56.0302 133.171 68.082C135.278 69.2449 146.024 75.6936 146.024 81.7195C146.024 83.9396 144.865 86.1597 143.074 86.1597C140.756 86.1597 139.281 83.8339 138.333 82.2481C136.542 79.3937 134.119 75.9051 131.063 72.6278C124.215 85.3139 113.89 93.137 99.9833 96.7314L99.6673 95.9914C111.362 90.0712 121.371 81.0852 126.849 69.2449C123.583 67.0248 117.472 64.1704 115.365 63.1133C114.522 67.4477 114.206 69.562 110.203 69.562C109.676 69.562 107.253 69.562 107.253 67.4477C107.253 66.7077 109.781 58.2503 110.203 56.4531C112.31 47.6785 114.733 36.1553 116.735 26.0065C110.94 26.0065 105.567 26.5351 102.406 27.1694L99.878 22.6235C105.462 23.1521 110.414 23.3635 117.262 23.4693C119.685 10.3603 120.106 7.18879 120.106 2.96009C120.106 1.69148 120.001 0.845741 119.896 0L128.535 3.17152C129.167 3.48867 130.326 4.01726 130.326 4.863C130.326 6.23733 127.692 6.97734 126.217 7.40022C125.374 10.7832 124.215 15.5405 122.635 23.4693H134.119L136.331 21.3549C137.385 20.2977 138.122 20.0863 138.649 20.0863C139.176 20.0863 139.703 20.4035 140.124 20.7206L145.181 24.6321C145.919 25.2665 146.129 25.795 146.129 26.3236ZM135.594 26.0065H122.108C121.16 30.9752 119.896 37.2125 119.474 39.7497C117.473 50.8501 117.367 52.0129 115.471 61.9504C119.685 62.9018 124.742 64.1704 128.324 65.6505C133.908 50.2158 134.751 37.6354 135.594 26.0065Z" fill="#9E9DA0"/>
<path d="M293.523 14.4833C293.523 15.4347 292.575 15.6462 291.943 15.6462H263.181C263.181 20.8263 263.181 20.8263 262.654 21.6721C261.916 22.835 260.125 23.6807 258.966 23.6807C257.281 23.6807 257.175 21.9892 257.175 21.2492C257.175 20.4035 257.281 16.3862 257.281 15.6462H238.211C238.211 16.8091 238.316 21.7778 238.106 22.4121C237.79 23.2578 237.052 25.1607 234.524 25.1607C233.365 25.1607 232.522 23.9978 232.522 22.7292V15.6462H217.983C214.295 15.6462 208.395 16.069 204.392 16.8091L201.968 12.2632C209.87 12.8975 217.456 13.109 219.458 13.109H232.522C232.522 5.81446 232.416 3.91154 231.468 0.634304L239.054 2.85437C239.897 3.0658 241.266 3.38296 241.266 4.44013C241.266 5.28587 240.845 5.4973 238 7.08306C238 8.03452 238.106 12.2632 238.106 13.109H257.281C257.281 4.33442 256.648 2.22006 256.227 0.528587L264.445 2.74865C265.182 2.96009 266.236 3.27724 266.236 4.33441C266.236 5.18015 265.604 5.70874 262.97 7.18878C262.97 8.98598 262.97 9.93743 263.075 13.109H280.986L284.779 8.5631C285.411 7.82309 285.832 7.18878 286.57 7.18878C287.202 7.18878 287.729 7.71737 288.255 8.35167L292.575 12.8975C293.207 13.5318 293.523 13.9547 293.523 14.4833ZM297 57.4045C291.627 58.6731 289.836 60.7875 288.045 63.3247C275.823 57.9331 267.5 46.7271 263.391 40.2783C261.179 36.8954 260.652 34.2524 260.02 31.7152H241.899C238.211 31.7152 232.416 32.1381 228.413 32.9838L225.884 28.438C233.786 29.0723 241.477 29.178 243.374 29.178H259.388L261.389 27.3808C262.127 26.7465 262.443 26.4293 263.075 26.4293C263.391 26.4293 263.707 26.6408 264.761 27.698L267.5 30.658C268.027 31.1866 268.238 31.5038 268.238 31.9266C268.238 32.7724 267.184 33.1953 266.552 33.5124C265.393 33.9353 264.129 34.3581 263.075 34.6753C267.711 45.4585 282.355 55.2902 297 56.5588V57.4045ZM237.895 38.5868C237.895 39.8554 237.474 39.8554 233.575 40.384C223.461 52.8587 215.665 60.5761 200.283 68.1877L199.861 67.5534C208.711 60.7875 216.613 52.8587 223.356 43.9784C225.252 41.5469 228.413 37.3182 229.993 32.7724L236.631 37.0011C237.263 37.424 237.895 37.8468 237.895 38.5868ZM270.345 56.3474C270.345 57.0874 270.134 57.2988 268.238 58.7789C268.027 80.0281 267.184 94.2999 252.329 96.8371C251.697 94.8285 251.065 93.9827 249.59 93.0313C248.22 92.1856 244.427 89.8598 241.899 88.8026V88.1683C243.479 88.274 250.643 88.6969 252.013 88.6969C256.648 88.6969 260.02 86.794 261.495 79.7109C262.97 72.3107 262.97 60.6818 262.97 57.616H243.374C238.843 74.0022 233.786 92.397 205.234 98L205.129 97.26C209.027 95.6742 219.984 91.1284 227.886 80.6624C232.522 74.5308 235.788 67.0248 237.157 57.616C235.788 57.616 229.677 57.9331 225.041 58.7789L222.513 54.233C230.415 54.8673 238.106 55.0788 240.002 55.0788H261.706L263.286 52.8587C263.391 52.753 264.023 51.8015 264.761 51.8015C265.393 51.8015 266.025 52.3301 266.447 52.6473L269.291 54.973C269.923 55.5016 270.345 55.8188 270.345 56.3474Z" fill="#9E9DA0"/>
</svg>
