<svg width="360" height="71" viewBox="0 0 360 71" fill="none" xmlns="http://www.w3.org/2000/svg">
<path d="M63.6325 5.32833C63.6325 6.08952 62.5656 6.85071 61.1939 7.68802C61.2701 9.51487 61.3463 17.3551 61.3463 18.9536C61.4225 20.6282 61.6511 28.6969 61.6511 29.9148C61.6511 33.9491 60.8891 35.0908 59.8984 36.0043C57.7646 38.0595 55.4022 38.7445 54.4115 39.049C53.497 36.7655 52.8874 35.3953 50.0677 33.4923V32.8834C50.9822 33.0356 51.8967 33.1879 53.5732 33.1879C56.3167 33.1879 56.6215 32.8073 57.0025 32.1983C57.3836 31.5894 57.3836 28.3162 57.3836 26.3372C57.3836 18.9536 57.3074 13.3969 57.1549 9.66711C57.0025 4.7955 56.3929 3.65371 55.7832 2.43581L62.5656 4.33879C63.1753 4.49103 63.6325 4.87162 63.6325 5.32833ZM69.6528 63.4832C69.2718 63.5593 64.8518 64.8533 63.2515 68.1264C47.3243 63.331 38.1795 52.3698 35.8171 45.2908H32.6164C31.7019 46.3564 30.4064 47.7266 28.044 49.7057V62.2653C36.8078 59.9056 39.5512 59.1444 43.2091 57.7743L43.4378 58.3071C37.5699 61.9608 27.3582 66.0712 20.9568 68.2026C20.4996 69.2682 20.0423 70.5623 19.1279 70.5623C18.5944 70.5623 18.2134 70.0294 17.9848 69.6488L15.0889 64.625C17.5275 64.8533 18.8992 64.625 24.0051 63.2548V52.9788C19.3565 56.4041 8.83997 62.722 0 64.625V64.016C6.02032 61.9608 20.9568 51.837 27.5106 45.2908H11.8882C9.44962 45.2908 5.18205 45.5952 2.05758 46.2042L0.228619 42.9311C4.49619 43.2356 8.68755 43.4639 12.9551 43.4639H35.5885C35.5885 43.0072 35.5123 38.1356 35.2837 36.3087L40.923 38.2878C41.9898 38.6684 42.3709 38.8207 42.3709 39.3535C42.3709 40.343 40.9229 40.7998 39.7036 41.1804V43.4639H58.8315L61.1939 40.4953C61.7274 39.8102 61.956 39.5819 62.337 39.5819C62.718 39.5819 63.4039 40.0386 63.7087 40.343L67.2142 43.3117C67.5953 43.6162 67.9763 43.9967 67.9763 44.4535C67.9763 45.2147 67.2904 45.2908 66.8332 45.2908H36.7316C38.1033 47.8788 40.4657 50.6191 43.6664 53.3594C43.9712 53.2071 49.8391 49.7818 51.0584 46.2042L55.707 50.2385C55.7832 50.3146 56.3167 50.7713 56.3167 51.0758C56.3167 51.4564 55.8594 52.1415 54.5639 52.1415C54.1067 52.1415 53.8019 52.1415 52.6588 51.9892C51.4395 52.3698 45.8002 53.8161 44.6571 54.1206C52.8874 60.5146 61.6511 63.1787 69.6528 62.7981V63.4832ZM50.1439 7.23131C50.1439 7.84026 49.4581 8.29697 48.0864 9.28652C48.0864 12.5596 48.0864 18.3447 48.2388 22.5312C48.315 23.3685 48.4674 26.7939 48.4674 27.4789C48.4674 29.6103 46.3336 30.2192 45.4191 30.2192C44.1236 30.2192 44.1236 29.3058 44.1236 28.9252C44.1236 28.2401 44.1998 25.1954 44.1998 24.5864C44.276 19.7148 44.3522 17.7357 44.3522 15.6044C44.3522 9.74323 44.1998 8.44921 43.2091 4.64326L49.0008 6.24176C49.8391 6.47012 50.1439 6.69847 50.1439 7.23131ZM39.7036 17.4312C39.7036 18.1163 39.0178 18.1924 38.5605 18.1924H22.862V24.0536H30.8637L32.2354 22.4551C32.464 22.2267 32.6926 21.9223 33.0737 21.9223C33.3785 21.9223 33.6071 22.0745 33.9881 22.379L36.2743 24.0536C36.5792 24.282 36.884 24.6625 36.884 25.0431C36.884 25.8043 35.2837 26.6416 34.8264 26.87C34.8264 34.1774 34.7502 34.8625 34.1406 35.7759C33.0737 37.2983 31.3209 38.2117 29.492 38.8207C28.8061 36.2326 27.5106 34.7864 26.9009 34.1013V33.4923C27.8154 33.5685 30.5588 33.7207 30.8637 32.8073C31.0923 32.1983 31.0923 26.7177 31.0923 25.8804H22.862C22.9382 28.773 23.0144 32.7311 23.1668 35.5475C23.1668 36.0043 23.243 37.8311 23.243 38.2117C23.243 39.9625 21.2616 40.4192 20.4234 40.4192C19.0516 40.4192 18.9754 39.7341 18.9754 39.049C18.9754 37.6789 19.1279 34.3296 19.1279 33.5685C19.2041 30.3715 19.1279 29.9147 19.2041 25.8804H11.8882V31.2849C11.8882 32.0461 12.0406 36.0043 12.0406 36.461C12.0406 38.9729 9.75444 39.1251 9.221 39.1251C8.68755 39.1251 7.84928 39.049 7.84928 37.9834C7.84928 36.6893 8.0779 34.6341 8.0779 33.3401V28.6207C8.0779 24.8909 8.00169 24.2058 7.54445 22.4551L12.1168 24.0536H19.2803V18.1924H12.4979C10.0593 18.1924 5.7917 18.4969 2.66723 19.1059L0.914479 15.8327C5.10584 16.1372 9.29721 16.3656 13.5648 16.3656H19.2803V10.0477H11.5072C9.83065 12.4835 8.15411 14.3104 7.16342 15.376L6.55377 15.2999C7.77307 12.788 10.4403 6.16564 10.0593 2.51192L15.0889 3.80595C15.6224 3.95818 16.0034 4.11043 16.0034 4.64326C16.0034 5.09998 15.3937 5.78505 13.7934 6.62235C13.4124 7.23131 13.2599 7.45966 12.8027 8.22085H19.2803C19.2803 4.41491 19.2803 4.26267 18.2896 1.37015L23.624 2.58805C24.1575 2.74029 24.8433 2.81641 24.8433 3.42536C24.8433 4.18655 23.9289 4.94774 22.9382 5.86117V8.22085H29.3395L30.7875 6.47012C31.1685 5.93728 31.5495 5.55669 32.0068 5.55669C32.464 5.55669 32.9975 5.93728 33.3785 6.31788L35.4361 8.06862C35.8933 8.52533 36.1981 8.75369 36.1981 9.28652C36.1981 9.97159 35.5885 10.0477 35.055 10.0477H22.862V16.3656H32.1592L34.1406 14.3104C34.674 13.7775 35.055 13.3208 35.4361 13.3208C35.7409 13.3208 36.503 13.9298 36.7316 14.1581L38.9416 16.2133C39.3988 16.6701 39.7036 16.8984 39.7036 17.4312Z" fill="#BEBEBE"/>
<path d="M138.848 23.9775C138.848 24.6625 138.239 24.8148 137.705 24.8148H87.0279C86.9517 32.3506 86.8755 35.7759 86.7231 37.9072H112.862L114.157 36.0804C114.539 35.5476 114.843 35.2431 115.224 35.2431C115.605 35.2431 116.215 35.6237 116.52 35.852L119.263 37.6789C119.721 37.9834 120.178 38.4401 120.178 38.8968C120.178 39.5057 119.873 39.658 117.739 41.3326C117.815 52.3698 117.739 53.5877 118.044 59.6011C118.044 60.3623 118.349 67.5175 118.349 67.8981C118.349 69.8011 116.215 70.5623 115.301 70.5623C113.167 70.5623 113.167 68.6593 113.167 67.7458C113.167 65.2339 113.472 53.9683 113.472 51.6848C113.472 47.7266 113.472 43.6923 113.395 39.7341H86.5707C84.7417 57.6982 76.6638 65.0056 71.6342 68.8115L71.2532 68.507C80.3218 56.328 82.989 47.4221 82.989 24.3581C82.989 17.2029 82.5317 8.98205 82.1507 6.08952C81.9983 4.87162 81.7697 4.11043 81.2362 2.81641L88.2472 4.71939C88.8569 4.87163 89.4666 5.02386 89.4666 5.86117C89.4666 6.47012 89.2379 6.62236 87.2566 7.91638C87.2566 9.28652 87.1041 20.8566 87.1041 22.9879H107.832C107.832 20.6282 107.832 12.3313 107.528 6.08952C107.451 3.72984 107.223 2.74029 106.918 1.44627L113.319 3.42536C114.462 3.80596 114.539 4.11043 114.539 4.49103C114.539 5.1761 112.862 6.39399 112.1 7.00294C111.947 9.51487 112.1 20.7044 112.1 22.9879H128.256L131.228 19.2581C131.456 18.9536 131.99 18.3447 132.371 18.3447C132.828 18.3447 133.438 18.8775 133.819 19.182L138.163 22.8357C138.544 23.2163 138.848 23.5208 138.848 23.9775Z" fill="#BEBEBE"/>
<path d="M215.207 47.9549C215.207 48.64 214.522 48.7922 214.064 48.7922H155.08C152.718 48.7922 148.374 49.0206 145.326 49.6296L143.497 46.3564C147.307 46.6609 150.737 46.8131 153.785 46.8893C153.709 38.4401 153.404 27.7834 153.023 19.4103C152.642 11.8746 152.185 10.5044 151.346 7.84026L156.528 10.5044C157.443 9.89546 162.625 6.24176 163.539 2.81641L168.721 7.00294C169.026 7.2313 169.179 7.61191 169.179 7.9925C169.179 8.82981 168.569 8.8298 167.959 8.8298C167.502 8.8298 165.445 8.67757 165.063 8.67757C162.93 9.51487 158.434 11.1134 156.681 11.5701C156.605 13.0163 156.833 19.5626 156.833 20.9327H163.006L164.225 19.3342C164.53 18.8775 164.911 18.3447 165.368 18.3447C165.826 18.3447 166.359 18.8775 166.74 19.2581L168.112 20.6282C168.417 20.9327 168.874 21.4655 168.874 21.9223C168.874 22.6073 168.264 22.7596 167.731 22.7596H156.833C156.986 30.3715 157.062 31.2088 157.138 33.6446H162.549L163.92 31.6655C164.225 31.2088 164.606 30.6759 165.14 30.6759C165.597 30.6759 166.054 31.2088 166.359 31.5894L167.959 33.5685C168.264 33.949 168.569 34.3297 168.569 34.6341C168.569 35.3192 168.036 35.4714 167.426 35.4714H157.138C157.214 37.2983 157.443 45.2908 157.519 46.9654H180.533C180.686 42.7788 181.143 36.2326 181.296 32.1222C181.448 27.7834 181.448 25.1193 181.448 22.6073H176.571C176.418 23.2924 175.656 24.3581 173.827 24.3581C173.065 24.3581 172.608 24.2819 172.608 22.9879C172.608 21.6939 172.76 19.7909 172.76 18.573C172.913 13.9298 172.837 9.05816 172.837 7.68802C172.837 3.65371 172.684 2.89253 172.151 1.06567L178.171 2.66417C178.476 2.74029 179.543 3.04477 179.543 3.88207C179.543 4.56714 178.628 5.02386 176.876 5.86117C176.876 6.69847 176.876 7.07906 176.799 10.885H181.905L182.972 9.05816C183.505 8.06861 183.81 7.9925 184.115 7.9925C184.572 7.9925 185.106 8.44921 185.487 8.8298L187.163 10.6567C187.773 11.3417 187.925 11.5701 187.925 11.9507C187.925 12.6358 187.316 12.7119 186.782 12.7119H176.723C176.723 13.4731 176.647 15.5283 176.647 16.1372V20.7805H181.067L182.058 19.4103C182.515 18.8014 182.743 18.4208 183.201 18.4208C183.734 18.4208 184.039 18.7253 184.725 19.2581L186.859 21.0849C187.544 21.6939 187.621 21.9984 187.621 22.2267C187.621 22.6834 187.316 22.9118 187.011 23.1402C186.782 23.2924 185.487 23.9775 185.258 24.1297C185.182 25.1193 184.496 43.0833 184.268 46.9654H197.909C197.985 45.2908 198.061 37.2983 198.137 35.9281H193.641C192.422 35.9281 190.669 36.0804 189.45 36.3087L188.688 33.8729C190.059 33.9491 192.955 34.1013 194.098 34.1013H198.137C198.137 32.4267 198.29 24.8148 198.29 23.2163H194.479C193.26 23.2163 191.507 23.3685 190.288 23.673L189.526 21.1611C190.898 21.2372 193.793 21.3894 194.936 21.3894H198.366C198.442 18.7253 198.442 18.4969 198.442 15.6805C198.442 12.8641 198.518 12.3313 198.594 11.1134H195.394C194.098 11.1134 192.345 11.2656 191.126 11.494L190.364 8.98205C191.736 9.13428 194.708 9.28652 195.851 9.28652H197.604L199.128 7.61189C199.89 6.77458 200.042 6.54623 200.576 6.54623C201.033 6.54623 201.414 6.85071 201.719 7.07906L204.386 9.05816C205.072 9.59099 205.301 10.0477 205.301 10.4283C205.301 11.494 203.167 12.2552 202.481 12.5596C202.405 13.0925 202.1 31.6655 202.024 35.2431C201.947 37.146 201.795 45.2908 201.719 46.9654H206.749L208.806 43.9206C209.111 43.4639 209.568 43.0072 210.025 43.0072C210.483 43.0072 211.016 43.4639 211.473 43.8445L214.522 46.8131C214.903 47.1176 215.207 47.4982 215.207 47.9549ZM177.866 29.458C177.866 30.2953 176.647 30.7521 175.123 31.361C175.047 32.9595 174.97 40.2669 174.818 41.6371C174.589 43.3878 172.837 44.2251 171.77 44.2251C171.008 44.2251 170.779 43.6923 170.779 43.0833C170.779 41.1804 171.084 38.1356 171.16 36.3087C171.236 34.1013 171.312 31.2088 171.312 29.9148C171.312 27.9357 171.236 27.3267 171.008 26.3372L176.723 28.3924C177.104 28.5446 177.866 28.8491 177.866 29.458ZM205.453 66.7563C205.453 68.6593 204.31 69.2682 203.243 69.2682C201.795 69.2682 201.414 68.8115 197.451 64.625C195.622 62.6459 189.069 56.7847 183.048 53.8161L183.201 53.3594C190.745 55.6429 205.453 60.6668 205.453 66.7563ZM171.998 56.0235C171.998 56.7847 170.855 57.0131 170.474 57.0892C170.017 57.1653 167.959 57.3176 167.578 57.3937C161.71 62.5698 153.556 67.213 144.335 69.725L144.259 69.116C158.891 61.8086 164.225 53.74 165.292 51.9892L170.855 54.8818C171.312 55.1101 171.998 55.5668 171.998 56.0235Z" fill="#BEBEBE"/>
<path d="M273.429 55.4907C273.429 56.2519 272.21 57.0892 270.991 57.8504C271.067 61.0474 271.143 63.0265 271.219 64.3966C271.219 64.7011 271.448 66.6802 271.448 67.6697C271.448 68.2787 271.219 69.0399 270.61 69.4205C270 69.9533 268.933 70.3339 268.476 70.3339C266.952 70.3339 266.952 69.116 267.028 67.822H237.003C237.155 70.5623 233.726 70.7906 233.649 70.7906C232.735 70.7906 232.354 70.0294 232.354 69.116C232.354 68.5832 232.43 66.3757 232.506 65.919C232.583 62.1131 232.964 49.8579 232.964 42.5505C232.964 39.5819 232.964 36.6132 232.583 34.7864C232.049 32.5789 232.049 32.2744 231.897 31.6655L237.079 34.6341H263.065L264.894 32.7311C265.351 32.1983 265.428 32.1222 265.656 32.1222C265.961 32.1222 266.723 32.5789 266.952 32.7311L270 34.8625C270.457 35.167 270.762 35.4714 270.762 36.0043C270.762 36.3849 270.457 36.6893 270.229 36.8416C269.924 36.9938 268.4 37.755 268.171 37.9072C268.171 38.7446 268.476 46.6609 268.476 46.8131C268.476 48.7922 267.333 49.934 265.275 49.934C264.056 49.934 264.056 49.4012 264.056 47.4982H237.003V54.2728H266.418L267.79 52.8266C268.171 52.446 268.476 52.1415 268.857 52.1415C269.238 52.1415 269.695 52.446 270.076 52.6743L272.667 54.5773C273.429 55.1101 273.429 55.3385 273.429 55.4907ZM264.132 45.6714V36.461H237.003V45.6714H264.132ZM267.028 65.9951V56.0997H237.003V65.9951H267.028ZM284.098 11.1895C284.098 11.9507 283.412 12.0268 282.955 12.0268H262.684C265.58 13.2447 270.381 15.2238 270.381 18.8014C270.381 20.1715 269.543 21.4655 267.942 21.4655C266.113 21.4655 265.885 20.6282 265.199 18.4969C264.056 14.9193 261.922 12.7119 261.084 12.0268H257.35C253.844 15.376 251.939 16.5178 250.415 17.5074L250.034 17.4312C257.35 8.37309 259.102 2.66417 259.255 0.3806L265.123 3.88207C265.656 4.18655 265.732 4.41491 265.732 4.56715C265.732 5.48058 265.351 5.55669 262.532 6.08952C261.541 7.53579 260.779 8.44921 259.102 10.1999H274.191L277.316 7.00294C278.154 6.16564 278.23 6.08952 278.535 6.08952C278.992 6.08952 279.526 6.54623 279.907 6.85071L283.336 10.0477C283.793 10.5044 284.098 10.7328 284.098 11.1895ZM285.013 29.3058C285.013 29.458 284.86 30.8282 283.412 30.8282C282.955 30.8282 281.126 30.7521 280.745 30.7521C279.678 31.361 279.221 31.5894 276.782 32.7311C275.334 33.4162 275.03 33.6446 274.42 34.1013L274.191 33.7968C275.334 31.8938 275.334 31.8177 276.706 27.5551H228.467C228.086 29.3819 225.572 36.3087 220.618 36.3087C219.932 36.3087 218.103 36.2326 218.103 34.1774C218.103 32.0461 219.627 31.1327 220.618 30.5998C224.886 28.2401 227.4 24.5103 227.705 21.6939L228.391 21.9223C228.696 24.1297 228.696 24.5103 228.696 25.7282H249.653C249.272 19.5626 248.891 18.8014 248.129 17.4312L255.216 19.1059C255.597 19.182 256.054 19.3342 256.054 19.8671C256.054 20.1715 255.902 20.5521 255.673 20.7805C255.216 21.2372 254.225 21.77 253.692 22.1506C253.692 23.2163 253.692 24.8148 253.768 25.7282H275.487L278.307 23.9014C279.069 23.3685 279.221 23.2163 279.602 23.2163C280.212 23.2163 280.517 23.5208 280.669 23.7491L284.86 28.6207C285.013 28.8491 285.013 29.0774 285.013 29.3058ZM250.948 11.2656C250.948 11.9507 250.339 12.0268 249.805 12.0268H234.716C238.984 14.5387 241.346 15.9089 241.346 19.1059C241.346 21.2372 240.051 21.9984 238.908 21.9984C237.155 21.9984 236.926 21.0849 236.24 18.573C236.164 18.2685 235.021 14.1581 233.268 12.0268H227.934C224.428 16.2895 220.694 20.3999 216.732 22.8357L216.503 22.5312C222.752 15.2999 228.848 4.64325 228.848 0L235.25 3.34924C235.478 3.50147 235.707 3.72984 235.707 4.11044C235.707 4.64327 235.097 5.1761 234.335 5.40445C233.04 5.86117 233.04 5.86117 232.202 6.31788C231.516 7.38354 230.982 8.14473 229.382 10.1999H242.947L245.004 7.9925C245.766 7.15519 245.843 7.07906 246.3 7.07906C246.681 7.07906 246.909 7.23132 247.671 7.84026L250.186 10.0477C250.262 10.0477 250.948 10.6566 250.948 11.2656Z" fill="#BEBEBE"/>
<path d="M360 66.4518C360 67.1369 359.314 67.213 358.857 67.213H316.486C313.819 67.213 309.627 67.5175 306.732 68.1264L304.903 64.8533C310.618 65.3101 316.181 65.3862 317.553 65.3862H333.404V51.4564H328.908C326.164 51.4564 321.973 51.7609 319.077 52.2937L317.248 49.0206C322.964 49.4773 328.527 49.6296 329.975 49.6296H333.404V36.9177H323.649C323.649 37.9834 323.649 38.9729 323.497 39.4296C323.268 39.9625 322.202 41.2565 320.601 41.2565C319.001 41.2565 319.001 40.1147 319.001 39.5819C319.001 39.2774 319.001 39.2013 319.077 38.2878C319.61 30.5998 319.687 15.2238 319.687 14.2343C319.687 9.13428 319.534 6.31788 318.848 3.72984L325.097 6.47012H346.511L348.493 4.49103C349.026 3.95819 349.407 3.65371 349.788 3.65371C350.169 3.65371 350.779 4.18655 351.084 4.41491L354.208 6.77459C354.589 7.07907 354.97 7.53579 354.97 7.9925C354.97 8.75369 353.218 9.66711 352.532 10.0477C352.456 10.8089 352.456 28.0879 352.532 30.9804C352.532 31.97 352.837 36.3087 352.837 37.2222C352.837 38.8968 351.084 40.4192 349.712 40.4192C347.883 40.4192 347.959 39.5057 348.112 36.9177H337.671V49.6296H346.13L348.95 46.6609C349.255 46.3564 349.788 45.7475 350.169 45.7475C350.55 45.7475 351.084 46.2042 351.541 46.5848L355.047 49.4773C355.428 49.7818 355.809 50.0863 355.809 50.6191C355.809 51.3042 355.199 51.4564 354.666 51.4564H337.671V65.3862H350.474L353.065 62.4175C353.827 61.5802 353.903 61.5041 354.285 61.5041C354.666 61.5041 354.818 61.5802 355.656 62.2653L359.238 65.2339C359.619 65.5384 360 65.8429 360 66.4518ZM348.112 20.6282V8.29697H337.671V20.6282H348.112ZM348.112 35.0908V22.4551H337.671V35.0908H348.112ZM333.404 20.6282V8.29697H323.573V20.6282H333.404ZM333.404 35.0908V22.4551H323.573V35.0908H333.404ZM318.163 44.9102C313.743 48.4878 302.693 54.8056 294.843 58.5355V59.2967C294.843 60.0579 294.843 61.3519 293.548 61.3519C292.862 61.3519 292.557 60.8952 292.252 60.2101L288.975 53.5116C289.585 53.5877 289.966 53.6638 290.576 53.6638C292.252 53.6638 293.624 53.4355 301.168 50.8475V31.1327C300.025 31.1327 295.605 31.361 292.329 31.97L290.5 28.6968C293.472 28.9252 298.196 29.1536 301.168 29.2297V10.3522C298.501 10.3522 294.234 10.6566 291.338 11.2656L289.509 7.9925C293.472 8.29698 298.273 8.52533 302.235 8.52533H309.399L311.533 6.08952C312.142 5.32833 312.371 5.1761 312.752 5.1761C313.209 5.1761 313.819 5.70893 314.124 5.93729L316.715 8.37309C317.172 8.8298 317.477 9.05816 317.477 9.51487C317.477 10.3522 316.638 10.3522 316.334 10.3522H305.436V29.3058H308.713L311.609 26.3372C312.142 25.7282 312.523 25.4237 312.904 25.4237C313.362 25.4237 313.666 25.6521 314.2 26.261L317.019 29.1536C317.477 29.6103 317.705 29.9148 317.705 30.2953C317.705 31.0565 316.867 31.1327 316.562 31.1327H305.436V49.249C306.808 48.7161 313.666 46.1281 315.191 45.5953C316.562 45.0624 317.019 44.8341 317.934 44.3012L318.163 44.9102Z" fill="#BEBEBE"/>
</svg>
