<svg width="215" height="71" viewBox="0 0 215 71" fill="none" xmlns="http://www.w3.org/2000/svg">
<path d="M68.7383 23.7491C68.7383 24.4342 68.1287 24.5103 67.5952 24.5103H52.2777C52.2777 25.4998 52.4301 29.8386 52.4301 30.6759C52.4301 31.5132 52.3539 32.1222 51.7443 32.7311C51.0584 33.264 50.2202 33.4923 49.6867 33.4923C48.2388 33.4923 48.315 32.655 48.315 31.5132H35.1312C35.1312 32.2744 35.1312 32.7311 34.7502 33.1879C34.1406 33.8729 32.845 34.558 32.1592 34.558C30.9399 34.558 30.9399 33.3401 30.9399 33.0356C30.9399 31.6655 31.0923 25.7282 31.0923 24.5103H20.271V36.8416H56.0118L57.917 34.4058C58.3743 33.7968 58.6029 33.4162 59.0601 33.4162C59.2887 33.4162 59.5174 33.4923 60.4318 34.2535L63.5563 36.6893C63.9374 36.9938 64.3184 37.2983 64.3184 37.8311C64.3184 38.5162 63.6325 38.6684 63.0991 38.6684H20.271C20.1948 39.4296 20.1947 39.8863 19.5089 40.4953C18.8992 40.952 17.9848 41.4087 17.2989 41.4087C15.6986 41.4087 15.6986 40.2669 15.6986 39.7341C15.6986 39.049 16.0034 35.9281 16.0034 35.2431C16.0796 32.7311 16.0796 32.4267 16.0034 24.5103H11.5834C8.91617 24.5103 4.64861 24.8148 1.75275 25.4237L0 22.1506C5.7155 22.6073 11.2024 22.6834 12.6503 22.6834H16.0034C16.0034 17.4312 15.6986 16.8984 15.0127 15.2238L20.9568 16.7462C21.6427 16.8984 22.2523 17.0506 22.2523 17.8879C22.2523 18.7253 21.7189 19.0297 20.1948 20.0193V22.6834H31.0161C30.8637 18.6491 30.7875 17.9641 30.0254 15.985L36.0457 17.5074C36.6554 17.6596 37.265 17.8118 37.265 18.4969C37.265 19.2581 36.5792 19.6387 35.1312 20.3999V22.6834H48.3912C48.3912 19.6387 48.2388 18.4969 47.4005 16.0611L53.0398 17.4312C53.9543 17.6596 54.4877 17.8118 54.4877 18.573C54.4877 19.3342 53.9543 19.6387 52.3539 20.476C52.2777 21.6178 52.2777 21.9984 52.2777 22.6834H59.9746L62.2608 20.0193C62.6418 19.4864 62.9467 19.1059 63.4039 19.1059C63.7087 19.1059 63.9373 19.182 64.8518 19.9432L67.9763 22.5312C68.3573 22.9118 68.7383 23.2163 68.7383 23.7491ZM48.3912 29.6864V24.5103H35.1312V29.6864H48.3912ZM66.376 10.1238C66.376 10.885 65.5377 10.885 65.2328 10.885H45.1905C45.1905 11.5701 45.4191 14.6148 45.4191 15.2238C45.4191 16.8984 43.6664 17.6596 42.3709 17.6596C41.6088 17.6596 41.2278 17.0506 41.1516 16.4417V10.885H28.1202C28.2727 14.5387 28.2727 15.2238 28.044 15.8327C27.5106 17.2029 26.2151 17.3551 25.5292 17.3551C24.2337 17.3551 23.9289 16.4417 23.9289 16.2133C23.8527 15.6805 23.9289 11.7223 23.9289 10.885H13.8696C11.1262 10.885 6.93481 11.2656 4.03896 11.7984L2.20999 8.52532C7.92549 8.98203 13.4886 9.05816 14.9365 9.05816H23.9289C23.9289 3.50147 23.3954 2.13133 22.7858 0.304476L29.6444 2.28357C30.1016 2.43581 30.6351 2.58804 30.6351 3.197C30.6351 3.80595 30.4064 4.18654 28.1202 5.02385C28.044 6.0134 28.044 6.54623 28.044 9.05816H41.1516C41.1516 5.02385 40.7705 2.35969 40.1609 0.152237L46.0288 1.5985C46.5622 1.75074 47.1719 1.90297 47.1719 2.58804C47.1719 3.50147 45.6478 4.26266 45.1143 4.56714V9.05816H57.6884L59.9746 6.08951C60.6605 5.17609 60.7367 5.09997 61.1939 5.09997C61.4225 5.09997 61.6511 5.09997 62.5656 5.93728L65.6901 8.90591C66.2997 9.51487 66.376 9.81934 66.376 10.1238ZM68.2811 61.1235C65.3091 62.4175 63.0991 63.8638 61.1177 66.2996C51.9729 62.2653 41.6088 55.4146 37.265 48.64H36.5792C36.5792 49.7057 36.503 54.7295 36.503 55.8713C36.503 56.4041 36.9602 65.6145 36.9602 66.2235C36.9602 69.4966 33.9881 69.4966 33.7595 69.4966C32.3116 69.4966 32.083 68.507 32.083 67.8981C32.083 67.213 32.3878 64.0921 32.3878 63.4071C32.5402 59.6011 32.5402 58.8399 32.6164 48.64H32.083C26.0627 55.6429 15.6986 64.1683 1.21931 68.2026V67.6697C10.0593 64.0921 20.8806 54.9579 26.1389 48.64H14.0982C12.5741 48.64 7.92549 48.8684 4.26757 49.5534L2.51482 46.2803C6.40135 46.5848 11.2024 46.8131 15.1651 46.8131H32.5402C32.464 43.2356 32.3116 42.0938 31.6257 39.8863L37.9509 41.5609C38.4843 41.7132 38.9416 42.0177 38.9416 42.5505C38.9416 43.3117 38.713 43.4639 36.503 44.9102C36.5792 45.5191 36.5792 45.6714 36.5792 46.8131H57.2312L59.9746 43.6923C60.6605 42.855 60.8891 42.7788 61.1939 42.7788C61.4987 42.7788 61.8036 42.855 62.5656 43.6161L65.6901 46.737C65.7663 46.8131 66.2998 47.346 66.2998 47.8027C66.2998 48.64 65.5377 48.64 65.1566 48.64H38.4081C45.1905 55.2623 56.9263 61.0474 68.2811 60.819V61.1235Z" fill="#BEBEBE"/>
<path d="M139.153 14.3104C139.153 14.8432 138.467 15.376 136.791 16.5939C136.791 24.0536 136.715 31.4371 136.791 38.8968C136.791 39.8102 137.553 54.8056 137.553 60.5907V61.428C137.553 62.1131 137.553 64.3205 134.581 64.3205C133.285 64.3205 132.904 63.7115 132.904 62.3414C132.904 61.5802 132.98 58.1549 132.98 57.3937H116.444C116.444 59.1444 116.444 64.016 116.367 64.3205C116.139 66.2235 114.539 67.5175 113.091 67.5175C112.176 67.5175 111.566 66.8324 111.566 66.0712V65.4623C112.1 59.3728 112.1 45.9758 112.1 39.3535C112.1 34.1774 112.1 18.0402 111.871 13.7014C111.795 11.9507 111.643 10.885 111.566 9.89546L117.434 13.1686H131.837L133.285 10.9611C133.59 10.5805 133.971 10.1238 134.352 10.1238C134.733 10.1238 135.191 10.4283 135.648 10.8089L138.544 13.1686C138.925 13.473 139.153 13.9298 139.153 14.3104ZM132.904 55.5668V14.9954H116.444V55.5668H132.904ZM105.699 18.9536C105.699 20.1715 102.65 21.3894 102.422 21.4655C101.812 30.9043 100.135 40.343 96.3251 49.0206C97.8493 49.8579 105.622 54.5012 105.622 58.8399C105.622 60.4384 104.784 62.0369 103.489 62.0369C101.812 62.0369 100.745 60.3623 100.059 59.2205C98.7638 57.1653 97.011 54.6534 94.801 52.2937C89.8476 61.428 82.3793 67.0608 72.3201 69.6488L72.0914 69.116C80.5504 64.8533 87.79 58.3832 91.7527 49.8579C89.3903 48.2594 84.9703 46.2042 83.4462 45.443C82.8366 48.5639 82.6079 50.0863 79.7121 50.0863C79.3311 50.0863 77.5783 50.0863 77.5783 48.5639C77.5783 48.031 79.4073 41.9415 79.7121 40.6475C81.2362 34.3296 82.989 26.0327 84.4369 18.7253C80.2455 18.7253 76.359 19.1058 74.0728 19.5626L72.2439 16.2895C76.2828 16.67 79.8645 16.8223 84.8179 16.8984C86.5707 7.45965 86.8755 5.17609 86.8755 2.13133C86.8755 1.2179 86.7993 0.608953 86.7231 0L92.972 2.28357C93.4293 2.51192 94.2676 2.89252 94.2676 3.50147C94.2676 4.49102 92.3624 5.02385 91.2955 5.32832C90.6858 7.76413 89.8476 11.1895 88.7045 16.8984H97.011L98.6113 15.376C99.3734 14.6148 99.9068 14.4626 100.288 14.4626C100.669 14.4626 101.05 14.691 101.355 14.9193L105.013 17.7357C105.546 18.1924 105.699 18.573 105.699 18.9536ZM98.0779 18.7253H88.3235C87.6376 22.3028 86.7231 26.7939 86.4183 28.6207C84.9704 36.6132 84.8941 37.4505 83.5224 44.6057C86.5707 45.2908 90.2286 46.2042 92.8196 47.2699C96.8586 36.1565 97.4682 27.0983 98.0779 18.7253Z" fill="#BEBEBE"/>
<path d="M212.312 10.4283C212.312 11.1134 211.626 11.2656 211.169 11.2656H190.364C190.364 14.9954 190.364 14.9954 189.983 15.6044C189.45 16.4417 188.154 17.0506 187.316 17.0506C186.097 17.0506 186.02 15.8327 186.02 15.2999C186.02 14.691 186.097 11.7984 186.097 11.2656H172.303C172.303 12.1029 172.379 15.6805 172.227 16.1372C171.998 16.7462 171.465 18.1163 169.636 18.1163C168.798 18.1163 168.188 17.279 168.188 16.3656V11.2656H157.671C155.004 11.2656 150.737 11.5701 147.841 12.1029L146.088 8.8298C151.804 9.28651 157.29 9.43875 158.738 9.43875H168.188C168.188 4.18654 168.112 2.8164 167.426 0.456714L172.913 2.05521C173.522 2.20745 174.513 2.43581 174.513 3.197C174.513 3.80595 174.208 3.95818 172.151 5.09997C172.151 5.78504 172.227 8.8298 172.227 9.43875H186.097C186.097 3.12088 185.639 1.5985 185.334 0.380595L191.279 1.97909C191.812 2.13133 192.574 2.35969 192.574 3.12088C192.574 3.72983 192.117 4.11042 190.212 5.17609C190.212 6.47011 190.212 7.15518 190.288 9.43875H203.243L205.986 6.16563C206.444 5.6328 206.749 5.17609 207.282 5.17609C207.739 5.17609 208.12 5.55668 208.501 6.0134L211.626 9.28651C212.083 9.74323 212.312 10.0477 212.312 10.4283ZM214.826 41.3326C210.94 42.246 209.644 43.7684 208.349 45.5952C199.509 41.7132 193.489 33.6446 190.517 29.0013C188.916 26.5655 188.535 24.6625 188.078 22.8357H174.97C172.303 22.8357 168.112 23.1402 165.216 23.7491L163.387 20.476C169.102 20.9327 174.666 21.0088 176.037 21.0088H187.621L189.069 19.7148C189.602 19.2581 189.831 19.0297 190.288 19.0297C190.516 19.0297 190.745 19.182 191.507 19.9432L193.489 22.0745C193.87 22.4551 194.022 22.6834 194.022 22.9879C194.022 23.5969 193.26 23.9013 192.803 24.1297C191.964 24.4342 191.05 24.7387 190.288 24.967C193.641 32.7311 204.234 39.8102 214.826 40.7236V41.3326ZM172.074 27.7834C172.074 28.6968 171.77 28.6968 168.95 29.0774C161.634 38.0595 155.995 43.6161 144.869 49.0967L144.564 48.64C150.965 43.7684 156.681 38.0595 161.558 31.6655C162.93 29.9147 165.216 26.87 166.359 23.5969L171.16 26.6416C171.617 26.9461 172.074 27.2506 172.074 27.7834ZM195.546 40.5714C195.546 41.1042 195.394 41.2565 194.022 42.3221C193.87 57.622 193.26 67.8981 182.515 69.7249C182.058 68.2787 181.6 67.6697 180.533 66.9847C179.543 66.3757 176.799 64.7011 174.97 63.9399V63.4832C176.113 63.5593 181.296 63.8638 182.286 63.8638C185.639 63.8638 188.078 62.4936 189.145 57.3937C190.212 52.0654 190.212 43.6923 190.212 41.4848H176.037C172.76 53.2833 169.102 66.5279 148.45 70.5622L148.374 70.0294C151.194 68.8876 159.119 65.6145 164.835 58.0788C168.188 53.6639 170.55 48.2594 171.541 41.4848C170.55 41.4848 166.13 41.7132 162.777 42.3221L160.948 39.049C166.664 39.5057 172.227 39.658 173.599 39.658H189.297L190.44 38.0595C190.516 37.9834 190.974 37.2983 191.507 37.2983C191.964 37.2983 192.422 37.6789 192.727 37.9072L194.784 39.5818C195.241 39.9624 195.546 40.1908 195.546 40.5714Z" fill="#BEBEBE"/>
</svg>
