<svg width="529" height="131" viewBox="0 0 529 131" fill="none" xmlns="http://www.w3.org/2000/svg">
<path d="M122.92 107.66C118.16 108.64 94.78 111.72 89.46 112.56C89.6 114.38 89.74 117.88 90.16 121.94C90.44 124.18 90.44 124.46 90.44 124.88C90.44 127.4 86.94 130.06 84.98 130.06C81.9 130.06 81.9 127.54 81.9 126.7C81.9 126.28 82.04 124.74 82.18 123.62C82.46 118.72 82.46 115.22 82.46 113.54C62.44 116.34 37.94 119 17.08 121.1C15.26 125.3 14.7 125.3 14.14 125.3C13.44 125.3 13.02 124.74 12.32 123.2L7.14 112.14C9.94 112.56 12.88 112.98 18.06 112.98C19.04 112.98 29.68 112.42 34.3 112.28V80.78C33.6 80.78 26.18 81.2 21 82.32L17.64 76.3C24.92 76.86 33.6 77.28 40.88 77.28H88.62L92.68 71.54C93.1 70.98 93.94 69.86 94.78 69.86C95.34 69.86 96.6 70.56 97.3 71.26L102.34 77C102.62 77.28 103.6 78.4 103.6 79.1C103.6 80.64 102.06 80.64 101.5 80.64H88.76C88.9 88.06 89.04 101.92 89.32 108.92C119.42 106.82 122.78 106.54 122.92 106.54V107.66ZM82.46 98.42V91H40.88V98.42H82.46ZM82.46 87.64V80.64H40.88V87.64H82.46ZM82.6 109.34C82.6 106.54 82.6 104.16 82.46 101.78H40.88V111.86C65.94 110.46 68.74 110.32 82.6 109.34ZM60.62 40.88C60.62 41.44 60.34 41.58 57.82 43.26C57.82 45.64 58.1 56.84 57.82 57.96C57.26 59.64 54.6 60.76 53.2 60.76C51.52 60.76 51.38 59.64 51.38 59.08H18.48C17.36 67.62 15.4 79.1 1.12 91.42L0 90.86C8.54 78.68 12.6 68.46 12.6 49.28C12.6 44.38 12.6 39.48 11.06 35L19.32 38.78H50.82L52.5 36.82C53.48 35.7 53.62 35.56 54.04 35.56C54.6 35.56 54.74 35.56 56.14 36.68L59.22 38.92C60.2 39.62 60.62 40.18 60.62 40.88ZM51.24 55.72V42.14H37.94V55.72H51.24ZM31.64 55.72V42.14H19.32C19.32 44.94 19.32 49 18.76 55.72H31.64ZM126.98 66.78C120.12 68.46 118.16 71.96 116.2 75.74C102.48 71.26 91.7 65.52 84.84 59.5C69.44 67.9 57.12 70.7 46.62 71.26V70.14C58.66 67.34 69.86 61.74 80.36 55.3C76.44 50.96 74.34 47.6 73.08 45.08C69.58 45.5 69.02 45.64 67.34 45.92L63.98 39.9C74.48 40.74 84.7 41.02 87.22 41.02H96.6L99.68 38.36C100.1 37.94 100.94 37.38 101.5 37.38C102.34 37.38 103.88 38.64 104.16 38.92L108.5 42.7C109.48 43.54 109.62 44.24 109.62 44.66C109.62 47.04 107.38 47.18 102.62 47.32C98.42 50.68 94.78 53.62 89.18 56.98C104.86 66.22 121.38 65.8 126.98 65.66V66.78ZM95.62 44.38H85.26C81.06 44.38 77.14 44.66 75.18 44.94C77.28 47.46 79.8 50.12 83.72 53.2C90.72 48.72 93.38 46.34 95.62 44.38ZM125.58 26.6C125.58 29.68 120.96 30.94 119.56 31.36C116.34 32.2 105.42 32.2 101.22 32.2C92.68 32.2 91.28 29.54 91.28 23.8V11.62H79.24C76.02 31.22 68.32 35.56 64.26 37.8L63.84 36.82C69.02 29.96 71.4 21.42 71.4 12.88C71.4 8.54 70.84 5.6 70.42 3.22L79.8 8.26001H90.58L92.26 6.3C93.52 4.9 93.66 4.76001 94.22 4.76001C94.78 4.76001 96.18 5.60001 96.32 5.60001L99.68 8.12C101.08 9.1 101.36 9.24 101.36 9.94C101.36 10.5 100.8 11.06 99.96 11.48C99.4 11.9 98.7 12.32 97.86 13.02C97.86 14.56 97.72 21.7 97.86 23.1C98.14 25.9 100.8 25.9 104.3 25.9C112.56 25.9 113.12 24.92 114.38 22.82C116.06 19.88 117.46 14.98 118.58 11.2H119.7C121.1 20.02 121.38 21.28 122.08 22.4C122.36 22.82 124.32 24.5 124.74 24.92C125.16 25.34 125.58 25.9 125.58 26.6ZM65.24 16.24C65.24 17.5 63.98 17.64 63.14 17.64H38.22V26.18H48.3L50.4 23.94C51.8 22.4 51.94 22.26 52.5 22.26C53.48 22.26 54.32 22.96 55.16 23.66L57.68 25.9C58.24 26.46 58.94 27.16 58.94 28C58.94 29.4 57.82 29.54 56.84 29.54H28.14C23.24 29.54 15.54 30.1 10.22 31.22L6.86 25.06C15.54 25.76 24.92 26.18 31.64 26.18V17.64H21.7C16.8 17.64 8.96 18.34 3.64 19.32L0.419998 13.3C10.92 14.14 21 14.28 23.66 14.28H31.5C31.36 10.08 31.22 8.12 29.68 2.10001L37.94 4.89999C41.44 6.02 41.72 6.44002 41.72 7.42001C41.72 8.26001 41.44 8.54001 38.36 11.2V14.28H52.92L55.58 11.34C56.98 9.8 57.26 9.66 57.82 9.66C58.52 9.66 60.06 10.64 60.48 11.06L63.84 14C64.54 14.7 65.24 15.4 65.24 16.24Z" fill="#9E9DA0"/>
<path d="M233.1 72.94C233.1 74.48 230.3 75.6 228.48 76.58C228.48 77.98 228.48 90.58 228.76 99.96C228.9 103.32 229.6 119.42 229.6 120.96C229.6 122.64 229.6 126.7 224.42 126.7C221.2 126.7 221.2 124.74 221.2 120.12H168.56C168.84 121.8 168.84 123.06 168.42 124.6C167.72 127.82 163.52 128.52 162.54 128.52C160.16 128.52 160.16 127.26 160.16 123.62C160.16 121.66 160.72 99.82 160.72 95.34C160.72 71.82 160.72 69.16 159.88 65.24L171.08 71.82H219.52L222.88 67.9C223.58 67.06 224.42 66.36 225.26 66.36C226.1 66.36 226.8 67.06 227.78 67.76L231.56 70.84C232.4 71.54 233.1 71.96 233.1 72.94ZM221.2 93.8V75.18H168.42V93.8H221.2ZM221.2 116.76V97.16H168.42V116.76H221.2ZM244.3 20.86C244.3 22.12 243.18 22.4 242.2 22.4H163.66C159.32 22.4 151.48 22.82 145.74 23.94L142.38 17.92C150.08 18.62 157.92 19.04 165.62 19.04H190.68C190.54 10.78 190.26 7.42 187.6 0L200.2 3.36002C201.74 3.78001 202.58 4.06 202.58 4.89999C202.58 6.29999 201.18 7.56 198.94 9.24001C198.94 10.78 198.8 17.64 198.8 19.04H228.06L231.84 13.44C232.4 12.6 233.1 11.48 234.08 11.48C234.92 11.48 236.04 12.6 236.6 13.02L242.9 18.76C243.74 19.46 244.3 20.02 244.3 20.86ZM258.86 55.16C258.86 56.42 257.6 56.56 256.76 56.56H151.48C147.14 56.56 139.3 57.12 133.56 58.24L130.2 52.22C137.9 52.78 145.74 53.2 153.44 53.2H206.08C212.38 33.46 212.38 29.12 212.52 22.54L223.86 29.4C225.12 30.1 225.96 30.52 225.96 31.36C225.96 33.88 221.34 34.16 220.08 34.3C215.32 42.98 210.42 49.7 207.76 53.2H241.36L245.84 47.04C246.68 45.92 247.24 45.08 248.08 45.08C249.06 45.08 250.18 45.92 250.88 46.62L257.6 53.06C258.16 53.62 258.86 54.32 258.86 55.16ZM180.32 43.96C180.32 47.74 177.52 49.7 174.86 49.7C171.36 49.7 170.94 47.6 169.82 41.3C168.28 31.92 166.74 28.7 165.48 26.32L166.32 25.62C168.84 27.16 172.76 29.4 176.12 33.88C179.48 38.36 180.32 42.14 180.32 43.96Z" fill="#9E9DA0"/>
<path d="M394.38 114.94C390.18 116.9 385.84 119 383.74 124.32C371 121.52 359.38 114.94 350.7 105.28C341.88 114.1 327.18 125.02 305.06 128.8V127.68C328.58 117.04 342.02 104.44 346.08 99.82C336 86.38 334.32 74.06 333.9 69.58C328.02 70.14 326.62 70.42 324.52 70.84L321.3 64.82C331.8 65.66 341.88 65.8 344.54 65.8H363.72L367.08 62.86C367.36 62.72 368.48 61.6 369.18 61.6C369.74 61.6 370.3 62.02 371.28 62.72L376.32 66.64C376.74 67.06 377.86 68.04 377.86 69.16C377.86 71.4 377.16 71.68 370.86 73.08C368.62 79.38 364.42 89.32 354.62 100.94C357.56 103.32 363.72 107.1 371 109.62C381.5 113.26 389.62 113.82 394.38 114.24V114.94ZM363.3 69.16H342.58C339.92 69.16 337.82 69.3 335.3 69.44C340.06 84.28 346.22 92.4 349.44 96.04C358.82 84.28 361.2 75.88 363.3 69.16ZM315.14 82.74C315.14 84.28 313.46 84.98 310.8 85.96C310.66 93.38 311.08 105.42 311.22 112.84C311.5 114.94 311.5 115.22 311.5 115.92C311.5 121.38 306.32 121.38 305.9 121.38C302.96 121.38 303.24 118.44 303.52 114.52H282.24C282.24 115.64 282.66 120.82 282.66 121.8C282.66 123.9 282.66 128.1 276.92 128.1C275.1 128.1 274.12 127.54 274.12 125.44C274.12 124.88 274.4 122.92 274.54 122.22C275.1 117.88 275.52 97.72 275.52 91.7C275.52 80.36 275.24 78.68 274.4 74.76L284.06 80.5H302.54L305.06 77.84C306.6 76.3 306.6 76.02 307.02 76.02C307.44 76.02 307.86 76.3 308.98 77.14L313.74 80.5C314.44 81.06 315.14 81.76 315.14 82.74ZM303.66 111.16V83.86H282.24V111.16H303.66ZM312.62 63.56C312.62 64.82 311.36 64.96 310.38 64.96H283.36C281.12 64.96 277.9 65.24 275.66 65.66L274.26 61.18C276.78 61.32 282.1 61.6 284.2 61.6H300.3L302.96 58.24C303.24 57.96 304.22 56.56 305.06 56.56C306.04 56.56 307.3 57.68 307.58 57.96L311.22 61.32C312.06 62.16 312.62 62.58 312.62 63.56ZM393.68 42.56C393.68 44.24 392.56 46.48 390.74 47.46C387.94 49.14 384.86 49.84 373.52 49.84C362.88 49.84 358.82 49.56 357.56 44.24C357.14 42.7 357.14 29.26 357.14 26.6C357.14 24.36 357.28 14.56 357.14 12.6H341.32C340.2 37.8 337.82 49.28 322.28 57.68L321.72 56.98C332.08 46.48 333.76 30.52 333.76 20.16C333.76 13.3 333.06 8.40001 332.5 4.76001L341.32 9.24001H357.42L359.52 6.44C360.08 5.74 360.78 4.89999 361.48 4.89999C362.04 4.89999 362.88 5.6 363.3 5.88L368.62 9.94C369.6 10.64 370.16 10.92 370.16 11.76C370.16 13.16 366.52 14.84 364.56 15.82C364.42 22.54 364.42 31.22 364.42 38.08C364.42 42.28 366.24 42.84 372.68 42.84C380.94 42.84 382.48 40.18 383.32 37.8C385 33.46 386.4 26.32 386.82 23.8H387.66C387.94 27.16 389.34 37.66 391.58 39.62C393.54 41.44 393.68 41.58 393.68 42.56ZM313.6 10.92C313.6 12.18 312.48 12.32 311.5 12.32H282.66C280.42 12.32 277.2 12.6 274.96 13.02L273.56 8.54001C276.08 8.68001 281.4 8.95999 283.5 8.95999H301L302.96 5.88C303.1 5.6 304.08 3.78 305.06 3.78C305.9 3.78 307.16 4.9 307.72 5.32001L312.2 8.68001C312.9 9.24001 313.6 9.94001 313.6 10.92ZM320.74 28.84C320.74 30.1 319.62 30.24 318.64 30.24H287.84C282.94 30.24 275.1 30.8 269.78 31.92L266.56 25.9C277.06 26.74 287.14 26.88 289.8 26.88H306.18L309.68 22.54C310.8 21.14 311.36 20.86 311.92 20.86C312.48 20.86 313.04 21.14 314.58 22.4L319.34 26.6C320.32 27.44 320.74 27.86 320.74 28.84ZM312.62 46.06C312.62 47.32 311.5 47.6 310.52 47.6H282.1C279.86 47.6 276.64 47.74 274.4 48.3L273 43.68C275.52 43.82 280.84 44.24 282.94 44.24H299.88L301.7 41.3C302.54 40.04 303.24 38.92 304.22 38.92C304.92 38.92 306.6 40.32 306.74 40.32L311.22 43.96C311.92 44.38 312.62 45.08 312.62 46.06Z" fill="#9E9DA0"/>
<path d="M457.24 82.6C457.24 83.3 456.82 83.72 456.54 84C456.4 84 453.18 86.38 452.76 86.66C452.76 88.9 452.62 98.28 452.62 100.24C452.62 101.36 452.9 112 452.9 113.96C452.9 115.92 453.04 117.46 452.06 118.72C451.08 120.12 448.98 120.96 447.58 120.96C444.5 120.96 444.64 118.58 444.64 114.94H417.2C417.2 116.2 417.34 121.24 417.34 122.36C417.34 125.02 413.7 127.26 411.18 127.26C409.08 127.26 409.08 125.3 409.08 124.04C409.08 122.92 409.92 106.96 410.06 103.74C410.34 100.38 410.34 96.32 410.34 92.26C410.34 81.62 409.5 77.7 408.8 74.48L418.18 80.64H443.94L446.32 77.42C447.44 75.88 447.72 75.6 448.42 75.6C448.84 75.6 449.26 75.6 450.8 76.72L455.7 80.64C456.82 81.62 457.24 81.9 457.24 82.6ZM444.78 111.58V84H417.2V111.58H444.78ZM528.92 48.16C528.92 49.42 527.8 49.56 526.82 49.56H495.04C495.04 73.78 495.04 74.9 496.02 108.36C496.16 110.88 496.44 120.96 496.44 122.92C496.44 124.74 496.44 129.36 490.56 129.36C487.2 129.36 486.92 128.1 486.92 126.42C486.92 126 487.34 118.16 487.34 116.62C487.76 105.14 487.76 93.1 487.9 49.56H481.18C476.84 49.56 469 50.12 463.26 51.24L459.9 45.22C467.6 45.78 475.44 46.2 483.14 46.2H487.9C487.9 34.16 487.34 18.62 486.92 13.58C486.36 5.88002 485.52 4.20001 483.98 1.54001L497.56 4.76001C498.26 4.90001 499.94 5.74 499.94 6.86C499.94 8.82 495.88 11.06 495.18 11.48C495.32 13.58 495.32 19.46 495.32 24.08C495.32 28.14 495.18 39.06 495.18 46.2H510.3L515.9 40.88C517.72 39.06 518.14 39.06 518.42 39.06C519.26 39.06 520.24 39.9 521.22 40.74L527.52 45.92C528.22 46.48 528.92 47.18 528.92 48.16ZM452.76 14.42C452.76 15.54 451.78 15.96 450.66 15.96H416.64C414.26 15.96 411.04 16.24 408.94 16.66L407.4 12.18C409.92 12.32 415.38 12.6 417.48 12.6H438.62L441.98 8.95999C443.1 7.7 443.52 7.14001 444.22 7.14001C445.06 7.14001 446.32 8.26 446.88 8.68001L451.36 12.32C452.06 12.88 452.76 13.72 452.76 14.42ZM465.5 31.22C465.5 32.48 464.24 32.76 463.26 32.76H420C415.66 32.76 407.82 33.18 402.08 34.3L398.72 28.28C406.42 28.84 414.26 29.4 421.96 29.4H450.52L454.44 25.06C455.84 23.38 456.12 23.24 456.82 23.24C457.24 23.24 457.8 23.52 459.34 24.92L464.1 29.12C464.94 29.82 465.5 30.24 465.5 31.22ZM452.76 48.86C452.76 50.12 451.78 50.4 450.66 50.4H416.64C414.26 50.4 411.04 50.68 408.94 51.24L407.4 46.62C409.92 46.76 415.38 47.04 417.48 47.04H438.34L441.56 42.7C442.26 41.86 443.1 40.88 443.94 40.88C444.78 40.88 446.18 42 446.6 42.42L451.5 46.9C452.2 47.6 452.76 48.02 452.76 48.86ZM453.74 64.68C453.74 65.66 453.04 66.22 451.64 66.22H416.64C414.26 66.22 411.04 66.36 408.94 66.92L407.4 62.3C409.92 62.44 415.38 62.86 417.48 62.86H439.74L442.4 59.36C443.38 58.1 443.94 57.54 444.5 57.54C445.2 57.54 445.62 57.82 447.44 59.08L452.48 62.58C453.18 63.14 453.74 63.98 453.74 64.68Z" fill="#9E9DA0"/>
</svg>
