<svg width="662" height="270" viewBox="0 0 662 270" fill="none" xmlns="http://www.w3.org/2000/svg">
<path d="M258.62 44.4901C258.62 45.7501 257.5 45.8901 256.52 45.8901H228.38C228.38 47.7101 228.66 55.6901 228.66 57.2301C228.66 58.7701 228.52 59.8901 227.4 61.0101C226.14 61.9901 224.6 62.4101 223.62 62.4101C220.96 62.4101 221.1 60.8701 221.1 58.7701H196.88C196.88 60.1701 196.88 61.0101 196.18 61.8501C195.06 63.1101 192.68 64.3701 191.42 64.3701C189.18 64.3701 189.18 62.1301 189.18 61.5701C189.18 59.0501 189.46 48.1301 189.46 45.8901H169.58V68.5701H235.24L238.74 64.0901C239.58 62.9701 240 62.2701 240.84 62.2701C241.26 62.2701 241.68 62.4101 243.36 63.8101L249.1 68.2901C249.8 68.8501 250.5 69.4101 250.5 70.3901C250.5 71.6501 249.24 71.9301 248.26 71.9301H169.58C169.44 73.3301 169.44 74.1701 168.18 75.2901C167.06 76.1301 165.38 76.9701 164.12 76.9701C161.18 76.9701 161.18 74.8701 161.18 73.8901C161.18 72.6301 161.74 66.8901 161.74 65.6301C161.88 61.0101 161.88 60.4501 161.74 45.8901H153.62C148.72 45.8901 140.88 46.4501 135.56 47.5701L132.34 41.5501C142.84 42.3901 152.92 42.5301 155.58 42.5301H161.74C161.74 32.8701 161.18 31.8901 159.92 28.8101L170.84 31.6101C172.1 31.8901 173.22 32.1701 173.22 33.7101C173.22 35.2501 172.24 35.8101 169.44 37.6301V42.5301H189.32C189.04 35.1101 188.9 33.8501 187.5 30.2101L198.56 33.0101C199.68 33.2901 200.8 33.5701 200.8 34.8301C200.8 36.2301 199.54 36.9301 196.88 38.3301V42.5301H221.24C221.24 36.9301 220.96 34.8301 219.42 30.3501L229.78 32.8701C231.46 33.2901 232.44 33.5701 232.44 34.9701C232.44 36.3701 231.46 36.9301 228.52 38.4701C228.38 40.5701 228.38 41.2701 228.38 42.5301H242.52L246.72 37.6301C247.42 36.6501 247.98 35.9501 248.82 35.9501C249.38 35.9501 249.8 36.0901 251.48 37.4901L257.22 42.2501C257.92 42.9501 258.62 43.5101 258.62 44.4901ZM221.24 55.4101V45.8901H196.88V55.4101H221.24ZM254.28 19.4301C254.28 20.8301 252.74 20.8301 252.18 20.8301H215.36C215.36 22.0901 215.78 27.6901 215.78 28.8101C215.78 31.8901 212.56 33.2901 210.18 33.2901C208.78 33.2901 208.08 32.1701 207.94 31.0501V20.8301H184C184.28 27.5501 184.28 28.8101 183.86 29.9301C182.88 32.4501 180.5 32.7301 179.24 32.7301C176.86 32.7301 176.3 31.0501 176.3 30.6301C176.16 29.6501 176.3 22.3701 176.3 20.8301H157.82C152.78 20.8301 145.08 21.5301 139.76 22.5101L136.4 16.4901C146.9 17.3301 157.12 17.4701 159.78 17.4701H176.3C176.3 7.25006 175.32 4.73006 174.2 1.37006L186.8 5.01006C187.64 5.29006 188.62 5.57006 188.62 6.69006C188.62 7.81006 188.2 8.51006 184 10.0501C183.86 11.8701 183.86 12.8501 183.86 17.4701H207.94C207.94 10.0501 207.24 5.15006 206.12 1.09006L216.9 3.75006C217.88 4.03006 219 4.31006 219 5.57006C219 7.25006 216.2 8.65006 215.22 9.21006V17.4701H238.32L242.52 12.0101C243.78 10.3301 243.92 10.1901 244.76 10.1901C245.18 10.1901 245.6 10.1901 247.28 11.7301L253.02 17.1901C254.14 18.3101 254.28 18.8701 254.28 19.4301ZM257.78 113.23C252.32 115.61 248.26 118.27 244.62 122.75C227.82 115.33 208.78 102.73 200.8 90.2701H199.54C199.54 92.2301 199.4 101.47 199.4 103.57C199.4 104.55 200.24 121.49 200.24 122.61C200.24 128.63 194.78 128.63 194.36 128.63C191.7 128.63 191.28 126.81 191.28 125.69C191.28 124.43 191.84 118.69 191.84 117.43C192.12 110.43 192.12 109.03 192.26 90.2701H191.28C180.22 103.15 161.18 118.83 134.58 126.25V125.27C150.82 118.69 170.7 101.89 180.36 90.2701H158.24C155.44 90.2701 146.9 90.6901 140.18 91.9501L136.96 85.9301C144.1 86.4901 152.92 86.9101 160.2 86.9101H192.12C191.98 80.3301 191.7 78.2301 190.44 74.1701L202.06 77.2501C203.04 77.5301 203.88 78.0901 203.88 79.0701C203.88 80.4701 203.46 80.7501 199.4 83.4101C199.54 84.5301 199.54 84.8101 199.54 86.9101H237.48L242.52 81.1701C243.78 79.6301 244.2 79.4901 244.76 79.4901C245.32 79.4901 245.88 79.6301 247.28 81.0301L253.02 86.7701C253.16 86.9101 254.14 87.8901 254.14 88.7301C254.14 90.2701 252.74 90.2701 252.04 90.2701H202.9C215.36 102.45 236.92 113.09 257.78 112.67V113.23Z" fill="#BEBEBE"/>
<path d="M387.98 27.1301C387.98 28.1101 386.72 29.0901 383.64 31.3301C383.64 45.0501 383.5 58.6301 383.64 72.3501C383.64 74.0301 385.04 101.61 385.04 112.25V113.79C385.04 115.05 385.04 119.11 379.58 119.11C377.2 119.11 376.5 117.99 376.5 115.47C376.5 114.07 376.64 107.77 376.64 106.37H346.26C346.26 109.59 346.26 118.55 346.12 119.11C345.7 122.61 342.76 124.99 340.1 124.99C338.42 124.99 337.3 123.73 337.3 122.33V121.21C338.28 110.01 338.28 85.3701 338.28 73.1901C338.28 63.6701 338.28 33.9901 337.86 26.0101C337.72 22.7901 337.44 20.8301 337.3 19.0101L348.08 25.0301H374.54L377.2 20.9701C377.76 20.2701 378.46 19.4301 379.16 19.4301C379.86 19.4301 380.7 19.9901 381.54 20.6901L386.86 25.0301C387.56 25.5901 387.98 26.4301 387.98 27.1301ZM376.5 103.01V28.3901H346.26V103.01H376.5ZM326.52 35.6701C326.52 37.9101 320.92 40.1501 320.5 40.2901C319.38 57.6501 316.3 75.0101 309.3 90.9701C312.1 92.5101 326.38 101.05 326.38 109.03C326.38 111.97 324.84 114.91 322.46 114.91C319.38 114.91 317.42 111.83 316.16 109.73C313.78 105.95 310.56 101.33 306.5 96.9901C297.4 113.79 283.68 124.15 265.2 128.91L264.78 127.93C280.32 120.09 293.62 108.19 300.9 92.5101C296.56 89.5701 288.44 85.7901 285.64 84.3901C284.52 90.1301 284.1 92.9301 278.78 92.9301C278.08 92.9301 274.86 92.9301 274.86 90.1301C274.86 89.1501 278.22 77.9501 278.78 75.5701C281.58 63.9501 284.8 48.6901 287.46 35.2501C279.76 35.2501 272.62 35.9501 268.42 36.7901L265.06 30.7701C272.48 31.4701 279.06 31.7501 288.16 31.8901C291.38 14.5301 291.94 10.3301 291.94 4.73006C291.94 3.05006 291.8 1.93006 291.66 0.810059L303.14 5.01006C303.98 5.43006 305.52 6.13006 305.52 7.25006C305.52 9.07006 302.02 10.0501 300.06 10.6101C298.94 15.0901 297.4 21.3901 295.3 31.8901H310.56L313.5 29.0901C314.9 27.6901 315.88 27.4101 316.58 27.4101C317.28 27.4101 317.98 27.8301 318.54 28.2501L325.26 33.4301C326.24 34.2701 326.52 34.9701 326.52 35.6701ZM312.52 35.2501H294.6C293.34 41.8301 291.66 50.0901 291.1 53.4501C288.44 68.1501 288.3 69.6901 285.78 82.8501C291.38 84.1101 298.1 85.7901 302.86 87.7501C310.28 67.3101 311.4 50.6501 312.52 35.2501Z" fill="#BEBEBE"/>
<path d="M522.38 19.9901C522.38 21.2501 521.12 21.5301 520.28 21.5301H482.06C482.06 28.3901 482.06 28.3901 481.36 29.5101C480.38 31.0501 478 32.1701 476.46 32.1701C474.22 32.1701 474.08 29.9301 474.08 28.9501C474.08 27.8301 474.22 22.5101 474.22 21.5301H448.88C448.88 23.0701 449.02 29.6501 448.74 30.4901C448.32 31.6101 447.34 34.1301 443.98 34.1301C442.44 34.1301 441.32 32.5901 441.32 30.9101V21.5301H422C417.1 21.5301 409.26 22.0901 403.94 23.0701L400.72 17.0501C411.22 17.8901 421.3 18.1701 423.96 18.1701H441.32C441.32 8.51006 441.18 5.99006 439.92 1.65006L450 4.59006C451.12 4.87006 452.94 5.29006 452.94 6.69006C452.94 7.81006 452.38 8.09006 448.6 10.1901C448.6 11.4501 448.74 17.0501 448.74 18.1701H474.22C474.22 6.55006 473.38 3.75006 472.82 1.51006L483.74 4.45006C484.72 4.73006 486.12 5.15006 486.12 6.55006C486.12 7.67006 485.28 8.37006 481.78 10.3301C481.78 12.7101 481.78 13.9701 481.92 18.1701H505.72L510.76 12.1501C511.6 11.1701 512.16 10.3301 513.14 10.3301C513.98 10.3301 514.68 11.0301 515.38 11.8701L521.12 17.8901C521.96 18.7301 522.38 19.2901 522.38 19.9901ZM527 76.8301C519.86 78.5101 517.48 81.3101 515.1 84.6701C498.86 77.5301 487.8 62.6901 482.34 54.1501C479.4 49.6701 478.7 46.1701 477.86 42.8101H453.78C448.88 42.8101 441.18 43.3701 435.86 44.4901L432.5 38.4701C443 39.3101 453.22 39.4501 455.74 39.4501H477.02L479.68 37.0701C480.66 36.2301 481.08 35.8101 481.92 35.8101C482.34 35.8101 482.76 36.0901 484.16 37.4901L487.8 41.4101C488.5 42.1101 488.78 42.5301 488.78 43.0901C488.78 44.2101 487.38 44.7701 486.54 45.1901C485 45.7501 483.32 46.3101 481.92 46.7301C488.08 61.0101 507.54 74.0301 527 75.7101V76.8301ZM448.46 51.9101C448.46 53.5901 447.9 53.5901 442.72 54.2901C429.28 70.8101 418.92 81.0301 398.48 91.1101L397.92 90.2701C409.68 81.3101 420.18 70.8101 429.14 59.0501C431.66 55.8301 435.86 50.2301 437.96 44.2101L446.78 49.8101C447.62 50.3701 448.46 50.9301 448.46 51.9101ZM491.58 75.4301C491.58 76.4101 491.3 76.6901 488.78 78.6501C488.5 106.79 487.38 125.69 467.64 129.05C466.8 126.39 465.96 125.27 464 124.01C462.18 122.89 457.14 119.81 453.78 118.41V117.57C455.88 117.71 465.4 118.27 467.22 118.27C473.38 118.27 477.86 115.75 479.82 106.37C481.78 96.5701 481.78 81.1701 481.78 77.1101H455.74C449.72 98.8101 443 123.17 405.06 130.59L404.92 129.61C410.1 127.51 424.66 121.49 435.16 107.63C441.32 99.5101 445.66 89.5701 447.48 77.1101C445.66 77.1101 437.54 77.5301 431.38 78.6501L428.02 72.6301C438.52 73.4701 448.74 73.7501 451.26 73.7501H480.1L482.2 70.8101C482.34 70.6701 483.18 69.4101 484.16 69.4101C485 69.4101 485.84 70.1101 486.4 70.5301L490.18 73.6101C491.02 74.3101 491.58 74.7301 491.58 75.4301Z" fill="#BEBEBE"/>
<path d="M117.22 148.79C117.22 150.19 115.26 151.59 112.74 153.13C112.88 156.49 113.02 170.91 113.02 173.85C113.16 176.93 113.58 191.77 113.58 194.01C113.58 201.43 112.18 203.53 110.36 205.21C106.44 208.99 102.1 210.25 100.28 210.81C98.6003 206.61 97.4803 204.09 92.3003 200.59V199.47C93.9803 199.75 95.6603 200.03 98.7403 200.03C103.78 200.03 104.34 199.33 105.04 198.21C105.74 197.09 105.74 191.07 105.74 187.43C105.74 173.85 105.6 163.63 105.32 156.77C105.04 147.81 103.92 145.71 102.8 143.47L115.26 146.97C116.38 147.25 117.22 147.95 117.22 148.79ZM128.28 255.75C127.58 255.89 119.46 258.27 116.52 264.29C87.2603 255.47 70.4603 235.31 66.1203 222.29H60.2403C58.5603 224.25 56.1803 226.77 51.8403 230.41V253.51C67.9403 249.17 72.9803 247.77 79.7003 245.25L80.1203 246.23C69.3403 252.95 50.5803 260.51 38.8203 264.43C37.9803 266.39 37.1403 268.77 35.4603 268.77C34.4803 268.77 33.7803 267.79 33.3603 267.09L28.0403 257.85C32.5203 258.27 35.0403 257.85 44.4203 255.33V236.43C35.8803 242.73 16.5603 254.35 0.320312 257.85V256.73C11.3803 252.95 38.8203 234.33 50.8603 222.29H22.1603C17.6803 222.29 9.84031 222.85 4.10032 223.97L0.740311 217.95C8.58031 218.51 16.2803 218.93 24.1203 218.93H65.7003C65.7003 218.09 65.5603 209.13 65.1403 205.77L75.5003 209.41C77.4603 210.11 78.1603 210.39 78.1603 211.37C78.1603 213.19 75.5003 214.03 73.2603 214.73V218.93H108.4L112.74 213.47C113.72 212.21 114.14 211.79 114.84 211.79C115.54 211.79 116.8 212.63 117.36 213.19L123.8 218.65C124.5 219.21 125.2 219.91 125.2 220.75C125.2 222.15 123.94 222.29 123.1 222.29H67.8003C70.3203 227.05 74.6603 232.09 80.5403 237.13C81.1003 236.85 91.8803 230.55 94.1203 223.97L102.66 231.39C102.8 231.53 103.78 232.37 103.78 232.93C103.78 233.63 102.94 234.89 100.56 234.89C99.7203 234.89 99.1603 234.89 97.0603 234.61C94.8203 235.31 84.4603 237.97 82.3603 238.53C97.4803 250.29 113.58 255.19 128.28 254.49V255.75ZM92.4403 152.29C92.4403 153.41 91.1803 154.25 88.6603 156.07C88.6603 162.09 88.6603 172.73 88.9403 180.43C89.0803 181.97 89.3603 188.27 89.3603 189.53C89.3603 193.45 85.4403 194.57 83.7603 194.57C81.3803 194.57 81.3803 192.89 81.3803 192.19C81.3803 190.93 81.5203 185.33 81.5203 184.21C81.6603 175.25 81.8003 171.61 81.8003 167.69C81.8003 156.91 81.5203 154.53 79.7003 147.53L90.3403 150.47C91.8803 150.89 92.4403 151.31 92.4403 152.29ZM73.2603 171.05C73.2603 172.31 72.0003 172.45 71.1603 172.45H42.3203V183.23H57.0203L59.5403 180.29C59.9603 179.87 60.3803 179.31 61.0803 179.31C61.6403 179.31 62.0603 179.59 62.7603 180.15L66.9603 183.23C67.5203 183.65 68.0803 184.35 68.0803 185.05C68.0803 186.45 65.1403 187.99 64.3003 188.41C64.3003 201.85 64.1603 203.11 63.0403 204.79C61.0803 207.59 57.8603 209.27 54.5003 210.39C53.2403 205.63 50.8603 202.97 49.7403 201.71V200.59C51.4203 200.73 56.4603 201.01 57.0203 199.33C57.4403 198.21 57.4403 188.13 57.4403 186.59H42.3203C42.4603 191.91 42.6003 199.19 42.8803 204.37C42.8803 205.21 43.0203 208.57 43.0203 209.27C43.0203 212.49 39.3803 213.33 37.8403 213.33C35.3203 213.33 35.1803 212.07 35.1803 210.81C35.1803 208.29 35.4603 202.13 35.4603 200.73C35.6003 194.85 35.4603 194.01 35.6003 186.59H22.1603V196.53C22.1603 197.93 22.4403 205.21 22.4403 206.05C22.4403 210.67 18.2403 210.95 17.2603 210.95C16.2803 210.95 14.7403 210.81 14.7403 208.85C14.7403 206.47 15.1603 202.69 15.1603 200.31V191.63C15.1603 184.77 15.0203 183.51 14.1803 180.29L22.5803 183.23H35.7403V172.45H23.2803C18.8003 172.45 10.9603 173.01 5.22031 174.13L2.00031 168.11C9.70031 168.67 17.4003 169.09 25.2403 169.09H35.7403V157.47H21.4603C18.3803 161.95 15.3003 165.31 13.4803 167.27L12.3603 167.13C14.6003 162.51 19.5003 150.33 18.8003 143.61L28.0403 145.99C29.0203 146.27 29.7203 146.55 29.7203 147.53C29.7203 148.37 28.6003 149.63 25.6603 151.17C24.9603 152.29 24.6803 152.71 23.8403 154.11H35.7403C35.7403 147.11 35.7403 146.83 33.9203 141.51L43.7203 143.75C44.7003 144.03 45.9603 144.17 45.9603 145.29C45.9603 146.69 44.2803 148.09 42.4603 149.77V154.11H54.2203L56.8803 150.89C57.5803 149.91 58.2803 149.21 59.1203 149.21C59.9603 149.21 60.9403 149.91 61.6403 150.61L65.4203 153.83C66.2603 154.67 66.8203 155.09 66.8203 156.07C66.8203 157.33 65.7003 157.47 64.7203 157.47H42.3203V169.09H59.4003L63.0403 165.31C64.0203 164.33 64.7203 163.49 65.4203 163.49C65.9803 163.49 67.3803 164.61 67.8003 165.03L71.8603 168.81C72.7003 169.65 73.2603 170.07 73.2603 171.05Z" fill="#BEBEBE"/>
<path d="M255.4 183.09C255.4 184.35 254.28 184.63 253.3 184.63H160.2C160.06 198.49 159.92 204.79 159.64 208.71H207.66L210.04 205.35C210.74 204.37 211.3 203.81 212 203.81C212.7 203.81 213.82 204.51 214.38 204.93L219.42 208.29C220.26 208.85 221.1 209.69 221.1 210.53C221.1 211.65 220.54 211.93 216.62 215.01C216.76 235.31 216.62 237.55 217.18 248.61C217.18 250.01 217.74 263.17 217.74 263.87C217.74 267.37 213.82 268.77 212.14 268.77C208.22 268.77 208.22 265.27 208.22 263.59C208.22 258.97 208.78 238.25 208.78 234.05C208.78 226.77 208.78 219.35 208.64 212.07H159.36C156 245.11 141.16 258.55 131.92 265.55L131.22 264.99C147.88 242.59 152.78 226.21 152.78 183.79C152.78 170.63 151.94 155.51 151.24 150.19C150.96 147.95 150.54 146.55 149.56 144.17L162.44 147.67C163.56 147.95 164.68 148.23 164.68 149.77C164.68 150.89 164.26 151.17 160.62 153.55C160.62 156.07 160.34 177.35 160.34 181.27H198.42C198.42 176.93 198.42 161.67 197.86 150.19C197.72 145.85 197.3 144.03 196.74 141.65L208.5 145.29C210.6 145.99 210.74 146.55 210.74 147.25C210.74 148.51 207.66 150.75 206.26 151.87C205.98 156.49 206.26 177.07 206.26 181.27H235.94L241.4 174.41C241.82 173.85 242.8 172.73 243.5 172.73C244.34 172.73 245.46 173.71 246.16 174.27L254.14 180.99C254.84 181.69 255.4 182.25 255.4 183.09Z" fill="#BEBEBE"/>
<path d="M395.68 227.19C395.68 228.45 394.42 228.73 393.58 228.73H285.22C280.88 228.73 272.9 229.15 267.3 230.27L263.94 224.25C270.94 224.81 277.24 225.09 282.84 225.23C282.7 209.69 282.14 190.09 281.44 174.69C280.74 160.83 279.9 158.31 278.36 153.41L287.88 158.31C289.56 157.19 299.08 150.47 300.76 144.17L310.28 151.87C310.84 152.29 311.12 152.99 311.12 153.69C311.12 155.23 310 155.23 308.88 155.23C308.04 155.23 304.26 154.95 303.56 154.95C299.64 156.49 291.38 159.43 288.16 160.27C288.02 162.93 288.44 174.97 288.44 177.49H299.78L302.02 174.55C302.58 173.71 303.28 172.73 304.12 172.73C304.96 172.73 305.94 173.71 306.64 174.41L309.16 176.93C309.72 177.49 310.56 178.47 310.56 179.31C310.56 180.57 309.44 180.85 308.46 180.85H288.44C288.72 194.85 288.86 196.39 289 200.87H298.94L301.46 197.23C302.02 196.39 302.72 195.41 303.7 195.41C304.54 195.41 305.38 196.39 305.94 197.09L308.88 200.73C309.44 201.43 310 202.13 310 202.69C310 203.95 309.02 204.23 307.9 204.23H289C289.14 207.59 289.56 222.29 289.7 225.37H331.98C332.26 217.67 333.1 205.63 333.38 198.07C333.66 190.09 333.66 185.19 333.66 180.57H324.7C324.42 181.83 323.02 183.79 319.66 183.79C318.26 183.79 317.42 183.65 317.42 181.27C317.42 178.89 317.7 175.39 317.7 173.15C317.98 164.61 317.84 155.65 317.84 153.13C317.84 145.71 317.56 144.31 316.58 140.95L327.64 143.89C328.2 144.03 330.16 144.59 330.16 146.13C330.16 147.39 328.48 148.23 325.26 149.77C325.26 151.31 325.26 152.01 325.12 159.01H334.5L336.46 155.65C337.44 153.83 338 153.69 338.56 153.69C339.4 153.69 340.38 154.53 341.08 155.23L344.16 158.59C345.28 159.85 345.56 160.27 345.56 160.97C345.56 162.23 344.44 162.37 343.46 162.37H324.98C324.98 163.77 324.84 167.55 324.84 168.67V177.21H332.96L334.78 174.69C335.62 173.57 336.04 172.87 336.88 172.87C337.86 172.87 338.42 173.43 339.68 174.41L343.6 177.77C344.86 178.89 345 179.45 345 179.87C345 180.71 344.44 181.13 343.88 181.55C343.46 181.83 341.08 183.09 340.66 183.37C340.52 185.19 339.26 218.23 338.84 225.37H363.9C364.04 222.29 364.18 207.59 364.32 205.07H356.06C353.82 205.07 350.6 205.35 348.36 205.77L346.96 201.29C349.48 201.43 354.8 201.71 356.9 201.71H364.32C364.32 198.63 364.6 184.63 364.6 181.69H357.6C355.36 181.69 352.14 181.97 349.9 182.53L348.5 177.91C351.02 178.05 356.34 178.33 358.44 178.33H364.74C364.88 173.43 364.88 173.01 364.88 167.83C364.88 162.65 365.02 161.67 365.16 159.43H359.28C356.9 159.43 353.68 159.71 351.44 160.13L350.04 155.51C352.56 155.79 358.02 156.07 360.12 156.07H363.34L366.14 152.99C367.54 151.45 367.82 151.03 368.8 151.03C369.64 151.03 370.34 151.59 370.9 152.01L375.8 155.65C377.06 156.63 377.48 157.47 377.48 158.17C377.48 160.13 373.56 161.53 372.3 162.09C372.16 163.07 371.6 197.23 371.46 203.81C371.32 207.31 371.04 222.29 370.9 225.37H380.14L383.92 219.77C384.48 218.93 385.32 218.09 386.16 218.09C387 218.09 387.98 218.93 388.82 219.63L394.42 225.09C395.12 225.65 395.68 226.35 395.68 227.19ZM327.08 193.17C327.08 194.71 324.84 195.55 322.04 196.67C321.9 199.61 321.76 213.05 321.48 215.57C321.06 218.79 317.84 220.33 315.88 220.33C314.48 220.33 314.06 219.35 314.06 218.23C314.06 214.73 314.62 209.13 314.76 205.77C314.9 201.71 315.04 196.39 315.04 194.01C315.04 190.37 314.9 189.25 314.48 187.43L324.98 191.21C325.68 191.49 327.08 192.05 327.08 193.17ZM377.76 261.77C377.76 265.27 375.66 266.39 373.7 266.39C371.04 266.39 370.34 265.55 363.06 257.85C359.7 254.21 347.66 243.43 336.6 237.97L336.88 237.13C350.74 241.33 377.76 250.57 377.76 261.77ZM316.3 242.03C316.3 243.43 314.2 243.85 313.5 243.99C312.66 244.13 308.88 244.41 308.18 244.55C297.4 254.07 282.42 262.61 265.48 267.23L265.34 266.11C292.22 252.67 302.02 237.83 303.98 234.61L314.2 239.93C315.04 240.35 316.3 241.19 316.3 242.03Z" fill="#BEBEBE"/>
<path d="M502.64 241.05C502.64 242.45 500.4 243.99 498.16 245.39C498.3 251.27 498.44 254.91 498.58 257.43C498.58 257.99 499 261.63 499 263.45C499 264.57 498.58 265.97 497.46 266.67C496.34 267.65 494.38 268.35 493.54 268.35C490.74 268.35 490.74 266.11 490.88 263.73H435.72C436 268.77 429.7 269.19 429.56 269.19C427.88 269.19 427.18 267.79 427.18 266.11C427.18 265.13 427.32 261.07 427.46 260.23C427.6 253.23 428.3 230.69 428.3 217.25C428.3 211.79 428.3 206.33 427.6 202.97C426.62 198.91 426.62 198.35 426.34 197.23L435.86 202.69H483.6L486.96 199.19C487.8 198.21 487.94 198.07 488.36 198.07C488.92 198.07 490.32 198.91 490.74 199.19L496.34 203.11C497.18 203.67 497.74 204.23 497.74 205.21C497.74 205.91 497.18 206.47 496.76 206.75C496.2 207.03 493.4 208.43 492.98 208.71C492.98 210.25 493.54 224.81 493.54 225.09C493.54 228.73 491.44 230.83 487.66 230.83C485.42 230.83 485.42 229.85 485.42 226.35H435.72V238.81H489.76L492.28 236.15C492.98 235.45 493.54 234.89 494.24 234.89C494.94 234.89 495.78 235.45 496.48 235.87L501.24 239.37C502.64 240.35 502.64 240.77 502.64 241.05ZM485.56 222.99V206.05H435.72V222.99H485.56ZM490.88 260.37V242.17H435.72V260.37H490.88ZM522.24 159.57C522.24 160.97 520.98 161.11 520.14 161.11H482.9C488.22 163.35 497.04 166.99 497.04 173.57C497.04 176.09 495.5 178.47 492.56 178.47C489.2 178.47 488.78 176.93 487.52 173.01C485.42 166.43 481.5 162.37 479.96 161.11H473.1C466.66 167.27 463.16 169.37 460.36 171.19L459.66 171.05C473.1 154.39 476.32 143.89 476.6 139.69L487.38 146.13C488.36 146.69 488.5 147.11 488.5 147.39C488.5 149.07 487.8 149.21 482.62 150.19C480.8 152.85 479.4 154.53 476.32 157.75H504.04L509.78 151.87C511.32 150.33 511.46 150.19 512.02 150.19C512.86 150.19 513.84 151.03 514.54 151.59L520.84 157.47C521.68 158.31 522.24 158.73 522.24 159.57ZM523.92 192.89C523.92 193.17 523.64 195.69 520.98 195.69C520.14 195.69 516.78 195.55 516.08 195.55C514.12 196.67 513.28 197.09 508.8 199.19C506.14 200.45 505.58 200.87 504.46 201.71L504.04 201.15C506.14 197.65 506.14 197.51 508.66 189.67H420.04C419.34 193.03 414.72 205.77 405.62 205.77C404.36 205.77 401 205.63 401 201.85C401 197.93 403.8 196.25 405.62 195.27C413.46 190.93 418.08 184.07 418.64 178.89L419.9 179.31C420.46 183.37 420.46 184.07 420.46 186.31H458.96C458.26 174.97 457.56 173.57 456.16 171.05L469.18 174.13C469.88 174.27 470.72 174.55 470.72 175.53C470.72 176.09 470.44 176.79 470.02 177.21C469.18 178.05 467.36 179.03 466.38 179.73C466.38 181.69 466.38 184.63 466.52 186.31H506.42L511.6 182.95C513 181.97 513.28 181.69 513.98 181.69C515.1 181.69 515.66 182.25 515.94 182.67L523.64 191.63C523.92 192.05 523.92 192.47 523.92 192.89ZM461.34 159.71C461.34 160.97 460.22 161.11 459.24 161.11H431.52C439.36 165.73 443.7 168.25 443.7 174.13C443.7 178.05 441.32 179.45 439.22 179.45C436 179.45 435.58 177.77 434.32 173.15C434.18 172.59 432.08 165.03 428.86 161.11H419.06C412.62 168.95 405.76 176.51 398.48 180.99L398.06 180.43C409.54 167.13 420.74 147.53 420.74 138.99L432.5 145.15C432.92 145.43 433.34 145.85 433.34 146.55C433.34 147.53 432.22 148.51 430.82 148.93C428.44 149.77 428.44 149.77 426.9 150.61C425.64 152.57 424.66 153.97 421.72 157.75H446.64L450.42 153.69C451.82 152.15 451.96 152.01 452.8 152.01C453.5 152.01 453.92 152.29 455.32 153.41L459.94 157.47C460.08 157.47 461.34 158.59 461.34 159.71Z" fill="#BEBEBE"/>
<path d="M661.68 261.21C661.68 262.47 660.42 262.61 659.58 262.61H581.74C576.84 262.61 569.14 263.17 563.82 264.29L560.46 258.27C570.96 259.11 581.18 259.25 583.7 259.25H612.82V233.63H604.56C599.52 233.63 591.82 234.19 586.5 235.17L583.14 229.15C593.64 229.99 603.86 230.27 606.52 230.27H612.82V206.89H594.9C594.9 208.85 594.9 210.67 594.62 211.51C594.2 212.49 592.24 214.87 589.3 214.87C586.36 214.87 586.36 212.77 586.36 211.79C586.36 211.23 586.36 211.09 586.5 209.41C587.48 195.27 587.62 166.99 587.62 165.17C587.62 155.79 587.34 150.61 586.08 145.85L597.56 150.89H636.9L640.54 147.25C641.52 146.27 642.22 145.71 642.92 145.71C643.62 145.71 644.74 146.69 645.3 147.11L651.04 151.45C651.74 152.01 652.44 152.85 652.44 153.69C652.44 155.09 649.22 156.77 647.96 157.47C647.82 158.87 647.82 190.65 647.96 195.97C647.96 197.79 648.52 205.77 648.52 207.45C648.52 210.53 645.3 213.33 642.78 213.33C639.42 213.33 639.56 211.65 639.84 206.89H620.66V230.27H636.2L641.38 224.81C641.94 224.25 642.92 223.13 643.62 223.13C644.32 223.13 645.3 223.97 646.14 224.67L652.58 229.99C653.28 230.55 653.98 231.11 653.98 232.09C653.98 233.35 652.86 233.63 651.88 233.63H620.66V259.25H644.18L648.94 253.79C650.34 252.25 650.48 252.11 651.18 252.11C651.88 252.11 652.16 252.25 653.7 253.51L660.28 258.97C660.98 259.53 661.68 260.09 661.68 261.21ZM639.84 176.93V154.25H620.66V176.93H639.84ZM639.84 203.53V180.29H620.66V203.53H639.84ZM612.82 176.93V154.25H594.76V176.93H612.82ZM612.82 203.53V180.29H594.76V203.53H612.82ZM584.82 221.59C576.7 228.17 556.4 239.79 541.98 246.65V248.05C541.98 249.45 541.98 251.83 539.6 251.83C538.34 251.83 537.78 250.99 537.22 249.73L531.2 237.41C532.32 237.55 533.02 237.69 534.14 237.69C537.22 237.69 539.74 237.27 553.6 232.51V196.25C551.5 196.25 543.38 196.67 537.36 197.79L534 191.77C539.46 192.19 548.14 192.61 553.6 192.75V158.03C548.7 158.03 540.86 158.59 535.54 159.71L532.18 153.69C539.46 154.25 548.28 154.67 555.56 154.67H568.72L572.64 150.19C573.76 148.79 574.18 148.51 574.88 148.51C575.72 148.51 576.84 149.49 577.4 149.91L582.16 154.39C583 155.23 583.56 155.65 583.56 156.49C583.56 158.03 582.02 158.03 581.46 158.03H561.44V192.89H567.46L572.78 187.43C573.76 186.31 574.46 185.75 575.16 185.75C576 185.75 576.56 186.17 577.54 187.29L582.72 192.61C583.56 193.45 583.98 194.01 583.98 194.71C583.98 196.11 582.44 196.25 581.88 196.25H561.44V229.57C563.96 228.59 576.56 223.83 579.36 222.85C581.88 221.87 582.72 221.45 584.4 220.47L584.82 221.59Z" fill="#BEBEBE"/>
</svg>
